Georama-SemiBold.ufo
<glyph name="exclam" format="2">
  <advance width="243.06000000000003"/>
  <unicode hex="0021"/>
  <outline>
    <contour>
      <point x="64.78" y="261.25" type="line"/>
      <point x="179.16000000000003" y="261.25" type="line"/>
      <point x="188.84" y="740.0" type="line"/>
      <point x="56.09000000000001" y="740.0" type="line"/>
    </contour>
    <contour>
      <point x="48.14" y="65.62" type="curve" smooth="yes"/>
      <point x="48.14" y="16.180000000000003"/>
      <point x="67.91" y="-5.72"/>
      <point x="121.53000000000002" y="-5.72" type="curve" smooth="yes"/>
      <point x="175.6" y="-5.72"/>
      <point x="194.92000000000002" y="16.180000000000003"/>
      <point x="194.92000000000002" y="65.62" type="curve" smooth="yes"/>
      <point x="194.92000000000002" y="115.61"/>
      <point x="175.6" y="137.51000000000002"/>
      <point x="121.53000000000002" y="137.51000000000002" type="curve" smooth="yes"/>
      <point x="67.46000000000001" y="137.51000000000002"/>
      <point x="48.14" y="115.61"/>
    </contour>
  </outline>
</glyph>
<glyph name="numbersign" format="2">
  <advance width="623.22"/>
  <unicode hex="0023"/>
  <outline>
    <contour>
      <point x="75.84" y="436.24" type="line"/>
      <point x="155.22" y="436.24" type="line"/>
      <point x="125.55999999999999" y="258.99" type="line"/>
      <point x="48.730000000000004" y="258.99" type="line"/>
      <point x="48.730000000000004" y="162.24" type="line"/>
      <point x="112.94000000000001" y="162.24" type="line"/>
      <point x="88.41" y="0.0" type="line"/>
      <point x="206.86" y="0.0" type="line"/>
      <point x="231.39000000000004" y="162.24" type="line"/>
      <point x="338.42" y="162.24" type="line"/>
      <point x="313.89" y="0.0" type="line"/>
      <point x="432.34" y="0.0" type="line"/>
      <point x="456.87" y="162.24" type="line"/>
      <point x="547.6" y="162.24" type="line"/>
      <point x="547.6" y="258.99" type="line"/>
      <point x="469.49" y="258.99" type="line"/>
      <point x="499.15" y="436.24" type="line"/>
      <point x="574.7099999999999" y="436.24" type="line"/>
      <point x="574.7099999999999" y="533.21" type="line"/>
      <point x="511.64" y="533.21" type="line"/>
      <point x="537.36" y="700.0" type="line"/>
      <point x="418.90999999999997" y="700.0" type="line"/>
      <point x="393.19000000000005" y="533.21" type="line"/>
      <point x="286.16" y="533.21" type="line"/>
      <point x="311.88" y="700.0" type="line"/>
      <point x="193.43" y="700.0" type="line"/>
      <point x="167.71" y="533.21" type="line"/>
      <point x="75.84" y="533.21" type="line"/>
    </contour>
    <contour>
      <point x="273.67" y="436.24" type="line"/>
      <point x="380.7" y="436.24" type="line"/>
      <point x="351.03999999999996" y="258.99" type="line"/>
      <point x="244.01000000000002" y="258.99" type="line"/>
    </contour>
  </outline>
</glyph>
<glyph name="dollar" format="2">
  <advance width="623.22"/>
  <unicode hex="0024"/>
  <outline>
    <contour>
      <point x="286.13" y="-10.0" type="curve" smooth="yes"/>
      <point x="457.43" y="-12.6"/>
      <point x="575.03" y="44.10000000000001"/>
      <point x="575.03" y="185.38" type="curve" smooth="yes"/>
      <point x="575.03" y="307.59999999999997"/>
      <point x="488.14000000000004" y="360.45000000000005"/>
      <point x="373.93000000000006" y="400.73" type="curve" smooth="yes"/>
      <point x="270.60999999999996" y="436.4"/>
      <point x="203.59000000000003" y="460.69"/>
      <point x="203.59000000000003" y="523.49" type="curve" smooth="yes"/>
      <point x="203.59000000000003" y="573.12"/>
      <point x="248.17000000000002" y="597.4000000000001"/>
      <point x="333.05000000000007" y="597.4000000000001" type="curve" smooth="yes"/>
      <point x="394.7600000000001" y="597.4000000000001"/>
      <point x="467.95000000000005" y="586.1800000000001"/>
      <point x="519.6999999999999" y="568.91" type="curve"/>
      <point x="544.28" y="676.9" type="line"/>
      <point x="487.57000000000005" y="696.21"/>
      <point x="405.11" y="710.0"/>
      <point x="328.06" y="710.0" type="curve" smooth="yes"/>
      <point x="167.23000000000002" y="709.6400000000001"/>
      <point x="69.38000000000002" y="643.9799999999999"/>
      <point x="69.38000000000002" y="516.1300000000001" type="curve" smooth="yes"/>
      <point x="69.38000000000002" y="398.61"/>
      <point x="147.31" y="343.94"/>
      <point x="247.03" y="303.72999999999996" type="curve" smooth="yes"/>
      <point x="360.89" y="262.8"/>
      <point x="440.74" y="238.70000000000002"/>
      <point x="440.74" y="175.62000000000003" type="curve" smooth="yes"/>
      <point x="440.74" y="125.02000000000001"/>
      <point x="395.33000000000004" y="99.21000000000001"/>
      <point x="304.72" y="99.21000000000001" type="curve" smooth="yes"/>
      <point x="236.19000000000003" y="99.21000000000001"/>
      <point x="148.13000000000002" y="114.67"/>
      <point x="73.45000000000002" y="140.15" type="curve"/>
      <point x="48.589999999999996" y="32.93" type="line"/>
      <point x="114.54" y="8.340000000000002"/>
      <point x="207.73000000000002" y="-9.08"/>
    </contour>
    <contour>
      <point x="267.17" y="-105.0" type="line"/>
      <point x="373.7" y="-105.0" type="line"/>
      <point x="373.7" y="10.11" type="line"/>
      <point x="267.17" y="3.5200000000000005" type="line"/>
    </contour>
    <contour>
      <point x="267.17" y="690.8199999999999" type="line"/>
      <point x="373.7" y="697.04" type="line"/>
      <point x="373.7" y="804.34" type="line"/>
      <point x="267.17" y="804.34" type="line"/>
    </contour>
  </outline>
</glyph>
<glyph name="ampersand" format="2">
  <advance width="694.76"/>
  <unicode hex="0026"/>
  <outline>
    <contour>
      <point x="537.1800000000001" y="-5.399999999999999" type="line"/>
      <point x="691.82" y="2.7755575615628914e-17" type="line"/>
      <point x="298.90000000000003" y="422.52" type="line" smooth="yes"/>
      <point x="259.44" y="464.96"/>
      <point x="245.82" y="496.41999999999996"/>
      <point x="245.82" y="528.74" type="curve" smooth="yes"/>
      <point x="245.82" y="577.6599999999999"/>
      <point x="275.00000000000006" y="604.7399999999999"/>
      <point x="335.00000000000006" y="604.7399999999999" type="curve" smooth="yes"/>
      <point x="390.46" y="604.7399999999999"/>
      <point x="417.65999999999997" y="579.2199999999998"/>
      <point x="417.65999999999997" y="530.9200000000001" type="curve" smooth="yes"/>
      <point x="417.65999999999997" y="493.28000000000003"/>
      <point x="403.74" y="467.92"/>
      <point x="374.52000000000004" y="447.18" type="curve"/>
      <point x="427.1" y="386.02000000000004" type="line"/>
      <point x="505.68" y="423.24000000000007"/>
      <point x="536.78" y="481.88"/>
      <point x="536.78" y="553.1199999999999" type="curve" smooth="yes"/>
      <point x="536.78" y="656.54"/>
      <point x="466.90000000000003" y="710.0"/>
      <point x="330.76" y="710.0" type="curve" smooth="yes"/>
      <point x="176.45999999999998" y="710.0"/>
      <point x="109.38000000000001" y="638.3400000000001"/>
      <point x="109.38000000000001" y="527.32" type="curve" smooth="yes"/>
      <point x="109.38000000000001" y="471.24"/>
      <point x="128.48" y="420.96000000000004"/>
      <point x="176.46" y="367.11999999999995" type="curve" smooth="yes"/>
    </contour>
    <contour>
      <point x="285.15999999999997" y="-10.0" type="curve" smooth="yes"/>
      <point x="367.72" y="-10.0"/>
      <point x="436.59999999999997" y="15.680000000000003"/>
      <point x="490.82000000000005" y="66.31999999999996" type="curve"/>
      <point x="426.37999999999994" y="144.04000000000002" type="line"/>
      <point x="400.06000000000006" y="110.66000000000001"/>
      <point x="362.4000000000001" y="90.08000000000001"/>
      <point x="301.20000000000005" y="90.08000000000001" type="curve" smooth="yes"/>
      <point x="215.44000000000003" y="90.08000000000001"/>
      <point x="159.20000000000002" y="137.24"/>
      <point x="159.20000000000002" y="207.82" type="curve" smooth="yes"/>
      <point x="159.20000000000002" y="262.8599999999999"/>
      <point x="183.98" y="297.62"/>
      <point x="234.22000000000003" y="326.68" type="curve"/>
      <point x="172.05999999999997" y="399.94" type="line"/>
      <point x="75.9" y="355.28000000000003"/>
      <point x="31.079999999999995" y="288.14000000000004"/>
      <point x="31.079999999999995" y="193.94" type="curve" smooth="yes"/>
      <point x="31.079999999999995" y="70.86"/>
      <point x="125.74" y="-10.0"/>
    </contour>
    <contour>
      <point x="566.78" y="115.99999999999999" type="line"/>
      <point x="609.34" y="170.83999999999997"/>
      <point x="633.7600000000001" y="237.16"/>
      <point x="633.7600000000001" y="311.35999999999996" type="curve" smooth="yes"/>
      <point x="633.7600000000001" y="333.26"/>
      <point x="631.8600000000001" y="349.12"/>
      <point x="629.0000000000001" y="366.99999999999994" type="curve"/>
      <point x="520.5200000000001" y="365.2" type="line"/>
      <point x="523.28" y="349.69999999999993"/>
      <point x="524.2000000000002" y="335.88"/>
      <point x="523.1400000000001" y="320.22" type="curve" smooth="yes"/>
      <point x="521.9200000000002" y="275.2199999999999"/>
      <point x="510.5" y="237.92000000000002"/>
      <point x="488.15999999999997" y="208.62" type="curve"/>
    </contour>
  </outline>
</glyph>
<glyph name="quotesingle" format="2">
  <advance width="197.29000000000002"/>
  <unicode hex="0027"/>
  <outline>
    <contour>
      <point x="45.4" y="427.0" type="line"/>
      <point x="150.89999999999998" y="427.0" type="line"/>
      <point x="158.32" y="700.0" type="line"/>
      <point x="38.97" y="700.0" type="line"/>
    </contour>
  </outline>
</glyph>
<glyph name="parenleft" format="2">
  <advance width="318.91999999999996"/>
  <unicode hex="0028"/>
  <outline>
    <contour>
      <point x="55.099999999999994" y="265.0" type="curve" smooth="yes"/>
      <point x="55.099999999999994" y="2.520000000000003"/>
      <point x="128.52999999999997" y="-193.4"/>
      <point x="300.45" y="-220.26999999999998" type="curve"/>
      <point x="300.45" y="-120.82" type="line"/>
      <point x="204.45" y="-85.32"/>
      <point x="164.08" y="33.39"/>
      <point x="164.08" y="265.0" type="curve" smooth="yes"/>
      <point x="164.08" y="496.60999999999996"/>
      <point x="204.45" y="615.32"/>
      <point x="300.45" y="650.8199999999999" type="curve"/>
      <point x="300.45" y="750.2700000000001" type="line"/>
      <point x="128.52999999999997" y="723.4"/>
      <point x="55.099999999999994" y="527.4799999999999"/>
    </contour>
  </outline>
</glyph>
<glyph name="parenright" format="2">
  <advance width="318.91999999999996"/>
  <unicode hex="0029"/>
  <outline>
    <contour>
      <point x="18.47" y="-120.82" type="curve"/>
      <point x="18.47" y="-220.26999999999998" type="line"/>
      <point x="190.39000000000001" y="-193.4"/>
      <point x="263.82" y="2.520000000000003"/>
      <point x="263.82" y="265.0" type="curve" smooth="yes"/>
      <point x="263.82" y="527.4799999999999"/>
      <point x="190.39000000000001" y="723.4"/>
      <point x="18.47" y="750.2700000000001" type="curve"/>
      <point x="18.47" y="650.8199999999999" type="line"/>
      <point x="114.47" y="615.32"/>
      <point x="154.84" y="496.60999999999996"/>
      <point x="154.84" y="265.0" type="curve" smooth="yes"/>
      <point x="154.84" y="33.39"/>
      <point x="114.47" y="-85.32"/>
    </contour>
  </outline>
</glyph>
<glyph name="asterisk" format="2">
  <advance width="355.21999999999997"/>
  <unicode hex="002A"/>
  <outline>
    <contour>
      <point x="101.76" y="366.71999999999997" type="line"/>
      <point x="177.78999999999996" y="463.58" type="line"/>
      <point x="253.09999999999997" y="366.54" type="line"/>
      <point x="302.16999999999996" y="400.56" type="line"/>
      <point x="238.49" y="508.13" type="line"/>
      <point x="347.82" y="556.45" type="line"/>
      <point x="328.85999999999996" y="612.64" type="line"/>
      <point x="215.46" y="580.73" type="line"/>
      <point x="208.53" y="706.03" type="line"/>
      <point x="147.05" y="706.03" type="line"/>
      <point x="140.12" y="580.73" type="line"/>
      <point x="26.360000000000003" y="612.64" type="line"/>
      <point x="7.4" y="556.45" type="line"/>
      <point x="117.09" y="508.13" type="line"/>
      <point x="52.510000000000005" y="400.92" type="line"/>
    </contour>
  </outline>
</glyph>
<glyph name="plus" format="2">
  <advance width="511.34000000000003"/>
  <unicode hex="002B"/>
  <outline>
    <contour>
      <point x="197.71" y="105.33000000000001" type="line"/>
      <point x="313.41" y="105.33000000000001" type="line"/>
      <point x="313.41" y="255.90000000000003" type="line"/>
      <point x="462.41" y="255.90000000000003" type="line"/>
      <point x="462.41" y="362.8" type="line"/>
      <point x="313.41" y="362.8" type="line"/>
      <point x="313.41" y="513.15" type="line"/>
      <point x="197.71" y="513.15" type="line"/>
      <point x="197.71" y="362.8" type="line"/>
      <point x="48.93" y="362.8" type="line"/>
      <point x="48.93" y="255.90000000000003" type="line"/>
      <point x="197.71" y="255.90000000000003" type="line"/>
    </contour>
  </outline>
</glyph>
<glyph name="comma" format="2">
  <advance width="215.88"/>
  <unicode hex="002C"/>
  <outline>
    <contour>
      <point x="46.089999999999996" y="75.26999999999998" type="line"/>
      <point x="52.2" y="47.900000000000006"/>
      <point x="54.58" y="21.450000000000003"/>
      <point x="54.58" y="3.5900000000000034" type="curve" smooth="yes"/>
      <point x="54.58" y="-55.599999999999994"/>
      <point x="34.629999999999995" y="-121.3"/>
      <point x="-9.059999999999999" y="-169.17000000000002" type="curve"/>
      <point x="89.62" y="-193.49" type="line"/>
      <point x="152.0" y="-135.96"/>
      <point x="179.74" y="-65.55"/>
      <point x="179.74" y="4.060000000000003" type="curve" smooth="yes"/>
      <point x="179.74" y="32.959999999999994"/>
      <point x="174.99" y="57.970000000000006"/>
      <point x="167.71000000000004" y="79.33000000000001" type="curve"/>
    </contour>
  </outline>
</glyph>
<glyph name="hyphen" format="2">
  <advance width="339.09"/>
  <unicode hex="002D"/>
  <outline>
    <contour>
      <point x="37.010000000000005" y="243.45" type="line"/>
      <point x="302.08000000000004" y="243.45" type="line"/>
      <point x="302.08000000000004" y="355.63" type="line"/>
      <point x="37.010000000000005" y="355.63" type="line"/>
    </contour>
  </outline>
</glyph>
<glyph name="period" format="2">
  <advance width="219.4"/>
  <unicode hex="002E"/>
  <outline>
    <contour>
      <point x="36.4" y="66.61" type="curve" smooth="yes"/>
      <point x="36.4" y="17.17"/>
      <point x="56.17" y="-4.73"/>
      <point x="109.79" y="-4.73" type="curve" smooth="yes"/>
      <point x="163.86" y="-4.73"/>
      <point x="183.17999999999998" y="17.17"/>
      <point x="183.17999999999998" y="66.61" type="curve" smooth="yes"/>
      <point x="183.17999999999998" y="116.60000000000001"/>
      <point x="163.86" y="138.5"/>
      <point x="109.79" y="138.5" type="curve" smooth="yes"/>
      <point x="55.720000000000006" y="138.5"/>
      <point x="36.4" y="116.60000000000001"/>
    </contour>
  </outline>
</glyph>
<glyph name="slash" format="2">
  <advance width="401.46000000000004"/>
  <unicode hex="002F"/>
  <outline>
    <contour>
      <point x="1.2400000000000002" y="-210.0" type="line"/>
      <point x="109.00000000000001" y="-210.0" type="line"/>
      <point x="400.22" y="740.0" type="line"/>
      <point x="292.13000000000005" y="740.0" type="line"/>
    </contour>
  </outline>
</glyph>
<glyph name="zero" format="2">
  <advance width="623.22"/>
  <unicode hex="0030"/>
  <outline>
    <contour>
      <point x="27.560000000000002" y="350.0" type="curve" smooth="yes"/>
      <point x="27.560000000000002" y="74.22"/>
      <point x="142.47" y="-10.0"/>
      <point x="311.61" y="-10.0" type="curve" smooth="yes"/>
      <point x="480.12000000000006" y="-10.0"/>
      <point x="595.6600000000001" y="75.54"/>
      <point x="595.6600000000001" y="350.0" type="curve" smooth="yes"/>
      <point x="595.6600000000001" y="625.0600000000001"/>
      <point x="485.07000000000005" y="710.0"/>
      <point x="311.61" y="710.0" type="curve" smooth="yes"/>
      <point x="141.48" y="710.0"/>
      <point x="27.560000000000002" y="627.7"/>
    </contour>
    <contour>
      <point x="164.45000000000002" y="345.71000000000004" type="curve" smooth="yes"/>
      <point x="164.45000000000002" y="560.5300000000001"/>
      <point x="228.13000000000002" y="603.58"/>
      <point x="311.61" y="603.58" type="curve" smooth="yes"/>
      <point x="395.45" y="603.58"/>
      <point x="459.13000000000005" y="560.86"/>
      <point x="459.13000000000005" y="345.71000000000004" type="curve" smooth="yes"/>
      <point x="459.13000000000005" y="141.72"/>
      <point x="396.44000000000005" y="96.42"/>
      <point x="311.61" y="96.42" type="curve" smooth="yes"/>
      <point x="227.14000000000001" y="96.42"/>
      <point x="164.45000000000002" y="141.39"/>
    </contour>
  </outline>
</glyph>
<glyph name="one" format="2">
  <advance width="623.22"/>
  <unicode hex="0031"/>
  <outline>
    <contour>
      <point x="78.34" y="0.0" type="line"/>
      <point x="583.8100000000001" y="0.0" type="line"/>
      <point x="583.8100000000001" y="108.0" type="line"/>
      <point x="414.21000000000004" y="108.0" type="line"/>
      <point x="414.21000000000004" y="701.8" type="line"/>
      <point x="346.0" y="701.8" type="line"/>
      <point x="62.7" y="581.0400000000001" type="line"/>
      <point x="91.91" y="467.87" type="line"/>
      <point x="279.37" y="552.11" type="line"/>
      <point x="279.37" y="108.0" type="line"/>
      <point x="78.34" y="108.0" type="line"/>
    </contour>
  </outline>
</glyph>
<glyph name="two" format="2">
  <advance width="624.34"/>
  <unicode hex="0032"/>
  <outline>
    <contour>
      <point x="55.22" y="91.52000000000001" type="curve"/>
      <point x="57.96" y="0.0" type="line"/>
      <point x="575.96" y="0.0" type="line"/>
      <point x="575.96" y="108.9" type="line"/>
      <point x="245.54000000000002" y="108.9" type="line"/>
      <point x="490.17999999999995" y="326.70000000000005"/>
      <point x="522.8199999999999" y="391.88"/>
      <point x="522.8199999999999" y="495.5799999999999" type="curve" smooth="yes"/>
      <point x="522.8199999999999" y="622.9599999999999"/>
      <point x="436.29999999999995" y="710.0"/>
      <point x="286.82" y="710.0" type="curve" smooth="yes"/>
      <point x="204.46" y="710.0"/>
      <point x="119.47999999999999" y="685.66"/>
      <point x="55.53999999999999" y="644.28" type="curve"/>
      <point x="97.41999999999999" y="531.06" type="line"/>
      <point x="151.58" y="562.4"/>
      <point x="205.92000000000002" y="578.0"/>
      <point x="255.17999999999998" y="578.0" type="curve" smooth="yes"/>
      <point x="333.40000000000003" y="578.0"/>
      <point x="377.74" y="538.28"/>
      <point x="377.74" y="467.38" type="curve" smooth="yes"/>
      <point x="377.74" y="380.62"/>
      <point x="322.72" y="317.04"/>
    </contour>
  </outline>
</glyph>
<glyph name="three" format="2">
  <advance width="624.3"/>
  <unicode hex="0033"/>
  <outline>
    <contour>
      <point x="32.1" y="46.3" type="line"/>
      <point x="105.80000000000001" y="6.7"/>
      <point x="176.6" y="-10.0"/>
      <point x="280.1" y="-10.0" type="curve" smooth="yes"/>
      <point x="459.7" y="-10.0"/>
      <point x="565.8000000000001" y="69.0"/>
      <point x="565.8000000000001" y="205.20000000000002" type="curve" smooth="yes"/>
      <point x="565.8000000000001" y="287.40000000000003"/>
      <point x="518.6" y="347.2"/>
      <point x="431.7" y="370.0" type="curve"/>
      <point x="501.3" y="396.7"/>
      <point x="540.1999999999999" y="453.6"/>
      <point x="540.1999999999999" y="527.8" type="curve" smooth="yes"/>
      <point x="540.1999999999999" y="641.1"/>
      <point x="442.0" y="710.0"/>
      <point x="290.2" y="710.0" type="curve" smooth="yes"/>
      <point x="193.9" y="710.0"/>
      <point x="111.39999999999999" y="691.0"/>
      <point x="53.3" y="657.1" type="curve"/>
      <point x="85.4" y="553.2" type="line"/>
      <point x="146.0" y="581.6000000000001"/>
      <point x="207.5" y="592.4"/>
      <point x="264.8" y="592.4" type="curve" smooth="yes"/>
      <point x="353.59999999999997" y="592.4"/>
      <point x="407.1" y="556.9"/>
      <point x="407.1" y="499.20000000000005" type="curve" smooth="yes"/>
      <point x="407.1" y="443.1"/>
      <point x="365.5" y="407.6"/>
      <point x="281.59999999999997" y="407.6" type="curve" smooth="yes"/>
      <point x="169.9" y="407.6" type="line"/>
      <point x="169.9" y="308.6" type="line"/>
      <point x="271.3" y="308.6" type="line" smooth="yes"/>
      <point x="373.6" y="308.6"/>
      <point x="429.5" y="278.20000000000005"/>
      <point x="429.5" y="214.0" type="curve" smooth="yes"/>
      <point x="429.5" y="141.29999999999998"/>
      <point x="374.70000000000005" y="102.2"/>
      <point x="268.09999999999997" y="102.2" type="curve" smooth="yes"/>
      <point x="190.5" y="102.2"/>
      <point x="125.60000000000001" y="116.7"/>
      <point x="69.3" y="143.7" type="curve"/>
    </contour>
  </outline>
</glyph>
<glyph name="four" format="2">
  <advance width="624.3"/>
  <unicode hex="0034"/>
  <outline>
    <contour>
      <point x="21.499999999999993" y="133.10000000000002" type="line"/>
      <point x="352.19999999999993" y="133.10000000000002" type="line"/>
      <point x="352.19999999999993" y="0.0" type="line"/>
      <point x="492.9000000000001" y="0.0" type="line"/>
      <point x="492.9000000000001" y="133.10000000000002" type="line"/>
      <point x="596.9000000000001" y="133.10000000000002" type="line"/>
      <point x="596.9000000000001" y="238.10000000000002" type="line"/>
      <point x="492.9000000000001" y="238.10000000000002" type="line"/>
      <point x="492.9000000000001" y="700.0" type="line"/>
      <point x="373.7" y="702.7" type="line"/>
      <point x="19.7" y="231.9" type="line"/>
    </contour>
    <contour>
      <point x="139.4" y="238.10000000000002" type="line"/>
      <point x="355.49999999999994" y="523.0" type="line"/>
      <point x="355.49999999999994" y="238.10000000000002" type="line"/>
    </contour>
  </outline>
</glyph>
<glyph name="five" format="2">
  <advance width="624.3"/>
  <unicode hex="0035"/>
  <outline>
    <contour>
      <point x="36.48" y="40.31999999999999" type="line"/>
      <point x="109.08" y="6.5200000000000005"/>
      <point x="177.59999999999997" y="-10.0"/>
      <point x="274.34" y="-10.0" type="curve" smooth="yes"/>
      <point x="449.91999999999996" y="-10.0"/>
      <point x="572.36" y="66.4"/>
      <point x="572.36" y="221.8" type="curve" smooth="yes"/>
      <point x="572.36" y="359.82"/>
      <point x="487.4800000000001" y="419.6000000000001"/>
      <point x="325.84" y="420.02" type="curve" smooth="yes"/>
      <point x="205.40000000000003" y="420.14000000000004" type="line"/>
      <point x="223.3" y="583.4799999999999" type="line"/>
      <point x="534.6400000000001" y="583.4799999999999" type="line"/>
      <point x="534.6400000000001" y="700.0" type="line"/>
      <point x="122.03999999999999" y="700.0" type="line"/>
      <point x="79.1" y="329.36" type="line"/>
      <point x="89.02" y="318.4" type="line"/>
      <point x="266.17999999999995" y="318.4" type="line" smooth="yes"/>
      <point x="395.08" y="318.4"/>
      <point x="435.38" y="285.14"/>
      <point x="435.38" y="217.20000000000002" type="curve" smooth="yes"/>
      <point x="435.38" y="146.82000000000002"/>
      <point x="382.78" y="106.24000000000002"/>
      <point x="264.26" y="106.24000000000002" type="curve" smooth="yes"/>
      <point x="178.61999999999998" y="106.24000000000002"/>
      <point x="124.3" y="122.62000000000002"/>
      <point x="72.03999999999999" y="143.88" type="curve"/>
    </contour>
  </outline>
</glyph>
<glyph name="six" format="2">
  <advance width="624.3000000000001"/>
  <unicode hex="0036"/>
  <outline>
    <contour>
      <point x="316.9" y="-10.0" type="curve" smooth="yes"/>
      <point x="493.8" y="-10.0"/>
      <point x="585.1" y="73.0"/>
      <point x="585.1" y="227.6" type="curve" smooth="yes"/>
      <point x="585.1" y="362.4"/>
      <point x="508.0000000000001" y="440.3"/>
      <point x="365.9" y="440.3" type="curve" smooth="yes"/>
      <point x="280.99999999999994" y="440.3"/>
      <point x="202.5" y="412.1000000000001"/>
      <point x="154.20000000000002" y="365.9" type="curve"/>
      <point x="159.29999999999998" y="267.8" type="line"/>
      <point x="203.20000000000002" y="309.5"/>
      <point x="260.40000000000003" y="339.99999999999994"/>
      <point x="321.0" y="339.99999999999994" type="curve" smooth="yes"/>
      <point x="404.0" y="339.99999999999994"/>
      <point x="454.99999999999994" y="298.2"/>
      <point x="454.99999999999994" y="223.79999999999998" type="curve" smooth="yes"/>
      <point x="454.99999999999994" y="140.50000000000003"/>
      <point x="406.20000000000005" y="97.20000000000002"/>
      <point x="324.40000000000003" y="97.20000000000002" type="curve" smooth="yes"/>
      <point x="230.90000000000003" y="97.20000000000002"/>
      <point x="170.60000000000002" y="154.80000000000004"/>
      <point x="170.60000000000002" y="345.00000000000006" type="curve" smooth="yes"/>
      <point x="170.60000000000002" y="514.7"/>
      <point x="221.30000000000004" y="596.6"/>
      <point x="368.29999999999995" y="596.6" type="curve" smooth="yes"/>
      <point x="426.70000000000005" y="596.6"/>
      <point x="478.90000000000003" y="584.9000000000001"/>
      <point x="538.7" y="566.9999999999999" type="curve"/>
      <point x="570.7000000000002" y="672.6999999999999" type="line"/>
      <point x="513.3000000000001" y="696.6"/>
      <point x="434.0" y="710.0"/>
      <point x="349.5" y="710.0" type="curve" smooth="yes"/>
      <point x="140.29999999999998" y="710.0"/>
      <point x="32.6" y="585.7"/>
      <point x="32.6" y="330.5" type="curve" smooth="yes"/>
      <point x="32.6" y="94.5"/>
      <point x="135.7" y="-10.0"/>
    </contour>
  </outline>
</glyph>
<glyph name="seven" format="2">
  <advance width="624.3"/>
  <unicode hex="0037"/>
  <outline>
    <contour>
      <point x="187.26000000000002" y="0.0" type="curve"/>
      <point x="323.04" y="0.0" type="line"/>
      <point x="325.16" y="123.60000000000001"/>
      <point x="357.08" y="218.49999999999994"/>
      <point x="427.53999999999996" y="346.48" type="curve" smooth="yes"/>
      <point x="574.66" y="611.56" type="line"/>
      <point x="574.66" y="700.0" type="line"/>
      <point x="52.699999999999996" y="700.0" type="line"/>
      <point x="52.699999999999996" y="576.4000000000001" type="line"/>
      <point x="416.52" y="576.4000000000001" type="line"/>
      <point x="299.26" y="376.4600000000001" type="line" smooth="yes"/>
      <point x="217.12" y="236.18"/>
      <point x="187.26000000000002" y="134.28000000000003"/>
    </contour>
  </outline>
</glyph>
<glyph name="eight" format="2">
  <advance width="624.34"/>
  <unicode hex="0038"/>
  <outline>
    <contour>
      <point x="361.84" y="390.20000000000005" type="curve"/>
      <point x="450.80000000000007" y="352.12000000000006" type="line"/>
      <point x="540.7199999999999" y="402.9"/>
      <point x="575.4599999999999" y="465.72"/>
      <point x="575.4599999999999" y="533.88" type="curve" smooth="yes"/>
      <point x="575.4599999999999" y="645.0400000000001"/>
      <point x="483.52000000000004" y="710.0"/>
      <point x="318.16" y="710.0" type="curve" smooth="yes"/>
      <point x="151.34" y="710.0"/>
      <point x="57.28" y="642.34"/>
      <point x="57.28" y="519.9599999999999" type="curve" smooth="yes"/>
      <point x="57.28" y="265.34000000000003"/>
      <point x="459.63999999999993" y="349.19999999999993"/>
      <point x="459.63999999999993" y="182.36" type="curve" smooth="yes"/>
      <point x="459.63999999999993" y="121.80000000000001"/>
      <point x="411.94" y="90.26"/>
      <point x="318.38000000000005" y="90.26" type="curve" smooth="yes"/>
      <point x="214.64000000000001" y="90.26"/>
      <point x="158.82" y="127.38000000000001"/>
      <point x="158.82" y="196.49999999999997" type="curve" smooth="yes"/>
      <point x="158.82" y="258.24"/>
      <point x="186.35999999999999" y="296.43999999999994"/>
      <point x="250.5" y="332.02000000000004" type="curve"/>
      <point x="167.48" y="378.52000000000004" type="line"/>
      <point x="69.48" y="333.71999999999997"/>
      <point x="22.98" y="267.86"/>
      <point x="22.98" y="186.88" type="curve" smooth="yes"/>
      <point x="22.98" y="60.4"/>
      <point x="123.1" y="-10.0"/>
      <point x="307.58" y="-10.0" type="curve" smooth="yes"/>
      <point x="504.34" y="-10.0"/>
      <point x="601.3000000000001" y="58.080000000000005"/>
      <point x="601.3000000000001" y="192.94" type="curve" smooth="yes"/>
      <point x="601.3000000000001" y="448.58"/>
      <point x="186.88000000000002" y="368.86"/>
      <point x="186.88000000000002" y="522.24" type="curve" smooth="yes"/>
      <point x="186.88000000000002" y="575.48"/>
      <point x="228.9" y="605.98"/>
      <point x="312.53999999999996" y="605.98" type="curve" smooth="yes"/>
      <point x="402.4" y="605.98"/>
      <point x="449.40000000000003" y="573.9"/>
      <point x="449.40000000000003" y="514.38" type="curve" smooth="yes"/>
      <point x="449.40000000000003" y="463.34"/>
      <point x="429.32" y="429.3"/>
    </contour>
  </outline>
</glyph>
<glyph name="nine" format="2">
  <advance width="624.3000000000001"/>
  <unicode hex="0039"/>
  <outline>
    <contour>
      <point x="267.29999999999995" y="-10.0" type="curve" smooth="yes"/>
      <point x="476.50000000000006" y="-10.0"/>
      <point x="583.2" y="113.1"/>
      <point x="583.2" y="366.2000000000001" type="curve" smooth="yes"/>
      <point x="583.2" y="603.3999999999999"/>
      <point x="492.1" y="710.0"/>
      <point x="304.5" y="710.0" type="curve" smooth="yes"/>
      <point x="126.69999999999999" y="710.0"/>
      <point x="30.700000000000003" y="626.8"/>
      <point x="30.700000000000003" y="472.20000000000005" type="curve" smooth="yes"/>
      <point x="30.700000000000003" y="335.5"/>
      <point x="109.19999999999999" y="259.70000000000005"/>
      <point x="254.7" y="259.70000000000005" type="curve" smooth="yes"/>
      <point x="333.5" y="259.70000000000005"/>
      <point x="412.09999999999997" y="284.5999999999999"/>
      <point x="461.6" y="330.49999999999994" type="curve"/>
      <point x="461.8999999999999" y="433.09999999999997" type="line"/>
      <point x="415.30000000000007" y="386.4"/>
      <point x="354.9" y="360.1000000000001"/>
      <point x="294.0" y="360.1000000000001" type="curve" smooth="yes"/>
      <point x="213.79999999999998" y="360.1000000000001"/>
      <point x="160.00000000000003" y="400.9"/>
      <point x="160.00000000000003" y="477.1" type="curve" smooth="yes"/>
      <point x="160.00000000000003" y="559.8"/>
      <point x="213.7" y="602.8000000000001"/>
      <point x="296.79999999999995" y="602.8000000000001" type="curve" smooth="yes"/>
      <point x="398.0" y="602.8000000000001"/>
      <point x="445.2999999999999" y="542.6"/>
      <point x="445.2999999999999" y="355.09999999999997" type="curve" smooth="yes"/>
      <point x="445.2999999999999" y="185.39999999999998"/>
      <point x="394.40000000000003" y="103.1"/>
      <point x="248.3" y="103.1" type="curve" smooth="yes"/>
      <point x="189.00000000000003" y="103.1"/>
      <point x="136.8" y="114.8"/>
      <point x="77.10000000000001" y="132.7" type="curve"/>
      <point x="45.1" y="29.1" type="line"/>
      <point x="102.5" y="5.2"/>
      <point x="182.79999999999998" y="-10.0"/>
    </contour>
  </outline>
</glyph>
<glyph name="less" format="2">
  <advance width="511.34000000000003"/>
  <unicode hex="003C"/>
  <outline>
    <contour>
      <point x="469.07" y="76.71000000000001" type="line"/>
      <point x="469.07" y="180.87" type="line"/>
      <point x="159.87" y="303.24000000000007" type="line"/>
      <point x="469.07" y="426.35" type="line"/>
      <point x="469.07" y="529.9" type="line"/>
      <point x="42.27" y="356.03000000000003" type="line"/>
      <point x="42.27" y="249.79" type="line"/>
    </contour>
  </outline>
</glyph>
<glyph name="equal" format="2">
  <advance width="504.74"/>
  <unicode hex="003D"/>
  <outline>
    <contour>
      <point x="455.81" y="246.28" type="line"/>
      <point x="48.93" y="246.28" type="line"/>
      <point x="48.93" y="139.38" type="line"/>
      <point x="455.81" y="139.38" type="line"/>
    </contour>
    <contour>
      <point x="455.81" y="468.46" type="line"/>
      <point x="48.93" y="468.46" type="line"/>
      <point x="48.93" y="361.56" type="line"/>
      <point x="455.81" y="361.56" type="line"/>
    </contour>
  </outline>
</glyph>
<glyph name="greater" format="2">
  <advance width="511.34000000000003"/>
  <unicode hex="003E"/>
  <outline>
    <contour>
      <point x="469.07" y="249.51999999999998" type="line"/>
      <point x="469.07" y="355.76000000000005" type="line"/>
      <point x="42.27" y="529.9" type="line"/>
      <point x="42.27" y="425.63" type="line"/>
      <point x="351.47" y="302.96999999999997" type="line"/>
      <point x="42.27" y="180.32999999999998" type="line"/>
      <point x="42.27" y="76.71000000000001" type="line"/>
    </contour>
  </outline>
</glyph>
<glyph name="question" format="2">
  <advance width="468.76000000000005"/>
  <unicode hex="003F"/>
  <outline>
    <contour>
      <point x="159.70999999999998" y="260.71000000000004" type="line"/>
      <point x="274.42" y="260.71000000000004" type="line"/>
      <point x="274.86" y="327.42" type="line"/>
      <point x="398.47" y="378.63"/>
      <point x="449.89000000000004" y="443.65"/>
      <point x="449.89000000000004" y="548.8499999999999" type="curve" smooth="yes"/>
      <point x="449.89000000000004" y="689.55"/>
      <point x="346.52000000000004" y="749.6700000000001"/>
      <point x="225.04999999999998" y="749.6700000000001" type="curve" smooth="yes"/>
      <point x="151.60999999999999" y="749.6700000000001"/>
      <point x="67.2" y="724.9399999999999"/>
      <point x="11.14" y="685.32" type="curve"/>
      <point x="51.71" y="580.89" type="line"/>
      <point x="104.58999999999999" y="614.48"/>
      <point x="156.9" y="628.96"/>
      <point x="204.26" y="628.96" type="curve" smooth="yes"/>
      <point x="263.96000000000004" y="628.96"/>
      <point x="311.92" y="597.69"/>
      <point x="311.92" y="533.99" type="curve" smooth="yes"/>
      <point x="311.92" y="478.69"/>
      <point x="284.96000000000004" y="434.79"/>
      <point x="156.85" y="387.51" type="curve"/>
    </contour>
    <contour>
      <point x="144.5" y="65.62" type="curve" smooth="yes"/>
      <point x="144.5" y="16.180000000000003"/>
      <point x="164.48" y="-5.72"/>
      <point x="218.16000000000003" y="-5.72" type="curve" smooth="yes"/>
      <point x="271.63" y="-5.72"/>
      <point x="291.55" y="16.180000000000003"/>
      <point x="291.55" y="65.62" type="curve" smooth="yes"/>
      <point x="291.55" y="115.61"/>
      <point x="271.63" y="137.51000000000002"/>
      <point x="218.16000000000003" y="137.51000000000002" type="curve" smooth="yes"/>
      <point x="163.76" y="137.51000000000002"/>
      <point x="144.5" y="115.61"/>
    </contour>
  </outline>
</glyph>
<glyph name="at" format="2">
  <advance width="829.4"/>
  <unicode hex="0040"/>
  <outline>
    <contour>
      <point x="402.1" y="-124.06" type="curve" smooth="yes"/>
      <point x="474.5600000000001" y="-124.06"/>
      <point x="554.2" y="-104.28000000000002"/>
      <point x="606.9000000000001" y="-78.66000000000003" type="curve"/>
      <point x="587.22" y="-19.020000000000003" type="line"/>
      <point x="536.94" y="-41.57999999999999"/>
      <point x="473.14000000000004" y="-57.359999999999985"/>
      <point x="408.28" y="-57.359999999999985" type="curve" smooth="yes"/>
      <point x="234.86" y="-57.359999999999985"/>
      <point x="111.52" y="24.480000000000004"/>
      <point x="111.52" y="265.58" type="curve" smooth="yes"/>
      <point x="111.52" y="483.54"/>
      <point x="217.16" y="646.4599999999999"/>
      <point x="425.04" y="646.4599999999999" type="curve" smooth="yes"/>
      <point x="632.74" y="646.4599999999999"/>
      <point x="722.7800000000001" y="535.06"/>
      <point x="722.7800000000001" y="336.92" type="curve" smooth="yes"/>
      <point x="722.7800000000001" y="212.68"/>
      <point x="688.06" y="130.9"/>
      <point x="644.46" y="131.10000000000002" type="curve" smooth="yes"/>
      <point x="612.7399999999999" y="131.10000000000002"/>
      <point x="589.8199999999999" y="154.84"/>
      <point x="595.92" y="245.26" type="curve" smooth="yes"/>
      <point x="614.5800000000002" y="507.13999999999993" type="line"/>
      <point x="558.0400000000001" y="528.2399999999999"/>
      <point x="496.82" y="540.66"/>
      <point x="439.11999999999995" y="540.66" type="curve" smooth="yes"/>
      <point x="285.71999999999997" y="540.66"/>
      <point x="208.64" y="417.80000000000007"/>
      <point x="208.64" y="261.7" type="curve" smooth="yes"/>
      <point x="208.64" y="118.72"/>
      <point x="265.58" y="57.419999999999995"/>
      <point x="349.14000000000004" y="57.419999999999995" type="curve" smooth="yes"/>
      <point x="419.58" y="57.419999999999995"/>
      <point x="467.3400000000001" y="103.62"/>
      <point x="499.18000000000006" y="177.29999999999998" type="curve"/>
      <point x="511.12000000000006" y="95.39999999999999"/>
      <point x="545.4399999999999" y="50.879999999999995"/>
      <point x="622.66" y="50.879999999999995" type="curve" smooth="yes"/>
      <point x="738.8999999999999" y="50.47999999999999"/>
      <point x="795.26" y="182.27999999999997"/>
      <point x="795.26" y="342.90000000000003" type="curve" smooth="yes"/>
      <point x="795.26" y="582.4"/>
      <point x="662.78" y="710.0"/>
      <point x="435.76" y="710.0" type="curve" smooth="yes"/>
      <point x="173.00000000000003" y="710.0"/>
      <point x="35.16" y="523.3000000000001"/>
      <point x="35.16" y="269.40000000000003" type="curve" smooth="yes"/>
      <point x="35.16" y="-12.62"/>
      <point x="183.01999999999998" y="-124.06"/>
    </contour>
    <contour>
      <point x="393.29999999999995" y="162.16" type="curve" smooth="yes"/>
      <point x="360.7" y="162.16"/>
      <point x="335.06" y="191.4"/>
      <point x="335.06" y="266.23999999999995" type="curve" smooth="yes"/>
      <point x="335.06" y="361.58"/>
      <point x="372.58000000000004" y="454.47999999999996"/>
      <point x="433.24000000000007" y="454.47999999999996" type="curve" smooth="yes"/>
      <point x="453.04" y="454.47999999999996"/>
      <point x="473.68000000000006" y="450.59999999999997"/>
      <point x="495.26" y="442.98" type="curve"/>
      <point x="483.8200000000001" y="311.94" type="line" smooth="yes"/>
      <point x="464.53999999999996" y="190.11999999999998"/>
      <point x="433.50000000000006" y="162.16"/>
    </contour>
  </outline>
</glyph>
<glyph name="A" format="2">
  <advance width="640.41"/>
  <unicode hex="0041"/>
  <anchor x="631.63" y="0.0" name="ogonek"/>
  <anchor x="316.68" y="0.0" name="bottom"/>
  <anchor x="320.6" y="700.0" name="top"/>
  <outline>
    <contour>
      <point x="9.14" y="0.0" type="line"/>
      <point x="152.3" y="0.0" type="line"/>
      <point x="198.38" y="149.5" type="line"/>
      <point x="434.90000000000003" y="149.5" type="line"/>
      <point x="481.73" y="0.0" type="line"/>
      <point x="631.63" y="0.0" type="line"/>
      <point x="401.07000000000005" y="704.5" type="line"/>
      <point x="238.23000000000002" y="704.5" type="line"/>
    </contour>
    <contour>
      <point x="226.46" y="266.33" type="line"/>
      <point x="317.12000000000006" y="592.46" type="line"/>
      <point x="406.82" y="266.33" type="line"/>
    </contour>
  </outline>
</glyph>
<glyph name="B" format="2">
  <advance width="645.5600000000001"/>
  <unicode hex="0042"/>
  <anchor x="318.64000000000004" y="700.0" name="top"/>
  <anchor x="318.64000000000004" y="0.0" name="bottom"/>
  <outline>
    <contour>
      <point x="61.01999999999999" y="2.3000000000000007" type="line"/>
      <point x="202.26" y="-8.0"/>
      <point x="226.94" y="-10.0"/>
      <point x="324.4200000000001" y="-10.0" type="curve" smooth="yes"/>
      <point x="540.18" y="-10.0"/>
      <point x="616.8199999999999" y="50.0"/>
      <point x="616.8199999999999" y="200.23999999999998" type="curve" smooth="yes"/>
      <point x="616.8199999999999" y="290.66"/>
      <point x="564.9599999999999" y="355.76"/>
      <point x="477.17999999999995" y="378.37999999999994" type="curve"/>
      <point x="477.17999999999995" y="380.38" type="line"/>
      <point x="545.2999999999998" y="407.04"/>
      <point x="580.5400000000001" y="463.0"/>
      <point x="580.5400000000001" y="539.26" type="curve" smooth="yes"/>
      <point x="580.5400000000001" y="659.9799999999999"/>
      <point x="508.46" y="710.0"/>
      <point x="320.82000000000005" y="710.0" type="curve" smooth="yes"/>
      <point x="252.7" y="710.0"/>
      <point x="173.4" y="705.9000000000001"/>
      <point x="61.01999999999999" y="696.8" type="curve"/>
    </contour>
    <contour>
      <point x="199.58" y="404.63999999999993" type="line"/>
      <point x="199.58" y="593.24" type="line"/>
      <point x="260.26" y="598.0400000000001"/>
      <point x="269.94" y="599.0400000000001"/>
      <point x="314.97999999999996" y="599.0400000000001" type="curve" smooth="yes"/>
      <point x="414.78" y="599.0400000000001"/>
      <point x="450.68" y="569.62"/>
      <point x="450.68" y="501.14" type="curve" smooth="yes"/>
      <point x="450.68" y="443.78000000000003"/>
      <point x="413.9" y="404.63999999999993"/>
      <point x="356.64000000000004" y="404.63999999999993" type="curve" smooth="yes"/>
    </contour>
    <contour>
      <point x="199.58" y="106.64000000000001" type="curve"/>
      <point x="199.58" y="302.6599999999999" type="line"/>
      <point x="357.12" y="302.6599999999999" type="line" smooth="yes"/>
      <point x="437.38" y="302.6599999999999"/>
      <point x="474.9800000000001" y="268.96000000000004"/>
      <point x="474.9800000000001" y="205.84000000000003" type="curve" smooth="yes"/>
      <point x="474.9800000000001" y="130.12"/>
      <point x="437.08000000000004" y="100.9"/>
      <point x="317.17999999999995" y="100.9" type="curve" smooth="yes"/>
      <point x="286.88000000000005" y="100.9"/>
      <point x="256.14" y="102.84"/>
    </contour>
  </outline>
</glyph>
<glyph name="C" format="2">
  <advance width="612.42"/>
  <unicode hex="0043"/>
  <anchor x="344.39" y="700.0" name="top"/>
  <anchor x="342.69000000000005" y="0.0" name="bottom"/>
  <outline>
    <contour>
      <point x="35.01" y="338.81999999999994" type="curve" smooth="yes"/>
      <point x="35.01" y="82.66"/>
      <point x="143.45000000000002" y="-10.0"/>
      <point x="350.3" y="-10.0" type="curve" smooth="yes"/>
      <point x="449.72" y="-10.0"/>
      <point x="521.96" y="2.430000000000001"/>
      <point x="585.2" y="22.740000000000002" type="curve"/>
      <point x="560.82" y="130.8" type="line"/>
      <point x="504.38000000000005" y="115.6"/>
      <point x="433.12" y="105.71000000000001"/>
      <point x="372.46000000000004" y="105.71000000000001" type="curve" smooth="yes"/>
      <point x="237.91" y="105.71000000000001"/>
      <point x="174.8" y="165.8"/>
      <point x="174.8" y="339.59" type="curve" smooth="yes"/>
      <point x="174.8" y="528.58"/>
      <point x="239.23" y="593.25"/>
      <point x="377.65" y="593.25" type="curve" smooth="yes"/>
      <point x="433.62000000000006" y="593.25"/>
      <point x="484.41" y="586.66"/>
      <point x="544.46" y="572.27" type="curve"/>
      <point x="571.8100000000001" y="681.6" type="line"/>
      <point x="508.58000000000004" y="701.43"/>
      <point x="451.63000000000005" y="710.0"/>
      <point x="365.17" y="710.0" type="curve" smooth="yes"/>
      <point x="146.57" y="710.0"/>
      <point x="35.01" y="603.09"/>
    </contour>
  </outline>
</glyph>
<glyph name="D" format="2">
  <advance width="680.06"/>
  <unicode hex="0044"/>
  <anchor x="333.4800000000001" y="700.0" name="top"/>
  <outline>
    <contour>
      <point x="317.1" y="-10.0" type="curve" smooth="yes"/>
      <point x="536.18" y="-10.0"/>
      <point x="644.78" y="100.17999999999999"/>
      <point x="644.78" y="349.1" type="curve" smooth="yes"/>
      <point x="644.78" y="601.9799999999999"/>
      <point x="547.44" y="710.0"/>
      <point x="308.90000000000003" y="710.0" type="curve" smooth="yes"/>
      <point x="223.44000000000003" y="710.0"/>
      <point x="150.48" y="707.0000000000001"/>
      <point x="61.01999999999999" y="699.8800000000001" type="curve"/>
      <point x="61.01999999999999" y="-1.7999999999999998" type="line"/>
      <point x="140.86" y="-5.98"/>
      <point x="223.5" y="-10.0"/>
    </contour>
    <contour>
      <point x="324.74000000000007" y="99.00000000000001" type="curve" smooth="yes"/>
      <point x="285.44000000000005" y="99.00000000000001"/>
      <point x="237.84000000000003" y="100.98000000000002"/>
      <point x="199.51999999999998" y="103.82" type="curve"/>
      <point x="199.51999999999998" y="596.0799999999999" type="line"/>
      <point x="234.79999999999998" y="598.12"/>
      <point x="282.70000000000005" y="600.02"/>
      <point x="319.8" y="600.02" type="curve" smooth="yes"/>
      <point x="445.76" y="600.02"/>
      <point x="502.06" y="535.6999999999999"/>
      <point x="502.06" y="348.08" type="curve" smooth="yes"/>
      <point x="502.06" y="168.68"/>
      <point x="442.0" y="99.00000000000001"/>
    </contour>
  </outline>
</glyph>
<glyph name="E" format="2">
  <advance width="585.1199999999999"/>
  <unicode hex="0045"/>
  <anchor x="558.3799999999999" y="0.0" name="ogonek"/>
  <anchor x="309.66" y="0.0" name="bottom"/>
  <anchor x="309.32" y="700.0" name="top"/>
  <outline>
    <contour>
      <point x="61.01999999999999" y="0.0" type="line"/>
      <point x="559.2799999999999" y="0.0" type="line"/>
      <point x="559.2799999999999" y="119.68" type="line"/>
      <point x="200.07999999999998" y="119.68" type="line"/>
      <point x="200.07999999999998" y="300.78000000000003" type="line"/>
      <point x="517.0" y="300.78000000000003" type="line"/>
      <point x="517.0" y="417.96" type="line"/>
      <point x="200.07999999999998" y="417.96" type="line"/>
      <point x="200.07999999999998" y="580.02" type="line"/>
      <point x="541.26" y="580.02" type="line"/>
      <point x="541.26" y="700.0" type="line"/>
      <point x="61.01999999999999" y="700.0" type="line"/>
    </contour>
  </outline>
</glyph>
<glyph name="F" format="2">
  <advance width="555.12"/>
  <unicode hex="0046"/>
  <outline>
    <contour>
      <point x="61.01999999999999" y="0.0" type="line"/>
      <point x="200.54000000000002" y="0.0" type="line"/>
      <point x="200.54000000000002" y="254.42" type="line"/>
      <point x="493.36" y="254.42" type="line"/>
      <point x="493.36" y="372.80000000000007" type="line"/>
      <point x="199.51999999999998" y="372.80000000000007" type="line"/>
      <point x="199.51999999999998" y="577.62" type="line"/>
      <point x="538.0999999999999" y="577.62" type="line"/>
      <point x="538.0999999999999" y="700.0" type="line"/>
      <point x="61.01999999999999" y="700.0" type="line"/>
    </contour>
  </outline>
</glyph>
<glyph name="G" format="2">
  <advance width="650.19"/>
  <unicode hex="0047"/>
  <anchor x="342.0" y="700.0" name="top"/>
  <anchor x="340.90000000000003" y="0.0" name="bottom"/>
  <outline>
    <contour>
      <point x="35.01" y="339.47999999999996" type="curve" smooth="yes"/>
      <point x="35.01" y="102.33"/>
      <point x="134.32" y="-10.0"/>
      <point x="336.41999999999996" y="-10.0" type="curve" smooth="yes"/>
      <point x="441.48" y="-10.0"/>
      <point x="532.1700000000001" y="5.91"/>
      <point x="602.87" y="38.5" type="curve"/>
      <point x="602.87" y="379.76" type="line"/>
      <point x="341.6" y="379.76" type="line"/>
      <point x="341.6" y="272.8" type="line"/>
      <point x="479.14000000000004" y="272.8" type="line"/>
      <point x="479.14000000000004" y="115.31" type="line"/>
      <point x="446.02000000000004" y="104.41000000000001"/>
      <point x="402.96" y="98.89000000000001"/>
      <point x="352.4200000000001" y="98.89000000000001" type="curve" smooth="yes"/>
      <point x="234.31" y="98.89000000000001"/>
      <point x="174.14000000000001" y="168.67999999999998"/>
      <point x="174.14000000000001" y="337.28" type="curve" smooth="yes"/>
      <point x="174.14000000000001" y="514.21"/>
      <point x="237.8" y="593.91"/>
      <point x="371.05" y="593.91" type="curve" smooth="yes"/>
      <point x="427.39" y="593.91"/>
      <point x="491.1400000000001" y="585.36"/>
      <point x="552.74" y="569.6" type="curve"/>
      <point x="578.1100000000001" y="679.23" type="line"/>
      <point x="513.2700000000001" y="699.5"/>
      <point x="442.76" y="710.0"/>
      <point x="360.22" y="710.0" type="curve" smooth="yes"/>
      <point x="142.6" y="710.0"/>
      <point x="35.01" y="589.6800000000001"/>
    </contour>
  </outline>
</glyph>
<glyph name="H" format="2">
  <advance width="694.3900000000001"/>
  <unicode hex="0048"/>
  <anchor x="347.45" y="700.0" name="top"/>
  <outline>
    <contour>
      <point x="60.92999999999999" y="0.0" type="line"/>
      <point x="198.07999999999998" y="0.0" type="line"/>
      <point x="198.07999999999998" y="252.43" type="line"/>
      <point x="496.31" y="252.43" type="line"/>
      <point x="496.31" y="0.0" type="line"/>
      <point x="633.46" y="0.0" type="line"/>
      <point x="633.46" y="700.0" type="line"/>
      <point x="496.31" y="700.0" type="line"/>
      <point x="496.31" y="375.01" type="line"/>
      <point x="198.07999999999998" y="375.01" type="line"/>
      <point x="198.07999999999998" y="700.0" type="line"/>
      <point x="60.92999999999999" y="700.0" type="line"/>
    </contour>
  </outline>
</glyph>
<glyph name="I" format="2">
  <advance width="259.01000000000005"/>
  <unicode hex="0049"/>
  <anchor x="198.07999999999998" y="0.0" name="ogonek"/>
  <anchor x="129.67" y="0.0" name="bottom"/>
  <anchor x="129.67" y="700.0" name="top"/>
  <outline>
    <contour>
      <point x="60.92999999999999" y="0.0" type="line"/>
      <point x="198.07999999999998" y="0.0" type="line"/>
      <point x="198.07999999999998" y="700.0" type="line"/>
      <point x="60.92999999999999" y="700.0" type="line"/>
    </contour>
  </outline>
</glyph>
<glyph name="J" format="2">
  <advance width="497.79"/>
  <unicode hex="004A"/>
  <anchor x="252.23" y="700.0" name="top"/>
  <outline>
    <contour>
      <point x="9.21" y="23.33" type="line"/>
      <point x="76.88000000000001" y="1.9200000000000008"/>
      <point x="152.3" y="-10.18"/>
      <point x="221.23000000000002" y="-10.18" type="curve" smooth="yes"/>
      <point x="377.12" y="-10.18"/>
      <point x="445.81000000000006" y="64.67"/>
      <point x="445.81000000000006" y="212.12999999999997" type="curve" smooth="yes"/>
      <point x="445.81000000000006" y="700.0" type="line"/>
      <point x="56.57" y="700.0" type="line"/>
      <point x="56.57" y="579.95" type="line"/>
      <point x="308.66" y="579.95" type="line"/>
      <point x="308.66" y="242.66999999999996" type="line" smooth="yes"/>
      <point x="308.66" y="140.38000000000002"/>
      <point x="266.98999999999995" y="105.91000000000001"/>
      <point x="182.84" y="105.91000000000001" type="curve" smooth="yes"/>
      <point x="143.27" y="105.91000000000001"/>
      <point x="89.51" y="114.77000000000001"/>
      <point x="35.07000000000001" y="129.25" type="curve"/>
    </contour>
  </outline>
</glyph>
<glyph name="K" format="2">
  <advance width="660.5000000000001"/>
  <unicode hex="004B"/>
  <anchor x="329.3" y="700.0" name="top"/>
  <anchor x="331.20000000000005" y="0.0" name="bottom"/>
  <outline>
    <contour>
      <point x="617.0999999999999" y="-10.0" type="curve" smooth="yes"/>
      <point x="624.3000000000001" y="-10.0"/>
      <point x="631.5999999999999" y="-10.0"/>
      <point x="640.8" y="-8.0" type="curve"/>
      <point x="640.8" y="131.0" type="line"/>
      <point x="635.8" y="131.00000000000003"/>
      <point x="629.9000000000001" y="131.00000000000003"/>
      <point x="625.9" y="131.00000000000003" type="curve" smooth="yes"/>
      <point x="584.8000000000001" y="131.10000000000002"/>
      <point x="547.3000000000001" y="148.4"/>
      <point x="463.6" y="220.9" type="curve" smooth="yes"/>
      <point x="195.7" y="453.5" type="line"/>
      <point x="195.7" y="700.0" type="line"/>
      <point x="62.900000000000006" y="700.0" type="line"/>
      <point x="62.900000000000006" y="0.0" type="line"/>
      <point x="195.7" y="0.0" type="line"/>
      <point x="195.7" y="283.9" type="line"/>
      <point x="427.90000000000003" y="78.89999999999999" type="line" smooth="yes"/>
      <point x="499.9" y="14.8"/>
      <point x="555.8000000000001" y="-10.0"/>
    </contour>
    <contour>
      <point x="318.09999999999997" y="293.90000000000003" type="line"/>
      <point x="444.6" y="377.9"/>
      <point x="571.1" y="497.8"/>
      <point x="632.7" y="657.4000000000001" type="curve"/>
      <point x="529.0" y="705.6" type="line"/>
      <point x="460.8" y="553.0"/>
      <point x="327.2" y="436.70000000000005"/>
      <point x="234.29999999999998" y="373.6" type="curve"/>
    </contour>
  </outline>
</glyph>
<glyph name="L" format="2">
  <advance width="538.95"/>
  <unicode hex="004C"/>
  <anchor x="269.73" y="350.0" name="center"/>
  <anchor x="129.67" y="700.0" name="top"/>
  <anchor x="336.25000000000006" y="700.0" name="topright"/>
  <anchor x="289.98" y="0.0" name="bottom"/>
  <outline>
    <contour>
      <point x="60.92999999999999" y="0.0" type="line"/>
      <point x="521.6500000000001" y="0.0" type="line"/>
      <point x="521.6500000000001" y="120.27000000000001" type="line"/>
      <point x="198.41" y="120.27000000000001" type="line"/>
      <point x="198.41" y="700.0" type="line"/>
      <point x="60.92999999999999" y="700.0" type="line"/>
    </contour>
  </outline>
</glyph>
<glyph name="M" format="2">
  <advance width="781.99"/>
  <unicode hex="004D"/>
  <outline>
    <contour>
      <point x="61.33" y="0.0" type="line"/>
      <point x="187.04000000000002" y="0.0" type="line"/>
      <point x="187.04000000000002" y="504.28" type="line"/>
      <point x="356.61" y="190.04999999999998" type="line"/>
      <point x="422.07000000000005" y="190.04999999999998" type="line"/>
      <point x="594.9499999999999" y="508.47" type="line"/>
      <point x="594.9499999999999" y="0.0" type="line"/>
      <point x="720.66" y="0.0" type="line"/>
      <point x="720.66" y="700.0" type="line"/>
      <point x="584.5" y="700.0" type="line"/>
      <point x="393.64" y="347.93" type="line"/>
      <point x="203.54000000000002" y="700.0" type="line"/>
      <point x="61.33" y="700.0" type="line"/>
    </contour>
  </outline>
</glyph>
<glyph name="N" format="2">
  <advance width="679.9000000000001"/>
  <unicode hex="004E"/>
  <anchor x="340.0" y="700.0" name="top"/>
  <anchor x="340.0" y="0.0" name="bottom"/>
  <outline>
    <contour>
      <point x="61.0" y="0.0" type="line"/>
      <point x="184.20000000000002" y="0.0" type="line"/>
      <point x="184.20000000000002" y="479.49999999999994" type="line"/>
      <point x="488.9" y="-1.7999999999999998" type="line"/>
      <point x="618.9000000000001" y="-1.7999999999999998" type="line"/>
      <point x="618.9000000000001" y="700.0" type="line"/>
      <point x="495.79999999999995" y="700.0" type="line"/>
      <point x="495.79999999999995" y="212.8" type="line"/>
      <point x="191.10000000000002" y="701.8" type="line"/>
      <point x="61.0" y="701.8" type="line"/>
    </contour>
  </outline>
</glyph>
<glyph name="O" format="2">
  <advance width="698.75"/>
  <unicode hex="004F"/>
  <anchor x="426.5" y="3.3000000000000003" name="ogonek"/>
  <anchor x="348.8" y="700.0" name="top"/>
  <anchor x="533.0500000000001" y="686.9" name="topright"/>
  <anchor x="349.25" y="0.0" name="bottom"/>
  <outline>
    <contour>
      <point x="348.8" y="99.10000000000001" type="curve" smooth="yes"/>
      <point x="251.45" y="99.10000000000001"/>
      <point x="175.65" y="150.6"/>
      <point x="175.65" y="349.55" type="curve" smooth="yes"/>
      <point x="175.65" y="551.45"/>
      <point x="250.45000000000002" y="601.8"/>
      <point x="348.8" y="601.8" type="curve" smooth="yes"/>
      <point x="449.25" y="601.8"/>
      <point x="522.75" y="550.8"/>
      <point x="522.75" y="350.09999999999997" type="curve" smooth="yes"/>
      <point x="522.75" y="151.20000000000002"/>
      <point x="449.15" y="99.10000000000001"/>
    </contour>
    <contour>
      <point x="349.25" y="-10.0" type="curve" smooth="yes"/>
      <point x="540.05" y="-10.0"/>
      <point x="663.0" y="75.80000000000001"/>
      <point x="663.0" y="352.55" type="curve" smooth="yes"/>
      <point x="663.0" y="623.1"/>
      <point x="542.65" y="710.0"/>
      <point x="348.8" y="710.0" type="curve" smooth="yes"/>
      <point x="154.95000000000002" y="710.0"/>
      <point x="35.75" y="622.0999999999999"/>
      <point x="35.75" y="350.0" type="curve" smooth="yes"/>
      <point x="35.75" y="78.4"/>
      <point x="159.79999999999998" y="-10.0"/>
    </contour>
  </outline>
</glyph>
<glyph name="P" format="2">
  <advance width="646.5"/>
  <unicode hex="0050"/>
  <outline>
    <contour>
      <point x="60.92999999999999" y="0.0" type="line"/>
      <point x="198.41" y="0.0" type="line"/>
      <point x="198.41" y="213.2" type="line"/>
      <point x="274.93" y="210.01"/>
      <point x="281.08" y="209.82999999999998"/>
      <point x="352.3" y="209.82999999999998" type="curve" smooth="yes"/>
      <point x="548.6400000000001" y="209.82999999999998"/>
      <point x="621.0300000000001" y="283.82000000000005"/>
      <point x="621.0300000000001" y="466.08" type="curve" smooth="yes"/>
      <point x="621.0300000000001" y="641.2900000000001"/>
      <point x="558.21" y="710.0"/>
      <point x="315.83000000000004" y="710.0" type="curve" smooth="yes"/>
      <point x="277.07" y="710.0"/>
      <point x="196.03" y="708.1099999999999"/>
      <point x="60.92999999999999" y="701.74" type="curve"/>
    </contour>
    <contour>
      <point x="198.74" y="596.2499999999999" type="line"/>
      <point x="268.41" y="600.3699999999999"/>
      <point x="292.08" y="601.0"/>
      <point x="326.0" y="601.0" type="curve" smooth="yes"/>
      <point x="451.17" y="601.0"/>
      <point x="482.01" y="561.76"/>
      <point x="482.01" y="469.01000000000005" type="curve" smooth="yes"/>
      <point x="482.01" y="359.17"/>
      <point x="450.22999999999996" y="319.03999999999996"/>
      <point x="310.65999999999997" y="319.03999999999996" type="curve" smooth="yes"/>
      <point x="270.27" y="319.03999999999996"/>
      <point x="246.95000000000002" y="319.8"/>
      <point x="198.74" y="322.15" type="curve"/>
    </contour>
  </outline>
</glyph>
<glyph name="Q" format="2">
  <advance width="699.08"/>
  <unicode hex="0051"/>
  <outline>
    <contour>
      <point x="452.91999999999996" y="29.94" type="curve"/>
      <point x="336.9" y="5.72" type="line"/>
      <point x="375.86" y="-129.7"/>
      <point x="428.64" y="-193.16"/>
      <point x="522.0" y="-193.16" type="curve" smooth="yes"/>
      <point x="551.94" y="-193.16"/>
      <point x="585.36" y="-187.16"/>
      <point x="618.14" y="-174.58" type="curve"/>
      <point x="601.9000000000001" y="-62.419999999999995" type="line"/>
      <point x="583.02" y="-70.91999999999999"/>
      <point x="563.6" y="-75.05999999999999"/>
      <point x="546.0" y="-75.05999999999999" type="curve" smooth="yes"/>
      <point x="503.22" y="-75.05999999999999"/>
      <point x="476.8" y="-42.26"/>
    </contour>
    <component base="O"/>
  </outline>
</glyph>
<glyph name="R" format="2">
  <advance width="686.1"/>
  <unicode hex="0052"/>
  <anchor x="332.3" y="700.0" name="top"/>
  <anchor x="339.4" y="0.0" name="bottom"/>
  <outline>
    <contour>
      <point x="636.7" y="-10.0" type="curve" smooth="yes"/>
      <point x="652.1" y="-10.0"/>
      <point x="662.7" y="-8.1"/>
      <point x="671.1000000000001" y="-7.0" type="curve"/>
      <point x="670.4000000000001" y="123.0" type="line"/>
      <point x="666.3" y="123.00000000000001"/>
      <point x="658.4000000000001" y="122.1"/>
      <point x="655.3000000000001" y="122.1" type="curve" smooth="yes"/>
      <point x="606.0" y="122.1"/>
      <point x="545.4000000000001" y="178.9"/>
      <point x="462.1" y="281.4" type="curve"/>
      <point x="560.4" y="312.4"/>
      <point x="617.6" y="375.70000000000005"/>
      <point x="617.6" y="496.9" type="curve" smooth="yes"/>
      <point x="617.6" y="650.5"/>
      <point x="531.1" y="709.9"/>
      <point x="316.5" y="709.9" type="curve" smooth="yes"/>
      <point x="241.7" y="709.9"/>
      <point x="165.99999999999997" y="706.8000000000001"/>
      <point x="62.900000000000006" y="700.7" type="curve"/>
      <point x="62.900000000000006" y="0.0" type="line"/>
      <point x="195.5" y="0.0" type="line"/>
      <point x="195.5" y="247.5" type="line"/>
      <point x="226.5" y="246.5"/>
      <point x="261.2" y="246.4"/>
      <point x="289.50000000000006" y="246.4" type="curve" smooth="yes"/>
      <point x="299.5" y="246.4"/>
      <point x="323.8" y="246.39999999999998"/>
      <point x="333.9" y="247.19999999999996" type="curve"/>
      <point x="453.70000000000005" y="66.2"/>
      <point x="542.1" y="-10.0"/>
    </contour>
    <contour>
      <point x="312.8" y="354.29999999999995" type="curve" smooth="yes"/>
      <point x="274.6" y="354.29999999999995"/>
      <point x="241.3" y="355.40000000000003"/>
      <point x="195.5" y="357.40000000000003" type="curve"/>
      <point x="195.5" y="597.2" type="line"/>
      <point x="250.5" y="601.2"/>
      <point x="271.0" y="601.3"/>
      <point x="318.59999999999997" y="601.3" type="curve" smooth="yes"/>
      <point x="442.9" y="601.3"/>
      <point x="481.2" y="568.3999999999999"/>
      <point x="481.2" y="478.79999999999995" type="curve" smooth="yes"/>
      <point x="481.2" y="385.59999999999997"/>
      <point x="427.20000000000005" y="354.29999999999995"/>
    </contour>
  </outline>
</glyph>
<glyph name="S" format="2">
  <advance width="602.4"/>
  <unicode hex="0053"/>
  <anchor x="306.1" y="700.0" name="top"/>
  <anchor x="296.74" y="0.0" name="bottom"/>
  <outline>
    <contour>
      <point x="545.2400000000001" y="676.5400000000001" type="line"/>
      <point x="494.14" y="693.6"/>
      <point x="402.02000000000004" y="710.0"/>
      <point x="317.49999999999994" y="710.0" type="curve" smooth="yes"/>
      <point x="124.89999999999999" y="710.0"/>
      <point x="35.22" y="625.4599999999999"/>
      <point x="35.22" y="508.64000000000004" type="curve" smooth="yes"/>
      <point x="35.22" y="406.79999999999995"/>
      <point x="89.8" y="349.52000000000004"/>
      <point x="223.01999999999998" y="304.92" type="curve" smooth="yes"/>
      <point x="372.36" y="259.09999999999997"/>
      <point x="436.37999999999994" y="237.32"/>
      <point x="436.37999999999994" y="183.58" type="curve" smooth="yes"/>
      <point x="436.37999999999994" y="129.06"/>
      <point x="387.16" y="97.72000000000001"/>
      <point x="288.12" y="97.72000000000001" type="curve" smooth="yes"/>
      <point x="215.02" y="97.72000000000001"/>
      <point x="115.76" y="114.14"/>
      <point x="43.120000000000005" y="139.29999999999998" type="curve"/>
      <point x="15.439999999999998" y="33.519999999999996" type="line"/>
      <point x="89.38000000000001" y="6.18"/>
      <point x="198.94" y="-10.0"/>
      <point x="280.44" y="-10.0" type="curve" smooth="yes"/>
      <point x="472.8" y="-10.0"/>
      <point x="577.9599999999999" y="65.32000000000001"/>
      <point x="577.9599999999999" y="194.3" type="curve" smooth="yes"/>
      <point x="577.9599999999999" y="301.76"/>
      <point x="517.22" y="355.78"/>
      <point x="365.78" y="399.4" type="curve" smooth="yes"/>
      <point x="224.32" y="439.8"/>
      <point x="177.0" y="464.38"/>
      <point x="177.0" y="516.66" type="curve" smooth="yes"/>
      <point x="177.0" y="571.06"/>
      <point x="230.45999999999998" y="599.86"/>
      <point x="317.64" y="599.86" type="curve" smooth="yes"/>
      <point x="383.62" y="599.86"/>
      <point x="466.41999999999996" y="587.86"/>
      <point x="518.6600000000001" y="569.6999999999999" type="curve"/>
    </contour>
  </outline>
</glyph>
<glyph name="T" format="2">
  <advance width="582.82"/>
  <unicode hex="0054"/>
  <anchor x="291.41" y="700.0" name="top"/>
  <anchor x="291.41" y="0.0" name="bottom"/>
  <outline>
    <contour>
      <point x="569.39" y="578.59" type="line"/>
      <point x="569.39" y="700.0" type="line"/>
      <point x="13.430000000000001" y="700.0" type="line"/>
      <point x="13.430000000000001" y="578.59" type="line"/>
      <point x="223.00000000000003" y="578.59" type="line"/>
      <point x="223.00000000000003" y="0.0" type="line"/>
      <point x="360.15000000000003" y="0.0" type="line"/>
      <point x="360.15000000000003" y="578.59" type="line"/>
    </contour>
  </outline>
</glyph>
<glyph name="U" format="2">
  <advance width="674.2"/>
  <unicode hex="0055"/>
  <anchor x="412.07" y="0.66" name="ogonek"/>
  <anchor x="337.40000000000003" y="700.0" name="top"/>
  <anchor x="622.22" y="700.0" name="topright"/>
  <anchor x="337.40000000000003" y="0.0" name="bottom"/>
  <outline>
    <contour>
      <point x="51.980000000000004" y="220.84" type="line"/>
      <point x="51.980000000000004" y="48.4"/>
      <point x="166.62" y="-10.0"/>
      <point x="336.74" y="-10.0" type="curve" smooth="yes"/>
      <point x="509.1700000000001" y="-10.0"/>
      <point x="622.22" y="48.4"/>
      <point x="622.22" y="220.84" type="curve" smooth="yes"/>
      <point x="622.22" y="700.0" type="line"/>
      <point x="486.17" y="700.0" type="line"/>
      <point x="486.17" y="219.63000000000002" type="line" smooth="yes"/>
      <point x="486.17" y="128.26999999999998"/>
      <point x="418.87" y="101.52000000000001"/>
      <point x="337.40000000000003" y="101.52000000000001" type="curve" smooth="yes"/>
      <point x="257.8" y="101.52000000000001"/>
      <point x="187.37" y="126.28999999999999"/>
      <point x="187.37" y="219.63000000000002" type="curve" smooth="yes"/>
      <point x="187.37" y="700.0" type="line"/>
      <point x="51.980000000000004" y="700.0" type="line"/>
    </contour>
  </outline>
</glyph>
<glyph name="V" format="2">
  <advance width="631.96"/>
  <unicode hex="0056"/>
  <outline>
    <contour>
      <point x="238.21999999999997" y="0.0" type="line"/>
      <point x="396.5" y="0.0" type="line"/>
      <point x="628.7600000000001" y="699.1" type="line"/>
      <point x="482.12" y="702.02" type="line"/>
      <point x="317.8" y="126.30000000000001" type="line"/>
      <point x="150.60000000000002" y="702.02" type="line"/>
      <point x="3.1999999999999993" y="699.1" type="line"/>
    </contour>
  </outline>
</glyph>
<glyph name="W" format="2">
  <advance width="817.1"/>
  <unicode hex="0057"/>
  <anchor x="408.1" y="700.0" name="top"/>
  <anchor x="408.1" y="0.0" name="bottom"/>
  <outline>
    <contour>
      <point x="663.54" y="0.0" type="line"/>
      <point x="813.02" y="699.66" type="line"/>
      <point x="665.64" y="701.4599999999999" type="line"/>
      <point x="592.9199999999998" y="153.56" type="line"/>
      <point x="470.92" y="666.52" type="line"/>
      <point x="352.20000000000005" y="666.52" type="line"/>
      <point x="226.46" y="152.78000000000003" type="line"/>
      <point x="150.14000000000001" y="701.4599999999999" type="line"/>
      <point x="4.079999999999998" y="699.66" type="line"/>
      <point x="150.35999999999999" y="0.0" type="line"/>
      <point x="286.7" y="0.0" type="line"/>
      <point x="405.53999999999996" y="467.80000000000007" type="line"/>
      <point x="518.08" y="0.0" type="line"/>
    </contour>
  </outline>
</glyph>
<glyph name="X" format="2">
  <advance width="623.8799999999999"/>
  <unicode hex="0058"/>
  <outline>
    <contour>
      <point x="4.9799999999999995" y="1.7599999999999998" type="line"/>
      <point x="165.42000000000002" y="-2.74" type="line"/>
      <point x="310.76" y="257.38" type="line"/>
      <point x="454.4" y="-2.74" type="line"/>
      <point x="615.36" y="1.7599999999999998" type="line"/>
      <point x="399.70000000000005" y="361.86" type="line"/>
      <point x="604.36" y="698.24" type="line"/>
      <point x="449.66" y="701.84" type="line"/>
      <point x="321.28" y="458.3" type="line"/>
      <point x="188.08" y="701.84" type="line"/>
      <point x="23.72" y="698.24" type="line"/>
      <point x="230.97999999999996" y="358.72" type="line"/>
    </contour>
  </outline>
</glyph>
<glyph name="Y" format="2">
  <advance width="625.0"/>
  <unicode hex="0059"/>
  <anchor x="312.77000000000004" y="700.0" name="top"/>
  <anchor x="313.76000000000005" y="0.0" name="bottom"/>
  <outline>
    <contour>
      <point x="245.29" y="0.0" type="line"/>
      <point x="382.44" y="0.0" type="line"/>
      <point x="382.44" y="259.74999999999994" type="line"/>
      <point x="621.3900000000001" y="697.75" type="line"/>
      <point x="469.72" y="702.25" type="line"/>
      <point x="314.46999999999997" y="347.82" type="line"/>
      <point x="155.08" y="702.25" type="line"/>
      <point x="2.529999999999999" y="697.75" type="line"/>
      <point x="245.29" y="259.74999999999994" type="line"/>
    </contour>
  </outline>
</glyph>
<glyph name="Z" format="2">
  <advance width="597.3"/>
  <unicode hex="005A"/>
  <anchor x="300.9" y="350.0" name="center"/>
  <anchor x="300.9" y="0.0" name="bottom"/>
  <anchor x="302.16" y="700.0" name="top"/>
  <outline>
    <contour>
      <point x="23.68" y="0.0" type="line"/>
      <point x="576.14" y="0.0" type="line"/>
      <point x="576.14" y="112.32000000000001" type="line"/>
      <point x="185.96" y="112.32000000000001" type="line"/>
      <point x="185.96" y="114.26000000000002" type="line"/>
      <point x="555.6400000000001" y="590.7" type="line"/>
      <point x="555.6400000000001" y="700.0" type="line"/>
      <point x="41.56" y="700.0" type="line"/>
      <point x="41.56" y="587.68" type="line"/>
      <point x="396.79999999999995" y="587.68" type="line"/>
      <point x="396.79999999999995" y="585.74" type="line"/>
      <point x="23.68" y="109.30000000000001" type="line"/>
    </contour>
  </outline>
</glyph>
<glyph name="bracketleft" format="2">
  <advance width="318.91999999999996"/>
  <unicode hex="005B"/>
  <outline>
    <contour>
      <point x="156.79" y="-117.39999999999999" type="line"/>
      <point x="156.79" y="647.4" type="line"/>
      <point x="298.02" y="647.4" type="line"/>
      <point x="298.02" y="740.0" type="line"/>
      <point x="53.3" y="740.0" type="line"/>
      <point x="53.3" y="-210.0" type="line"/>
      <point x="298.02" y="-210.0" type="line"/>
      <point x="298.02" y="-117.39999999999999" type="line"/>
    </contour>
  </outline>
</glyph>
<glyph name="backslash" format="2">
  <advance width="401.46000000000004"/>
  <unicode hex="005C"/>
  <outline>
    <contour>
      <point x="109.33000000000001" y="740.0" type="line"/>
      <point x="1.2400000000000002" y="740.0" type="line"/>
      <point x="292.46" y="-210.0" type="line"/>
      <point x="400.22" y="-210.0" type="line"/>
    </contour>
  </outline>
</glyph>
<glyph name="bracketright" format="2">
  <advance width="318.91999999999996"/>
  <unicode hex="005D"/>
  <outline>
    <contour>
      <point x="20.900000000000002" y="-117.39999999999999" type="line"/>
      <point x="20.900000000000002" y="-210.0" type="line"/>
      <point x="265.62" y="-210.0" type="line"/>
      <point x="265.62" y="740.0" type="line"/>
      <point x="20.900000000000002" y="740.0" type="line"/>
      <point x="20.900000000000002" y="647.4" type="line"/>
      <point x="162.13" y="647.4" type="line"/>
      <point x="162.13" y="-117.39999999999999" type="line"/>
    </contour>
  </outline>
</glyph>
<glyph name="asciicircum" format="2">
  <advance width="511.34000000000003"/>
  <unicode hex="005E"/>
  <outline>
    <contour>
      <point x="45.599999999999994" y="249.31" type="line"/>
      <point x="148.36" y="249.31" type="line"/>
      <point x="255.67000000000002" y="569.0600000000001" type="line"/>
      <point x="363.53" y="249.31" type="line"/>
      <point x="465.74000000000007" y="249.31" type="line"/>
      <point x="315.94" y="704.5" type="line"/>
      <point x="195.4" y="704.5" type="line"/>
    </contour>
  </outline>
</glyph>
<glyph name="underscore" format="2">
  <advance width="779.5400000000001"/>
  <unicode hex="005F"/>
  <outline>
    <contour>
      <point x="11.0" y="-176.37" type="line"/>
      <point x="768.5400000000001" y="-176.37" type="line"/>
      <point x="768.5400000000001" y="-74.97" type="line"/>
      <point x="11.0" y="-74.97" type="line"/>
    </contour>
  </outline>
</glyph>
<glyph name="a" format="2">
  <advance width="545.5"/>
  <unicode hex="0061"/>
  <anchor x="541.6" y="11.4" name="ogonek"/>
  <anchor x="271.2" y="0.0" name="bottom"/>
  <anchor x="268.3" y="541.0" name="top"/>
  <outline>
    <contour>
      <point x="25.700000000000003" y="142.1" type="curve" smooth="yes"/>
      <point x="25.700000000000003" y="47.4"/>
      <point x="82.4" y="-10.0"/>
      <point x="169.8" y="-10.0" type="curve" smooth="yes"/>
      <point x="251.1" y="-10.0"/>
      <point x="309.0" y="20.699999999999996"/>
      <point x="359.1" y="60.3" type="curve"/>
      <point x="372.7" y="12.1"/>
      <point x="404.09999999999997" y="-10.0"/>
      <point x="457.5" y="-10.0" type="curve" smooth="yes"/>
      <point x="491.0999999999999" y="-10.0"/>
      <point x="518.4000000000001" y="-1.5999999999999992"/>
      <point x="541.6" y="12.3" type="curve"/>
      <point x="530.6999999999999" y="109.30000000000001" type="line"/>
      <point x="523.1" y="105.60000000000001"/>
      <point x="513.4" y="104.6"/>
      <point x="506.5" y="104.6" type="curve" smooth="yes"/>
      <point x="488.30000000000007" y="104.6"/>
      <point x="476.0" y="114.80000000000001"/>
      <point x="476.0" y="154.9" type="curve" smooth="yes"/>
      <point x="476.0" y="366.1" type="line" smooth="yes"/>
      <point x="476.0" y="487.9"/>
      <point x="404.20000000000005" y="551.0"/>
      <point x="246.79999999999998" y="551.0" type="curve" smooth="yes"/>
      <point x="187.8" y="551.0"/>
      <point x="116.2" y="539.3"/>
      <point x="56.2" y="520.7" type="curve"/>
      <point x="78.69999999999999" y="415.59999999999997" type="line"/>
      <point x="138.5" y="433.40000000000003"/>
      <point x="196.8" y="439.4"/>
      <point x="238.10000000000002" y="439.4" type="curve" smooth="yes"/>
      <point x="308.2" y="439.4"/>
      <point x="347.3" y="413.9"/>
      <point x="347.3" y="364.9" type="curve" smooth="yes"/>
      <point x="347.3" y="318.7" type="line"/>
      <point x="129.9" y="301.90000000000003"/>
      <point x="25.700000000000003" y="274.5"/>
    </contour>
    <contour>
      <point x="155.29999999999998" y="151.1" type="curve" smooth="yes"/>
      <point x="155.29999999999998" y="222.89999999999998"/>
      <point x="227.6" y="238.0"/>
      <point x="347.3" y="245.9" type="curve"/>
      <point x="347.3" y="134.4" type="line"/>
      <point x="313.09999999999997" y="100.80000000000001"/>
      <point x="261.90000000000003" y="80.00000000000001"/>
      <point x="219.20000000000002" y="80.00000000000001" type="curve" smooth="yes"/>
      <point x="180.1" y="80.00000000000001"/>
      <point x="155.29999999999998" y="102.80000000000001"/>
    </contour>
  </outline>
</glyph>
<glyph name="b" format="2">
  <advance width="565.4300000000001"/>
  <unicode hex="0062"/>
  <outline>
    <contour>
      <point x="52.349999999999994" y="16.19" type="line"/>
      <point x="132.4" y="-0.7399999999999995"/>
      <point x="205.70000000000002" y="-10.0"/>
      <point x="266.52000000000004" y="-10.0" type="curve" smooth="yes"/>
      <point x="454.73" y="-10.0"/>
      <point x="534.6" y="74.66000000000001"/>
      <point x="534.6" y="284.22" type="curve" smooth="yes"/>
      <point x="534.6" y="458.82"/>
      <point x="469.3" y="551.0"/>
      <point x="349.40000000000003" y="551.0" type="curve" smooth="yes"/>
      <point x="294.62" y="551.0"/>
      <point x="240.52" y="533.66"/>
      <point x="185.1" y="498.15000000000003" type="curve"/>
      <point x="185.1" y="740.0" type="line"/>
      <point x="52.349999999999994" y="740.0" type="line"/>
    </contour>
    <contour>
      <point x="185.1" y="97.5" type="curve"/>
      <point x="185.1" y="402.0" type="line"/>
      <point x="229.93" y="428.97"/>
      <point x="263.57" y="439.79999999999995"/>
      <point x="300.20000000000005" y="439.79999999999995" type="curve" smooth="yes"/>
      <point x="362.74" y="439.79999999999995"/>
      <point x="397.34000000000003" y="388.01000000000005"/>
      <point x="397.34000000000003" y="274.21000000000004" type="curve" smooth="yes"/>
      <point x="397.34000000000003" y="134.52"/>
      <point x="357.92999999999995" y="86.01"/>
      <point x="271.11" y="86.01" type="curve" smooth="yes"/>
      <point x="246.06" y="86.01"/>
      <point x="218.10000000000002" y="89.6"/>
    </contour>
  </outline>
</glyph>
<glyph name="c" format="2">
  <advance width="504.9200000000001"/>
  <unicode hex="0063"/>
  <anchor x="291.6" y="541.0" name="top"/>
  <anchor x="293.52000000000004" y="0.0" name="bottom"/>
  <outline>
    <contour>
      <point x="31.28" y="262.46" type="curve" smooth="yes"/>
      <point x="31.28" y="77.53999999999999"/>
      <point x="116.83999999999999" y="-10.0"/>
      <point x="289.7200000000001" y="-10.0" type="curve" smooth="yes"/>
      <point x="354.53999999999996" y="-10.0"/>
      <point x="430.56" y="0.20000000000000018"/>
      <point x="484.7800000000001" y="15.46" type="curve"/>
      <point x="463.72" y="114.18" type="line"/>
      <point x="413.52" y="103.82000000000002"/>
      <point x="364.22" y="97.58000000000001"/>
      <point x="318.04" y="97.58000000000001" type="curve" smooth="yes"/>
      <point x="221.82" y="97.58000000000001"/>
      <point x="166.74" y="137.86"/>
      <point x="166.74" y="265.34000000000003" type="curve" smooth="yes"/>
      <point x="166.74" y="399.78000000000003"/>
      <point x="219.66000000000005" y="442.43999999999994"/>
      <point x="316.02" y="442.43999999999994" type="curve" smooth="yes"/>
      <point x="358.5" y="442.43999999999994"/>
      <point x="409.12" y="436.59999999999997"/>
      <point x="456.12" y="426.79999999999995" type="curve"/>
      <point x="474.3" y="530.24" type="line"/>
      <point x="427.6" y="543.3000000000001"/>
      <point x="360.14" y="551.0"/>
      <point x="302.2" y="551.0" type="curve" smooth="yes"/>
      <point x="126.82000000000001" y="551.0"/>
      <point x="31.28" y="455.68"/>
    </contour>
  </outline>
</glyph>
<glyph name="d" format="2">
  <advance width="566.16"/>
  <unicode hex="0064"/>
  <anchor x="283.16" y="275.0" name="center"/>
  <anchor x="278.70000000000005" y="740.0" name="top"/>
  <anchor x="572.56" y="740.0" name="topright"/>
  <anchor x="283.16" y="0.0" name="bottom"/>
  <outline>
    <contour>
      <point x="397.32" y="-1.06" type="line"/>
      <point x="514.26" y="-1.06" type="line"/>
      <point x="514.26" y="740.0" type="line"/>
      <point x="380.09999999999997" y="740.0" type="line"/>
      <point x="380.09999999999997" y="542.4799999999999" type="line"/>
      <point x="348.28" y="548.14"/>
      <point x="314.29999999999995" y="551.0"/>
      <point x="284.17999999999995" y="551.0" type="curve" smooth="yes"/>
      <point x="111.48" y="551.0"/>
      <point x="30.56" y="458.42"/>
      <point x="30.56" y="259.84" type="curve" smooth="yes"/>
      <point x="30.56" y="85.22"/>
      <point x="96.74" y="-10.0"/>
      <point x="214.32" y="-10.0" type="curve" smooth="yes"/>
      <point x="272.16" y="-10.0"/>
      <point x="325.06" y="6.799999999999999"/>
      <point x="381.26" y="43.06" type="curve"/>
    </contour>
    <contour>
      <point x="380.06" y="137.55999999999997" type="line"/>
      <point x="336.4" y="112.48000000000002"/>
      <point x="301.74" y="101.2"/>
      <point x="265.8" y="101.2" type="curve" smooth="yes"/>
      <point x="203.92000000000004" y="101.2"/>
      <point x="169.14000000000001" y="154.10000000000002"/>
      <point x="169.14000000000001" y="272.03999999999996" type="curve" smooth="yes"/>
      <point x="169.14000000000001" y="406.47999999999996"/>
      <point x="207.92" y="452.91999999999996"/>
      <point x="293.78" y="452.91999999999996" type="curve" smooth="yes"/>
      <point x="319.92" y="452.91999999999996"/>
      <point x="346.88" y="449.96"/>
      <point x="380.06" y="441.15999999999997" type="curve"/>
    </contour>
  </outline>
</glyph>
<glyph name="e" format="2">
  <advance width="545.78"/>
  <unicode hex="0065"/>
  <anchor x="465.76000000000005" y="11.080000000000002" name="ogonek"/>
  <anchor x="281.58" y="0.0" name="bottom"/>
  <anchor x="283.26" y="541.0" name="top"/>
  <outline>
    <contour>
      <point x="283.96" y="-10.0" type="curve" smooth="yes"/>
      <point x="372.06" y="-10.0"/>
      <point x="445.13999999999993" y="0.98"/>
      <point x="510.0400000000001" y="22.52" type="curve"/>
      <point x="493.94" y="120.28000000000002" type="line"/>
      <point x="434.62" y="106.24"/>
      <point x="367.06" y="95.46000000000001"/>
      <point x="307.97999999999996" y="95.46000000000001" type="curve" smooth="yes"/>
      <point x="214.44000000000003" y="95.46000000000001"/>
      <point x="168.1" y="132.22"/>
      <point x="168.01999999999998" y="222.54" type="curve" smooth="yes"/>
      <point x="168.01999999999998" y="228.16000000000003"/>
      <point x="168.02" y="232.77999999999997"/>
      <point x="168.92" y="238.4" type="curve"/>
      <point x="316.23999999999995" y="240.57999999999998"/>
      <point x="450.08000000000004" y="252.51999999999998"/>
      <point x="513.5400000000001" y="257.64000000000004" type="curve"/>
      <point x="514.5799999999999" y="274.96000000000004"/>
      <point x="515.54" y="296.0"/>
      <point x="515.54" y="307.47999999999996" type="curve" smooth="yes"/>
      <point x="515.54" y="479.23999999999995"/>
      <point x="445.46000000000004" y="551.0"/>
      <point x="294.6" y="551.0" type="curve" smooth="yes"/>
      <point x="143.4" y="551.0"/>
      <point x="30.560000000000002" y="473.54"/>
      <point x="30.560000000000002" y="257.14" type="curve" smooth="yes"/>
      <point x="30.560000000000002" y="70.48000000000002"/>
      <point x="122.53999999999999" y="-10.0"/>
    </contour>
    <contour>
      <point x="169.85999999999999" y="324.28" type="curve"/>
      <point x="180.4" y="428.76000000000005"/>
      <point x="230.39999999999998" y="455.48"/>
      <point x="285.36" y="455.48" type="curve" smooth="yes"/>
      <point x="349.54" y="455.48"/>
      <point x="379.58" y="422.47999999999996"/>
      <point x="381.7" y="333.59999999999997" type="curve"/>
      <point x="350.82000000000005" y="330.76"/>
      <point x="262.6" y="325.26"/>
    </contour>
  </outline>
</glyph>
<glyph name="f" format="2">
  <advance width="384.81"/>
  <unicode hex="0066"/>
  <outline>
    <contour>
      <point x="94.27" y="0.0" type="line"/>
      <point x="224.82" y="0.0" type="line"/>
      <point x="224.82" y="401.24" type="line"/>
      <point x="367.05" y="401.24" type="line"/>
      <point x="367.05" y="498.85" type="line"/>
      <point x="225.14999999999998" y="498.85" type="line"/>
      <point x="225.14999999999998" y="516.4100000000001" type="line" smooth="yes"/>
      <point x="225.14999999999998" y="608.4399999999999"/>
      <point x="258.41" y="644.98"/>
      <point x="322.05" y="644.98" type="curve" smooth="yes"/>
      <point x="350.23" y="644.98"/>
      <point x="381.59" y="640.13"/>
      <point x="413.32" y="630.8599999999999" type="curve"/>
      <point x="431.25000000000006" y="725.34" type="line"/>
      <point x="383.02" y="742.7400000000001"/>
      <point x="338.72" y="750.18"/>
      <point x="291.08000000000004" y="750.18" type="curve" smooth="yes"/>
      <point x="164.02" y="750.18"/>
      <point x="94.27" y="674.92"/>
      <point x="94.27" y="518.3900000000001" type="curve" smooth="yes"/>
      <point x="94.27" y="498.85" type="line"/>
      <point x="15.8" y="489.61999999999995" type="line"/>
      <point x="15.8" y="401.24" type="line"/>
      <point x="94.27" y="401.24" type="line"/>
    </contour>
  </outline>
</glyph>
<glyph name="g" format="2">
  <advance width="563.02"/>
  <unicode hex="0067"/>
  <anchor x="270.0400000000001" y="541.0" name="top"/>
  <anchor x="270.63999999999993" y="-214.0" name="bottom"/>
  <outline>
    <contour>
      <point x="255.18" y="-220.0" type="curve" smooth="yes"/>
      <point x="441.1000000000001" y="-220.0"/>
      <point x="544.7600000000001" y="-151.38"/>
      <point x="544.7600000000001" y="-32.49999999999999" type="curve" smooth="yes"/>
      <point x="544.7600000000001" y="59.08"/>
      <point x="485.8" y="110.98000000000002"/>
      <point x="374.56" y="110.98000000000002" type="curve" smooth="yes"/>
      <point x="211.08" y="110.98000000000002" type="line" smooth="yes"/>
      <point x="164.62" y="110.98000000000002"/>
      <point x="143.61999999999998" y="127.0"/>
      <point x="143.61999999999998" y="155.60000000000002" type="curve" smooth="yes"/>
      <point x="143.61999999999998" y="182.35999999999999"/>
      <point x="161.29999999999998" y="198.58"/>
      <point x="191.92000000000002" y="213.26" type="curve"/>
      <point x="119.18" y="236.39999999999998" type="line"/>
      <point x="70.0" y="209.6"/>
      <point x="41.22" y="174.14"/>
      <point x="41.22" y="120.32" type="curve" smooth="yes"/>
      <point x="41.22" y="42.099999999999994"/>
      <point x="105.44" y="1.359999999999998"/>
      <point x="214.36" y="1.359999999999998" type="curve" smooth="yes"/>
      <point x="331.72" y="1.359999999999998" type="line" smooth="yes"/>
      <point x="398.36000000000007" y="1.359999999999998"/>
      <point x="419.36" y="-13.280000000000001"/>
      <point x="419.36" y="-47.94" type="curve" smooth="yes"/>
      <point x="419.36" y="-96.46000000000001"/>
      <point x="362.78000000000003" y="-125.24"/>
      <point x="264.84" y="-125.24" type="curve" smooth="yes"/>
      <point x="165.92000000000002" y="-125.24"/>
      <point x="126.22000000000001" y="-100.38"/>
      <point x="126.22000000000001" y="-52.14" type="curve" smooth="yes"/>
      <point x="126.22000000000001" y="-19.379999999999995"/>
      <point x="144.74" y="-0.8800000000000021"/>
      <point x="178.36" y="17.0" type="curve"/>
      <point x="102.66" y="43.379999999999995" type="line"/>
      <point x="44.8" y="15.9"/>
      <point x="15.719999999999997" y="-24.86"/>
      <point x="15.719999999999997" y="-79.84" type="curve" smooth="yes"/>
      <point x="15.719999999999997" y="-172.4"/>
      <point x="96.36000000000001" y="-220.0"/>
    </contour>
    <contour>
      <point x="268.3" y="189.14" type="curve" smooth="yes"/>
      <point x="413.88000000000005" y="189.14"/>
      <point x="489.9200000000001" y="250.55999999999997"/>
      <point x="489.9200000000001" y="369.64" type="curve" smooth="yes"/>
      <point x="489.9200000000001" y="489.62"/>
      <point x="413.88000000000005" y="551.04"/>
      <point x="268.3" y="551.04" type="curve" smooth="yes"/>
      <point x="122.72000000000001" y="551.04"/>
      <point x="46.68" y="489.62"/>
      <point x="46.68" y="369.64" type="curve" smooth="yes"/>
      <point x="46.68" y="250.55999999999997"/>
      <point x="122.72000000000001" y="189.14"/>
    </contour>
    <contour>
      <point x="268.3" y="276.50000000000006" type="curve" smooth="yes"/>
      <point x="205.8" y="276.50000000000006"/>
      <point x="174.78" y="302.78"/>
      <point x="174.78" y="369.64" type="curve" smooth="yes"/>
      <point x="174.78" y="438.29999999999995"/>
      <point x="205.8" y="464.58"/>
      <point x="268.3" y="464.58" type="curve" smooth="yes"/>
      <point x="330.8" y="464.58"/>
      <point x="361.81999999999994" y="438.29999999999995"/>
      <point x="361.81999999999994" y="369.64" type="curve" smooth="yes"/>
      <point x="361.81999999999994" y="302.78"/>
      <point x="330.8" y="276.50000000000006"/>
    </contour>
    <contour>
      <point x="448.6000000000001" y="437.4199999999999" type="line"/>
      <point x="461.2" y="461.28"/>
      <point x="480.38000000000005" y="471.8999999999999"/>
      <point x="505.24" y="471.8999999999999" type="curve" smooth="yes"/>
      <point x="517.42" y="471.8999999999999"/>
      <point x="529.64" y="470.8"/>
      <point x="539.8399999999999" y="467.82000000000005" type="curve"/>
      <point x="555.04" y="569.98" type="line"/>
      <point x="540.76" y="574.2399999999999"/>
      <point x="525.1000000000001" y="576.4400000000002"/>
      <point x="507.42000000000013" y="576.4400000000002" type="curve" smooth="yes"/>
      <point x="452.7" y="576.4400000000002"/>
      <point x="414.46000000000004" y="553.12"/>
      <point x="396.3" y="507.1599999999999" type="curve"/>
    </contour>
  </outline>
</glyph>
<glyph name="h" format="2">
  <advance width="565.5399999999998"/>
  <unicode hex="0068"/>
  <anchor x="280.12" y="395.0" name="center"/>
  <anchor x="282.32" y="0.0" name="bottom"/>
  <anchor x="285.34" y="740.0" name="top"/>
  <outline>
    <contour>
      <point x="51.89999999999999" y="0.0" type="line"/>
      <point x="186.0" y="0.0" type="line"/>
      <point x="186.0" y="404.88" type="line"/>
      <point x="226.70000000000002" y="424.6"/>
      <point x="261.64" y="437.67999999999995"/>
      <point x="301.92" y="437.67999999999995" type="curve" smooth="yes"/>
      <point x="352.68" y="437.67999999999995"/>
      <point x="379.6" y="411.32"/>
      <point x="379.6" y="356.02000000000004" type="curve" smooth="yes"/>
      <point x="379.6" y="0.0" type="line"/>
      <point x="513.7600000000001" y="0.0" type="line"/>
      <point x="513.7600000000001" y="396.64000000000004" type="line" smooth="yes"/>
      <point x="513.7600000000001" y="497.06"/>
      <point x="458.62" y="551.0"/>
      <point x="358.49999999999994" y="551.0" type="curve" smooth="yes"/>
      <point x="295.82" y="551.0"/>
      <point x="244.34000000000003" y="532.36"/>
      <point x="186.0" y="497.28" type="curve"/>
      <point x="186.0" y="740.0" type="line"/>
      <point x="51.89999999999999" y="740.0" type="line"/>
    </contour>
  </outline>
</glyph>
<glyph name="i" format="2">
  <advance width="237.45"/>
  <unicode hex="0069"/>
  <anchor x="184.92" y="0.0" name="ogonek"/>
  <anchor x="118.89" y="0.0" name="bottom"/>
  <outline>
    <contour>
      <point x="118.89" y="617.82" type="curve" smooth="yes"/>
      <point x="175.27" y="617.82"/>
      <point x="197.67000000000002" y="638.84"/>
      <point x="197.67000000000002" y="685.97" type="curve" smooth="yes"/>
      <point x="197.67000000000002" y="733.76"/>
      <point x="174.61" y="754.45"/>
      <point x="118.89" y="754.45" type="curve" smooth="yes"/>
      <point x="62.84" y="754.45"/>
      <point x="39.78" y="733.76"/>
      <point x="39.78" y="685.97" type="curve" smooth="yes"/>
      <point x="39.78" y="638.51"/>
      <point x="63.28999999999999" y="617.82"/>
    </contour>
    <contour>
      <point x="52.349999999999994" y="0.0" type="line"/>
      <point x="185.1" y="0.0" type="line"/>
      <point x="185.1" y="541.0" type="line"/>
      <point x="52.349999999999994" y="541.0" type="line"/>
    </contour>
  </outline>
</glyph>
<glyph name="j" format="2">
  <advance width="243.7"/>
  <unicode hex="006A"/>
  <outline>
    <contour>
      <point x="191.53" y="541.0" type="line"/>
      <point x="58.78" y="541.0" type="line"/>
      <point x="58.78" y="31.930000000000003" type="line" smooth="yes"/>
      <point x="58.78" y="-41.32999999999999"/>
      <point x="40.099999999999994" y="-78.03"/>
      <point x="-0.8400000000000016" y="-92.42999999999999" type="curve" smooth="yes"/>
      <point x="-9.050000000000002" y="-94.86"/>
      <point x="-16.6" y="-95.85"/>
      <point x="-26.249999999999996" y="-95.72999999999999" type="curve"/>
      <point x="-33.13" y="-207.47000000000003" type="line"/>
      <point x="-10.330000000000002" y="-209.79999999999998"/>
      <point x="16.82" y="-209.73999999999998"/>
      <point x="36.790000000000006" y="-207.04" type="curve" smooth="yes"/>
      <point x="145.86" y="-190.75"/>
      <point x="191.53" y="-113.76"/>
      <point x="191.53" y="25.110000000000003" type="curve" smooth="yes"/>
    </contour>
    <contour>
      <point x="124.96000000000001" y="617.82" type="curve" smooth="yes"/>
      <point x="181.07" y="617.82"/>
      <point x="203.74" y="638.84"/>
      <point x="203.74" y="685.97" type="curve" smooth="yes"/>
      <point x="203.74" y="733.76"/>
      <point x="180.41" y="754.45"/>
      <point x="124.96000000000001" y="754.45" type="curve" smooth="yes"/>
      <point x="68.91" y="754.45"/>
      <point x="45.849999999999994" y="733.76"/>
      <point x="45.849999999999994" y="685.97" type="curve" smooth="yes"/>
      <point x="45.849999999999994" y="638.51"/>
      <point x="69.36" y="617.82"/>
    </contour>
  </outline>
</glyph>
<glyph name="k" format="2">
  <advance width="538.6"/>
  <unicode hex="006B"/>
  <anchor x="115.0" y="740.0" name="top"/>
  <anchor x="279.5" y="0.0" name="bottom"/>
  <outline>
    <contour>
      <point x="493.20000000000005" y="-9.299999999999999" type="curve" smooth="yes"/>
      <point x="506.30000000000007" y="-9.299999999999999"/>
      <point x="516.7" y="-8.299999999999999"/>
      <point x="527.4000000000001" y="-6.199999999999999" type="curve"/>
      <point x="525.5" y="127.00000000000001" type="line"/>
      <point x="519.6999999999999" y="127.00000000000001"/>
      <point x="515.0" y="126.10000000000001"/>
      <point x="511.2" y="126.10000000000001" type="curve" smooth="yes"/>
      <point x="477.5" y="126.10000000000001"/>
      <point x="443.9" y="145.5"/>
      <point x="345.0" y="240.9" type="curve" smooth="yes"/>
      <point x="176.3" y="404.1" type="line"/>
      <point x="176.3" y="740.0" type="line"/>
      <point x="53.7" y="740.0" type="line"/>
      <point x="53.7" y="0.0" type="line"/>
      <point x="176.3" y="0.0" type="line"/>
      <point x="176.3" y="233.1" type="line"/>
      <point x="317.4" y="98.1" type="line" smooth="yes"/>
      <point x="414.4" y="3.4000000000000004"/>
      <point x="447.8" y="-9.299999999999999"/>
    </contour>
    <contour>
      <point x="286.5" y="237.39999999999998" type="line"/>
      <point x="370.6" y="316.2"/>
      <point x="476.59999999999997" y="424.9"/>
      <point x="511.30000000000007" y="540.7" type="curve"/>
      <point x="383.0" y="550.0" type="line"/>
      <point x="354.40000000000003" y="445.7"/>
      <point x="276.90000000000003" y="373.9"/>
      <point x="185.7" y="293.2" type="curve"/>
    </contour>
  </outline>
</glyph>
<glyph name="l" format="2">
  <advance width="294.26"/>
  <unicode hex="006C"/>
  <anchor x="147.29999999999998" y="395.0" name="center"/>
  <anchor x="118.89" y="740.0" name="top"/>
  <anchor x="243.85" y="740.0" name="topright"/>
  <anchor x="171.79999999999998" y="0.0" name="bottom"/>
  <outline>
    <contour>
      <point x="185.1" y="740.0" type="line"/>
      <point x="52.349999999999994" y="740.0" type="line"/>
      <point x="52.349999999999994" y="162.94" type="line" smooth="yes"/>
      <point x="52.349999999999994" y="31.450000000000003"/>
      <point x="102.66" y="-10.0"/>
      <point x="196.23999999999998" y="-10.0" type="curve" smooth="yes"/>
      <point x="234.77999999999997" y="-10.0"/>
      <point x="268.66999999999996" y="-0.49999999999999956"/>
      <point x="295.28999999999996" y="11.05" type="curve"/>
      <point x="282.71000000000004" y="113.17" type="line"/>
      <point x="264.19" y="107.89000000000001"/>
      <point x="248.39000000000001" y="104.93"/>
      <point x="235.07000000000002" y="104.93" type="curve" smooth="yes"/>
      <point x="205.86" y="104.93"/>
      <point x="185.1" y="116.42000000000002"/>
      <point x="185.1" y="174.92999999999998" type="curve" smooth="yes"/>
    </contour>
  </outline>
</glyph>
<glyph name="m" format="2">
  <advance width="847.18"/>
  <unicode hex="006D"/>
  <outline>
    <contour>
      <point x="52.349999999999994" y="0.0" type="line"/>
      <point x="185.43" y="0.0" type="line"/>
      <point x="185.43" y="405.06" type="line"/>
      <point x="218.98000000000002" y="424.37"/>
      <point x="249.84000000000003" y="437.03"/>
      <point x="285.75000000000006" y="437.03" type="curve" smooth="yes"/>
      <point x="341.41" y="437.03"/>
      <point x="357.83" y="398.06"/>
      <point x="357.83" y="355.57" type="curve" smooth="yes"/>
      <point x="357.83" y="0.0" type="line"/>
      <point x="490.90999999999997" y="0.0" type="line"/>
      <point x="490.90999999999997" y="365.69" type="line" smooth="yes"/>
      <point x="490.90999999999997" y="378.39"/>
      <point x="489.74" y="392.35999999999996"/>
      <point x="486.19" y="405.15000000000003" type="curve"/>
      <point x="515.24" y="421.57"/>
      <point x="550.34" y="438.15"/>
      <point x="590.49" y="438.15" type="curve" smooth="yes"/>
      <point x="646.65" y="438.15"/>
      <point x="662.41" y="399.22"/>
      <point x="662.41" y="356.28999999999996" type="curve" smooth="yes"/>
      <point x="662.41" y="0.0" type="line"/>
      <point x="795.49" y="0.0" type="line"/>
      <point x="795.49" y="398.2" type="line" smooth="yes"/>
      <point x="795.49" y="484.07000000000005"/>
      <point x="751.45" y="551.0"/>
      <point x="651.2300000000001" y="551.0" type="curve" smooth="yes"/>
      <point x="581.05" y="551.0"/>
      <point x="525.26" y="527.1999999999999"/>
      <point x="464.88" y="489.06999999999994" type="curve"/>
      <point x="443.07" y="527.7800000000001"/>
      <point x="406.40000000000003" y="550.1"/>
      <point x="344.07000000000005" y="550.1" type="curve" smooth="yes"/>
      <point x="284.80000000000007" y="550.1"/>
      <point x="231.01000000000002" y="530.82"/>
      <point x="173.0" y="493.98" type="curve"/>
      <point x="173.0" y="541.0" type="line"/>
      <point x="52.349999999999994" y="541.0" type="line"/>
    </contour>
  </outline>
</glyph>
<glyph name="n" format="2">
  <advance width="565.0600000000001"/>
  <unicode hex="006E"/>
  <anchor x="283.6" y="541.0" name="top"/>
  <anchor x="284.5" y="0.0" name="bottom"/>
  <outline>
    <contour>
      <point x="52.349999999999994" y="0.0" type="line"/>
      <point x="185.43" y="0.0" type="line"/>
      <point x="185.43" y="405.24" type="line"/>
      <point x="226.16000000000003" y="425.16999999999996"/>
      <point x="261.52000000000004" y="439.03"/>
      <point x="302.43" y="439.03" type="curve" smooth="yes"/>
      <point x="353.19" y="439.03"/>
      <point x="380.28999999999996" y="412.03999999999996"/>
      <point x="380.28999999999996" y="356.47" type="curve" smooth="yes"/>
      <point x="380.28999999999996" y="0.0" type="line"/>
      <point x="513.37" y="0.0" type="line"/>
      <point x="513.37" y="398.38" type="line" smooth="yes"/>
      <point x="513.37" y="493.37000000000006"/>
      <point x="460.99" y="551.0"/>
      <point x="358.11" y="551.0" type="curve" smooth="yes"/>
      <point x="291.92" y="551.0"/>
      <point x="238.53" y="531.77"/>
      <point x="173.0" y="493.89000000000004" type="curve"/>
      <point x="173.0" y="541.0" type="line"/>
      <point x="52.349999999999994" y="541.0" type="line"/>
    </contour>
  </outline>
</glyph>
<glyph name="o" format="2">
  <advance width="567.1"/>
  <unicode hex="006F"/>
  <anchor x="367.07000000000005" y="3.6999999999999997" name="ogonek"/>
  <anchor x="283.55" y="541.0" name="top"/>
  <anchor x="419.84" y="532.8" name="topright"/>
  <anchor x="283.59000000000003" y="0.0" name="bottom"/>
  <outline>
    <contour>
      <point x="31.009999999999998" y="271.63" type="curve" smooth="yes"/>
      <point x="31.009999999999998" y="85.63"/>
      <point x="98.13" y="-10.0"/>
      <point x="283.59000000000003" y="-10.0" type="curve" smooth="yes"/>
      <point x="468.96999999999997" y="-10.0"/>
      <point x="536.0899999999999" y="85.63"/>
      <point x="536.0899999999999" y="271.63" type="curve" smooth="yes"/>
      <point x="536.0899999999999" y="452.43"/>
      <point x="475.80999999999995" y="551.0"/>
      <point x="283.59000000000003" y="551.0" type="curve" smooth="yes"/>
      <point x="90.93" y="551.0"/>
      <point x="31.009999999999998" y="452.43"/>
    </contour>
    <contour>
      <point x="167.65" y="271.59000000000003" type="curve" smooth="yes"/>
      <point x="167.65" y="403.31"/>
      <point x="196.61" y="447.94"/>
      <point x="283.55" y="447.94" type="curve" smooth="yes"/>
      <point x="370.2" y="447.94"/>
      <point x="399.09000000000003" y="403.31"/>
      <point x="399.09000000000003" y="271.59000000000003" type="curve" smooth="yes"/>
      <point x="399.09000000000003" y="136.42999999999998"/>
      <point x="366.00000000000006" y="93.39000000000001"/>
      <point x="283.55" y="93.39000000000001" type="curve" smooth="yes"/>
      <point x="200.77" y="93.39000000000001"/>
      <point x="167.65" y="136.42999999999998"/>
    </contour>
  </outline>
</glyph>
<glyph name="p" format="2">
  <advance width="565.76"/>
  <unicode hex="0070"/>
  <outline>
    <contour>
      <point x="52.349999999999994" y="-210.0" type="line"/>
      <point x="185.65" y="-210.0" type="line"/>
      <point x="185.65" y="-0.6700000000000008" type="line"/>
      <point x="220.51999999999998" y="-6.959999999999999"/>
      <point x="252.61" y="-10.0"/>
      <point x="281.04" y="-10.0" type="curve" smooth="yes"/>
      <point x="453.74" y="-10.0"/>
      <point x="534.9300000000001" y="82.91"/>
      <point x="534.9300000000001" y="281.58000000000004" type="curve" smooth="yes"/>
      <point x="534.9300000000001" y="455.52"/>
      <point x="468.97" y="551.0"/>
      <point x="351.71" y="551.0" type="curve" smooth="yes"/>
      <point x="293.08" y="551.0"/>
      <point x="237.77" y="533.3299999999999"/>
      <point x="176.96" y="494.41" type="curve"/>
      <point x="173.0" y="543.7" type="line"/>
      <point x="52.349999999999994" y="543.7" type="line"/>
    </contour>
    <contour>
      <point x="271.44" y="87.33" type="curve" smooth="yes"/>
      <point x="246.06" y="87.33"/>
      <point x="218.10000000000002" y="91.25"/>
      <point x="185.43" y="99.81" type="curve"/>
      <point x="185.43" y="404.31" type="line"/>
      <point x="229.60000000000002" y="430.62"/>
      <point x="263.57" y="441.12"/>
      <point x="299.87" y="441.12" type="curve" smooth="yes"/>
      <point x="362.74" y="441.12"/>
      <point x="397.34000000000003" y="388.66999999999996"/>
      <point x="397.34000000000003" y="268.93" type="curve" smooth="yes"/>
      <point x="397.34000000000003" y="135.18"/>
      <point x="357.92999999999995" y="87.33"/>
    </contour>
  </outline>
</glyph>
<glyph name="q" format="2">
  <advance width="566.0899999999999"/>
  <unicode hex="0071"/>
  <outline>
    <contour>
      <point x="513.74" y="526.4" type="line"/>
      <point x="435.52" y="542.6700000000001"/>
      <point x="362.70000000000005" y="551.0"/>
      <point x="299.57" y="551.0" type="curve" smooth="yes"/>
      <point x="114.66" y="551.0"/>
      <point x="30.83" y="464.03"/>
      <point x="30.83" y="266.02" type="curve" smooth="yes"/>
      <point x="30.83" y="84.1"/>
      <point x="96.07" y="-10.0"/>
      <point x="216.68999999999997" y="-10.0" type="curve" smooth="yes"/>
      <point x="272.12999999999994" y="-10.0"/>
      <point x="326.23" y="7.34"/>
      <point x="380.99" y="42.52000000000001" type="curve"/>
      <point x="380.99" y="-210.0" type="line"/>
      <point x="513.74" y="-210.0" type="line"/>
    </contour>
    <contour>
      <point x="380.65999999999997" y="442.57000000000005" type="curve"/>
      <point x="380.65999999999997" y="138.34" type="line"/>
      <point x="336.49" y="111.7"/>
      <point x="302.52" y="100.53999999999999"/>
      <point x="265.89000000000004" y="100.53999999999999" type="curve" smooth="yes"/>
      <point x="203.62000000000003" y="100.53999999999999"/>
      <point x="168.75" y="152.86999999999998"/>
      <point x="168.75" y="266.13" type="curve" smooth="yes"/>
      <point x="168.75" y="405.82"/>
      <point x="208.16" y="454.33"/>
      <point x="294.98" y="454.33" type="curve" smooth="yes"/>
      <point x="319.65000000000003" y="454.33"/>
      <point x="347.98999999999995" y="450.73999999999995"/>
    </contour>
  </outline>
</glyph>
<glyph name="r" format="2">
  <advance width="405.56000000000006"/>
  <unicode hex="0072"/>
  <anchor x="218.81000000000003" y="541.0" name="top"/>
  <anchor x="118.55999999999999" y="0.0" name="bottom"/>
  <outline>
    <contour>
      <point x="172.67000000000002" y="541.0" type="line"/>
      <point x="52.349999999999994" y="541.0" type="line"/>
      <point x="52.349999999999994" y="0.0" type="line"/>
      <point x="184.76999999999998" y="0.0" type="line"/>
      <point x="184.76999999999998" y="379.81" type="line"/>
      <point x="230.85000000000002" y="416.15000000000003"/>
      <point x="270.66" y="429.02"/>
      <point x="309.84000000000003" y="429.02" type="curve" smooth="yes"/>
      <point x="331.15999999999997" y="429.02"/>
      <point x="356.7" y="425.72"/>
      <point x="380.98" y="419.53999999999996" type="curve"/>
      <point x="402.08000000000004" y="540.04" type="line"/>
      <point x="378.31" y="547.41"/>
      <point x="352.97" y="551.0"/>
      <point x="329.14" y="551.0" type="curve" smooth="yes"/>
      <point x="271.19" y="551.0"/>
      <point x="229.43" y="529.66"/>
      <point x="172.67000000000002" y="476.5799999999999" type="curve"/>
    </contour>
  </outline>
</glyph>
<glyph name="s" format="2">
  <advance width="460.7"/>
  <unicode hex="0073"/>
  <anchor x="233.79999999999998" y="541.0" name="top"/>
  <anchor x="234.90000000000003" y="0.0" name="bottom"/>
  <outline>
    <contour>
      <point x="20.7" y="20.900000000000002" type="line"/>
      <point x="79.1" y="-0.20000000000000018"/>
      <point x="144.2" y="-10.0"/>
      <point x="214.7" y="-10.0" type="curve" smooth="yes"/>
      <point x="340.09999999999997" y="-10.0"/>
      <point x="440.7" y="36.7"/>
      <point x="440.7" y="161.0" type="curve" smooth="yes"/>
      <point x="440.7" y="266.2"/>
      <point x="373.8" y="300.8"/>
      <point x="276.3" y="324.59999999999997" type="curve" smooth="yes"/>
      <point x="202.0" y="342.6"/>
      <point x="159.50000000000003" y="351.4"/>
      <point x="159.50000000000003" y="393.5" type="curve" smooth="yes"/>
      <point x="159.50000000000003" y="429.8"/>
      <point x="189.0" y="448.00000000000006"/>
      <point x="246.39999999999998" y="448.00000000000006" type="curve" smooth="yes"/>
      <point x="308.59999999999997" y="448.00000000000006"/>
      <point x="352.0" y="438.0"/>
      <point x="394.80000000000007" y="424.8" type="curve"/>
      <point x="411.8" y="524.5999999999999" type="line"/>
      <point x="367.7" y="539.9000000000001"/>
      <point x="310.6" y="551.0"/>
      <point x="246.39999999999995" y="551.0" type="curve" smooth="yes"/>
      <point x="104.8" y="551.0"/>
      <point x="31.7" y="492.5"/>
      <point x="31.7" y="381.50000000000006" type="curve" smooth="yes"/>
      <point x="31.7" y="297.69999999999993"/>
      <point x="80.8" y="248.6"/>
      <point x="172.9" y="226.90000000000003" type="curve" smooth="yes"/>
      <point x="261.59999999999997" y="205.6"/>
      <point x="309.5" y="190.79999999999998"/>
      <point x="309.5" y="148.10000000000002" type="curve" smooth="yes"/>
      <point x="309.5" y="109.4"/>
      <point x="281.09999999999997" y="89.80000000000003"/>
      <point x="217.0" y="89.80000000000003" type="curve" smooth="yes"/>
      <point x="160.4" y="89.80000000000003"/>
      <point x="83.9" y="101.8"/>
      <point x="37.300000000000004" y="118.7" type="curve"/>
    </contour>
  </outline>
</glyph>
<glyph name="t" format="2">
  <advance width="403.31"/>
  <unicode hex="0074"/>
  <anchor x="197.73" y="275.0" name="center"/>
  <anchor x="164.54000000000002" y="661.37" name="top"/>
  <anchor x="312.37" y="769.15" name="topright"/>
  <anchor x="231.32" y="0.0" name="bottom"/>
  <outline>
    <contour>
      <point x="247.68" y="-10.0" type="curve" smooth="yes"/>
      <point x="292.68" y="-10.0"/>
      <point x="342.33" y="-3.27"/>
      <point x="396.06" y="14.559999999999999" type="curve"/>
      <point x="377.84000000000003" y="116.45" type="line"/>
      <point x="346.69" y="108.1"/>
      <point x="319.70000000000005" y="102.9"/>
      <point x="293.28000000000003" y="102.9" type="curve" smooth="yes"/>
      <point x="244.38000000000002" y="102.9"/>
      <point x="222.65" y="125.84000000000002"/>
      <point x="222.65" y="186.72" type="curve" smooth="yes"/>
      <point x="222.65" y="443.39" type="line"/>
      <point x="375.96000000000004" y="443.39" type="line"/>
      <point x="375.96000000000004" y="541.0" type="line"/>
      <point x="222.65" y="541.0" type="line"/>
      <point x="222.65" y="661.37" type="line"/>
      <point x="106.16" y="661.37" type="line"/>
      <point x="89.9" y="541.0" type="line"/>
      <point x="6.85" y="532.1" type="line"/>
      <point x="6.85" y="443.72" type="line"/>
      <point x="89.9" y="443.72" type="line"/>
      <point x="89.9" y="176.38000000000002" type="line" smooth="yes"/>
      <point x="89.9" y="47.37"/>
      <point x="143.05" y="-10.0"/>
    </contour>
  </outline>
</glyph>
<glyph name="u" format="2">
  <advance width="573.64"/>
  <unicode hex="0075"/>
  <anchor x="570.4599999999999" y="12.64" name="ogonek"/>
  <anchor x="280.89000000000004" y="541.0" name="top"/>
  <anchor x="504.64000000000004" y="541.0" name="topright"/>
  <anchor x="287.34000000000003" y="0.0" name="bottom"/>
  <outline>
    <contour>
      <point x="207.04" y="-10.0" type="curve" smooth="yes"/>
      <point x="275.16999999999996" y="-10.0"/>
      <point x="329.28000000000003" y="11.54"/>
      <point x="387.90999999999997" y="45.96" type="curve"/>
      <point x="404.75" y="9.43"/>
      <point x="435.3" y="-10.0"/>
      <point x="480.28" y="-10.0" type="curve" smooth="yes"/>
      <point x="515.16" y="-10.0"/>
      <point x="547.78" y="-0.33999999999999986"/>
      <point x="570.4599999999999" y="12.64" type="curve"/>
      <point x="558.58" y="108.44" type="line"/>
      <point x="550.9300000000001" y="104.98"/>
      <point x="542.64" y="103.35000000000002"/>
      <point x="534.75" y="103.35000000000002" type="curve" smooth="yes"/>
      <point x="517.49" y="103.35000000000002"/>
      <point x="504.64000000000004" y="114.25"/>
      <point x="504.64000000000004" y="148.93" type="curve" smooth="yes"/>
      <point x="504.64000000000004" y="541.0" type="line"/>
      <point x="371.89" y="541.0" type="line"/>
      <point x="371.89" y="134.26" type="line"/>
      <point x="332.21999999999997" y="113.70000000000002"/>
      <point x="299.66999999999996" y="101.09"/>
      <point x="260.40999999999997" y="101.09" type="curve" smooth="yes"/>
      <point x="212.09" y="101.09"/>
      <point x="184.76999999999998" y="127.17999999999999"/>
      <point x="184.76999999999998" y="177.85" type="curve" smooth="yes"/>
      <point x="184.76999999999998" y="541.0" type="line"/>
      <point x="51.69" y="541.0" type="line"/>
      <point x="51.69" y="147.26999999999998" type="line" smooth="yes"/>
      <point x="51.69" y="40.7"/>
      <point x="113.29" y="-10.0"/>
    </contour>
  </outline>
</glyph>
<glyph name="v" format="2">
  <advance width="553.8100000000001"/>
  <unicode hex="0076"/>
  <outline>
    <contour>
      <point x="201.16" y="0.0" type="line"/>
      <point x="350.82" y="0.0" type="line"/>
      <point x="545.49" y="539.38" type="line"/>
      <point x="406.30999999999995" y="542.62" type="line"/>
      <point x="280.57" y="118.58000000000001" type="line"/>
      <point x="148.60000000000002" y="542.62" type="line"/>
      <point x="7.769999999999999" y="539.38" type="line"/>
    </contour>
  </outline>
</glyph>
<glyph name="w" format="2">
  <advance width="772.64"/>
  <unicode hex="0077"/>
  <anchor x="385.93" y="541.0" name="top"/>
  <anchor x="385.93" y="0.0" name="bottom"/>
  <outline>
    <contour>
      <point x="139.98" y="0.0" type="line"/>
      <point x="294.91" y="0.0" type="line"/>
      <point x="384.17" y="392.92" type="line"/>
      <point x="476.96000000000004" y="0.0" type="line"/>
      <point x="628.04" y="0.0" type="line"/>
      <point x="762.61" y="539.09" type="line"/>
      <point x="632.18" y="542.57" type="line"/>
      <point x="550.09" y="123.05000000000001" type="line"/>
      <point x="456.32" y="541.0" type="line"/>
      <point x="315.32" y="541.0" type="line"/>
      <point x="223.45000000000002" y="122.71000000000001" type="line"/>
      <point x="142.99" y="542.57" type="line"/>
      <point x="9.03" y="539.09" type="line"/>
    </contour>
  </outline>
</glyph>
<glyph name="x" format="2">
  <advance width="559.8199999999999"/>
  <unicode hex="0078"/>
  <outline>
    <contour>
      <point x="6.42" y="0.04000000000000001" type="line"/>
      <point x="163.28" y="-3.58" type="line"/>
      <point x="280.5" y="187.28" type="line"/>
      <point x="397.78" y="-3.58" type="line"/>
      <point x="553.56" y="0.04000000000000001" type="line"/>
      <point x="359.76" y="275.85999999999996" type="line"/>
      <point x="542.8399999999999" y="539.2400000000001" type="line"/>
      <point x="396.76" y="543.7599999999999" type="line"/>
      <point x="285.76" y="358.98" type="line"/>
      <point x="176.06" y="543.7" type="line"/>
      <point x="20.400000000000002" y="539.2" type="line"/>
      <point x="203.28" y="272.68" type="line"/>
    </contour>
  </outline>
</glyph>
<glyph name="y" format="2">
  <advance width="556.57"/>
  <unicode hex="0079"/>
  <anchor x="267.47" y="541.0" name="top"/>
  <anchor x="453.63000000000005" y="0.0" name="bottom"/>
  <outline>
    <contour>
      <point x="165.35999999999999" y="-208.74" type="line"/>
      <point x="301.34" y="-212.15999999999997" type="line"/>
      <point x="548.53" y="540.46" type="line"/>
      <point x="410.96999999999997" y="543.3399999999999" type="line"/>
      <point x="287.14" y="110.22000000000001" type="line"/>
      <point x="153.98" y="543.3399999999999" type="line"/>
      <point x="8.04" y="540.1" type="line"/>
      <point x="208.74999999999997" y="0.0" type="line"/>
      <point x="232.35999999999999" y="0.0" type="line"/>
    </contour>
  </outline>
</glyph>
<glyph name="z" format="2">
  <advance width="503.84"/>
  <unicode hex="007A"/>
  <anchor x="255.70000000000005" y="541.0" name="top"/>
  <outline>
    <contour>
      <point x="25.72" y="0.0" type="line"/>
      <point x="481.58000000000004" y="0.0" type="line"/>
      <point x="481.58000000000004" y="104.52000000000001" type="line"/>
      <point x="190.34000000000003" y="104.52000000000001" type="line"/>
      <point x="465.92" y="449.4" type="line"/>
      <point x="465.92" y="541.0" type="line"/>
      <point x="35.260000000000005" y="541.0" type="line"/>
      <point x="35.260000000000005" y="437.5" type="line"/>
      <point x="305.3" y="437.5" type="line"/>
      <point x="25.72" y="92.68" type="line"/>
    </contour>
  </outline>
</glyph>
<glyph name="braceleft" format="2">
  <advance width="325.13"/>
  <unicode hex="007B"/>
  <outline>
    <contour>
      <point x="77.07" y="-50.61" type="curve" smooth="yes"/>
      <point x="77.07" y="-154.42"/>
      <point x="134.53000000000003" y="-210.33"/>
      <point x="223.75" y="-210.33" type="curve" smooth="yes"/>
      <point x="296.22" y="-210.33" type="line"/>
      <point x="296.22" y="-117.72999999999999" type="line"/>
      <point x="256.75" y="-117.72999999999999" type="line" smooth="yes"/>
      <point x="207.85000000000002" y="-117.72999999999999"/>
      <point x="191.01" y="-81.72000000000001"/>
      <point x="191.01" y="-35.76" type="curve" smooth="yes"/>
      <point x="191.01" y="24.159999999999997"/>
      <point x="222.58" y="78.78"/>
      <point x="222.58" y="144.82" type="curve" smooth="yes"/>
      <point x="222.58" y="187.69"/>
      <point x="210.73999999999998" y="238.09"/>
      <point x="158.44" y="265.0" type="curve"/>
      <point x="210.56" y="293.43"/>
      <point x="222.58" y="341.62"/>
      <point x="222.58" y="384.49" type="curve" smooth="yes"/>
      <point x="222.58" y="449.36"/>
      <point x="191.01" y="503.0799999999999"/>
      <point x="191.01" y="565.07" type="curve" smooth="yes"/>
      <point x="191.01" y="611.03"/>
      <point x="207.85000000000002" y="647.4"/>
      <point x="256.75" y="647.4" type="curve" smooth="yes"/>
      <point x="296.22" y="647.4" type="line"/>
      <point x="296.22" y="740.0" type="line"/>
      <point x="223.75" y="740.0" type="line" smooth="yes"/>
      <point x="134.53000000000003" y="740.0"/>
      <point x="77.07" y="683.73"/>
      <point x="77.07" y="579.9200000000001" type="curve" smooth="yes"/>
      <point x="77.07" y="491.75"/>
      <point x="112.49000000000001" y="439.37999999999994"/>
      <point x="112.49000000000001" y="380.64" type="curve" smooth="yes"/>
      <point x="112.49000000000001" y="344.95"/>
      <point x="102.98" y="312.4"/>
      <point x="70.37" y="312.4" type="curve" smooth="yes"/>
      <point x="51.68" y="312.4" type="line"/>
      <point x="51.68" y="217.27" type="line"/>
      <point x="70.37" y="217.27" type="line" smooth="yes"/>
      <point x="102.98" y="217.27"/>
      <point x="112.49000000000001" y="184.63000000000002"/>
      <point x="112.49000000000001" y="148.67" type="curve" smooth="yes"/>
      <point x="112.49000000000001" y="89.48"/>
      <point x="77.07" y="35.31"/>
    </contour>
  </outline>
</glyph>
<glyph name="bar" format="2">
  <advance width="219.18"/>
  <unicode hex="007C"/>
  <outline>
    <contour>
      <point x="164.14" y="790.3299999999999" type="line"/>
      <point x="55.04" y="790.3299999999999" type="line"/>
      <point x="55.04" y="-210.0" type="line"/>
      <point x="164.14" y="-210.0" type="line"/>
    </contour>
  </outline>
</glyph>
<glyph name="braceright" format="2">
  <advance width="325.13"/>
  <unicode hex="007D"/>
  <outline>
    <contour>
      <point x="28.91" y="-117.72999999999999" type="line"/>
      <point x="28.91" y="-210.33" type="line"/>
      <point x="101.65" y="-210.33" type="line" smooth="yes"/>
      <point x="190.87" y="-210.33"/>
      <point x="248.32999999999998" y="-154.42"/>
      <point x="248.32999999999998" y="-50.61" type="curve" smooth="yes"/>
      <point x="248.32999999999998" y="35.31"/>
      <point x="212.91" y="89.48"/>
      <point x="212.91" y="148.67" type="curve" smooth="yes"/>
      <point x="212.91" y="184.63000000000002"/>
      <point x="222.42" y="217.27"/>
      <point x="255.03" y="217.27" type="curve" smooth="yes"/>
      <point x="273.45000000000005" y="217.27" type="line"/>
      <point x="273.45000000000005" y="312.4" type="line"/>
      <point x="255.03" y="312.4" type="line" smooth="yes"/>
      <point x="222.15" y="312.4"/>
      <point x="212.91" y="344.95"/>
      <point x="212.91" y="380.64" type="curve" smooth="yes"/>
      <point x="212.91" y="439.37999999999994"/>
      <point x="248.32999999999998" y="491.75"/>
      <point x="248.32999999999998" y="579.9200000000001" type="curve" smooth="yes"/>
      <point x="248.32999999999998" y="683.73"/>
      <point x="190.87" y="740.0"/>
      <point x="101.65" y="740.0" type="curve" smooth="yes"/>
      <point x="28.91" y="740.0" type="line"/>
      <point x="28.91" y="647.4" type="line"/>
      <point x="63.04" y="647.4" type="line" smooth="yes"/>
      <point x="111.66999999999999" y="647.4"/>
      <point x="128.78" y="611.03"/>
      <point x="128.78" y="565.07" type="curve" smooth="yes"/>
      <point x="128.78" y="503.0799999999999"/>
      <point x="97.21000000000001" y="449.36"/>
      <point x="97.21000000000001" y="384.49" type="curve" smooth="yes"/>
      <point x="97.21000000000001" y="341.62"/>
      <point x="108.96000000000001" y="293.43"/>
      <point x="161.35" y="265.0" type="curve"/>
      <point x="108.78000000000002" y="238.09"/>
      <point x="97.21000000000001" y="187.69"/>
      <point x="97.21000000000001" y="144.82" type="curve" smooth="yes"/>
      <point x="97.21000000000001" y="78.78"/>
      <point x="128.78" y="24.159999999999997"/>
      <point x="128.78" y="-35.76" type="curve" smooth="yes"/>
      <point x="128.78" y="-81.72000000000001"/>
      <point x="111.66999999999999" y="-117.72999999999999"/>
      <point x="63.04" y="-117.72999999999999" type="curve" smooth="yes"/>
    </contour>
  </outline>
</glyph>
<glyph name="asciitilde" format="2">
  <advance width="511.34000000000003"/>
  <unicode hex="007E"/>
  <outline>
    <contour>
      <point x="452.90000000000003" y="242.28" type="curve"/>
      <point x="452.90000000000003" y="350.15000000000003" type="line"/>
      <point x="428.01" y="325.22999999999996"/>
      <point x="400.98" y="311.90000000000003"/>
      <point x="365.86" y="311.90000000000003" type="curve" smooth="yes"/>
      <point x="276.03" y="311.90000000000003"/>
      <point x="230.66" y="402.53"/>
      <point x="148.93" y="402.53" type="curve" smooth="yes"/>
      <point x="102.23" y="402.53"/>
      <point x="71.99" y="380.19"/>
      <point x="58.93" y="366.71" type="curve"/>
      <point x="58.93" y="258.65999999999997" type="line"/>
      <point x="77.93" y="276.28999999999996"/>
      <point x="105.42999999999999" y="295.84999999999997"/>
      <point x="146.60000000000002" y="295.84999999999997" type="curve" smooth="yes"/>
      <point x="226.34" y="295.84999999999997"/>
      <point x="274.62" y="205.0"/>
      <point x="366.17" y="205.0" type="curve" smooth="yes"/>
      <point x="401.4" y="205.0"/>
      <point x="430.01" y="219.23"/>
    </contour>
  </outline>
</glyph>
<glyph name="exclamdown" format="2">
  <advance width="243.06000000000003"/>
  <unicode hex="00A1"/>
  <outline>
    <contour>
      <point x="179.82" y="279.53" type="line"/>
      <point x="65.44000000000001" y="279.53" type="line"/>
      <point x="55.76" y="-199.22" type="line"/>
      <point x="188.51000000000002" y="-199.22" type="line"/>
    </contour>
    <contour>
      <point x="194.92000000000002" y="475.16" type="curve" smooth="yes"/>
      <point x="194.92000000000002" y="524.6"/>
      <point x="175.6" y="546.5"/>
      <point x="121.53000000000002" y="546.5" type="curve" smooth="yes"/>
      <point x="67.91" y="546.5"/>
      <point x="48.14" y="524.6"/>
      <point x="48.14" y="475.16" type="curve" smooth="yes"/>
      <point x="48.14" y="425.17"/>
      <point x="67.46000000000001" y="403.27"/>
      <point x="121.53000000000002" y="403.27" type="curve" smooth="yes"/>
      <point x="175.6" y="403.27"/>
      <point x="194.92000000000002" y="425.17"/>
    </contour>
  </outline>
</glyph>
<glyph name="cent" format="2">
  <advance width="623.22"/>
  <unicode hex="00A2"/>
  <outline>
    <contour>
      <point x="333.99" y="-10.33" type="curve" smooth="yes"/>
      <point x="400.09" y="-10.33"/>
      <point x="472.73" y="-1.1499999999999995"/>
      <point x="527.2900000000001" y="14.650000000000004" type="curve"/>
      <point x="506.9" y="120.3" type="line"/>
      <point x="458.80000000000007" y="109.79000000000002"/>
      <point x="410.03999999999996" y="104.33000000000001"/>
      <point x="365.77" y="104.33000000000001" type="curve" smooth="yes"/>
      <point x="277.71" y="104.33000000000001"/>
      <point x="229.61" y="156.0"/>
      <point x="229.61" y="263.36" type="curve" smooth="yes"/>
      <point x="229.61" y="380.38"/>
      <point x="278.51000000000005" y="435.24"/>
      <point x="367.5" y="435.24" type="curve" smooth="yes"/>
      <point x="413.47" y="435.24"/>
      <point x="452.5" y="430.0"/>
      <point x="498.7999999999999" y="419.42" type="curve"/>
      <point x="517.48" y="530.24" type="line"/>
      <point x="467.74" y="542.8699999999999"/>
      <point x="415.14" y="551.66"/>
      <point x="347.81" y="551.66" type="curve" smooth="yes"/>
      <point x="167.98" y="551.66"/>
      <point x="95.43" y="430.90000000000003"/>
      <point x="95.43" y="260.06000000000006" type="curve" smooth="yes"/>
      <point x="95.43" y="81.36000000000001"/>
      <point x="176.44" y="-10.33"/>
    </contour>
    <contour>
      <point x="273.74" y="-105.33" type="line"/>
      <point x="380.09000000000003" y="-105.33" type="line"/>
      <point x="380.09000000000003" y="4.310000000000001" type="line"/>
      <point x="273.74" y="9.23" type="line"/>
    </contour>
    <contour>
      <point x="273.74" y="529.5600000000001" type="line"/>
      <point x="380.09000000000003" y="538.08" type="line"/>
      <point x="380.09000000000003" y="645.6700000000001" type="line"/>
      <point x="273.74" y="645.6700000000001" type="line"/>
    </contour>
  </outline>
</glyph>
<glyph name="sterling" format="2">
  <advance width="624.3"/>
  <unicode hex="00A3"/>
  <outline>
    <contour>
      <point x="77.4" y="0.0" type="line"/>
      <point x="561.72" y="0.0" type="line"/>
      <point x="561.72" y="106.70000000000002" type="line"/>
      <point x="230.70000000000002" y="106.70000000000002" type="line"/>
      <point x="280.41999999999996" y="154.66000000000003"/>
      <point x="311.28000000000003" y="197.92"/>
      <point x="311.28000000000003" y="260.06000000000006" type="curve" smooth="yes"/>
      <point x="311.28000000000003" y="340.71999999999997"/>
      <point x="249.60000000000002" y="401.22"/>
      <point x="249.60000000000002" y="477.9" type="curve" smooth="yes"/>
      <point x="249.60000000000002" y="560.42"/>
      <point x="305.8" y="593.5"/>
      <point x="380.1000000000001" y="593.5" type="curve" smooth="yes"/>
      <point x="430.64" y="593.5"/>
      <point x="488.08" y="585.6400000000001"/>
      <point x="531.6600000000001" y="573.5999999999999" type="curve"/>
      <point x="550.8799999999999" y="677.3399999999999" type="line"/>
      <point x="498.71999999999997" y="697.9"/>
      <point x="428.0400000000001" y="710.0"/>
      <point x="360.40000000000003" y="710.0" type="curve" smooth="yes"/>
      <point x="198.08" y="710.0"/>
      <point x="111.22" y="634.0600000000001"/>
      <point x="111.22" y="516.16" type="curve" smooth="yes"/>
      <point x="111.22" y="401.25999999999993"/>
      <point x="182.8" y="347.76"/>
      <point x="182.8" y="253.48" type="curve" smooth="yes"/>
      <point x="182.8" y="193.14"/>
      <point x="152.98000000000002" y="151.26"/>
      <point x="77.4" y="85.8" type="curve"/>
    </contour>
    <contour>
      <point x="68.82000000000001" y="307.03999999999996" type="line"/>
      <point x="481.28" y="307.03999999999996" type="line"/>
      <point x="481.28" y="395.23999999999995" type="line"/>
      <point x="68.82000000000001" y="395.23999999999995" type="line"/>
    </contour>
  </outline>
</glyph>
<glyph name="currency" format="2">
  <advance width="468.95"/>
  <unicode hex="00A4"/>
  <outline>
    <contour>
      <point x="39.01" y="422.84" type="line"/>
      <point x="99.59" y="361.26" type="line"/>
      <point x="88.84" y="342.88"/>
      <point x="82.23" y="321.13"/>
      <point x="82.23" y="297.14" type="curve" smooth="yes"/>
      <point x="82.23" y="272.6"/>
      <point x="88.84" y="249.97"/>
      <point x="100.59" y="231.26" type="curve"/>
      <point x="39.01" y="169.67999999999998" type="line"/>
      <point x="108.12" y="100.57" type="line"/>
      <point x="176.41000000000003" y="168.64" type="line"/>
      <point x="192.59" y="158.54"/>
      <point x="212.8" y="153.59"/>
      <point x="234.58" y="153.59" type="curve" smooth="yes"/>
      <point x="256.14" y="153.59"/>
      <point x="276.03" y="158.76"/>
      <point x="292.32" y="168.53" type="curve"/>
      <point x="360.83000000000004" y="100.57" type="line"/>
      <point x="429.94" y="169.67999999999998" type="line"/>
      <point x="368.58" y="230.70999999999998" type="line"/>
      <point x="380.21999999999997" y="249.86"/>
      <point x="387.15999999999997" y="272.38"/>
      <point x="387.15999999999997" y="297.14" type="curve" smooth="yes"/>
      <point x="387.15999999999997" y="321.02000000000004"/>
      <point x="380.44" y="342.99"/>
      <point x="368.91" y="361.81" type="curve"/>
      <point x="429.94" y="422.84" type="line"/>
      <point x="360.83000000000004" y="491.95" type="line"/>
      <point x="293.64" y="424.76" type="line"/>
      <point x="277.02000000000004" y="434.75"/>
      <point x="256.92" y="440.7"/>
      <point x="234.58" y="440.7" type="curve" smooth="yes"/>
      <point x="211.69" y="440.7"/>
      <point x="191.48000000000002" y="434.42"/>
      <point x="174.64000000000001" y="424.65" type="curve"/>
      <point x="108.12" y="491.95" type="line"/>
    </contour>
    <contour>
      <point x="234.36" y="229.14000000000001" type="curve" smooth="yes"/>
      <point x="195.79" y="229.14000000000001"/>
      <point x="166.69" y="258.02000000000004"/>
      <point x="166.69" y="296.81" type="curve" smooth="yes"/>
      <point x="166.69" y="334.73"/>
      <point x="195.57" y="364.82"/>
      <point x="234.36" y="364.82" type="curve" smooth="yes"/>
      <point x="273.6" y="364.82"/>
      <point x="302.70000000000005" y="334.73"/>
      <point x="302.70000000000005" y="296.81" type="curve" smooth="yes"/>
      <point x="302.70000000000005" y="258.02000000000004"/>
      <point x="273.38" y="229.14000000000001"/>
    </contour>
  </outline>
</glyph>
<glyph name="yen" format="2">
  <advance width="630.5"/>
  <unicode hex="00A5"/>
  <outline>
    <contour>
      <point x="82.6" y="314.7" type="line"/>
      <point x="251.29999999999998" y="314.7" type="line"/>
      <point x="251.29999999999998" y="259.0" type="line"/>
      <point x="82.6" y="259.0" type="line"/>
      <point x="82.6" y="186.9" type="line"/>
      <point x="251.29999999999998" y="186.9" type="line"/>
      <point x="251.29999999999998" y="0.0" type="line"/>
      <point x="384.9" y="0.0" type="line"/>
      <point x="384.9" y="186.9" type="line"/>
      <point x="555.4000000000001" y="186.9" type="line"/>
      <point x="555.4000000000001" y="259.0" type="line"/>
      <point x="384.9" y="259.0" type="line"/>
      <point x="384.9" y="314.7" type="line"/>
      <point x="555.4000000000001" y="314.7" type="line"/>
      <point x="555.4000000000001" y="386.8" type="line"/>
      <point x="384.9" y="386.8" type="line"/>
      <point x="587.1000000000001" y="697.9999999999999" type="line"/>
      <point x="446.40000000000003" y="702.9000000000001" type="line"/>
      <point x="317.70000000000005" y="467.40000000000003" type="line"/>
      <point x="185.0" y="702.9000000000001" type="line"/>
      <point x="44.3" y="697.9999999999999" type="line"/>
      <point x="251.29999999999998" y="386.8" type="line"/>
      <point x="82.6" y="386.8" type="line"/>
    </contour>
  </outline>
</glyph>
<glyph name="brokenbar" format="2">
  <advance width="218.85000000000002"/>
  <unicode hex="00A6"/>
  <outline>
    <contour>
      <point x="163.81" y="391.0" type="line"/>
      <point x="163.81" y="790.3299999999999" type="line"/>
      <point x="55.04" y="790.3299999999999" type="line"/>
      <point x="55.04" y="391.0" type="line"/>
    </contour>
    <contour>
      <point x="55.04" y="190.33" type="line"/>
      <point x="55.04" y="-210.0" type="line"/>
      <point x="163.81" y="-210.0" type="line"/>
      <point x="163.81" y="190.33" type="line"/>
    </contour>
  </outline>
</glyph>
<glyph name="section" format="2">
  <advance width="545.12"/>
  <unicode hex="00A7"/>
  <outline>
    <contour>
      <point x="232.08" y="-220.96" type="curve" smooth="yes"/>
      <point x="381.32" y="-220.96"/>
      <point x="499.64000000000004" y="-104.56"/>
      <point x="499.64000000000004" y="64.69999999999999" type="curve" smooth="yes"/>
      <point x="499.64000000000004" y="148.20000000000002"/>
      <point x="475.65999999999997" y="232.4"/>
      <point x="403.78000000000003" y="372.78000000000003" type="curve" smooth="yes"/>
      <point x="349.67999999999995" y="485.5"/>
      <point x="332.38" y="522.7600000000001"/>
      <point x="332.38" y="557.02" type="curve" smooth="yes"/>
      <point x="332.38" y="598.54"/>
      <point x="356.74" y="623.7399999999999"/>
      <point x="398.56000000000006" y="623.7399999999999" type="curve" smooth="yes"/>
      <point x="414.24" y="623.7399999999999"/>
      <point x="431.6" y="620.8399999999999"/>
      <point x="453.78" y="612.0799999999999" type="curve"/>
      <point x="476.14000000000004" y="725.7800000000001" type="line"/>
      <point x="432.73999999999995" y="741.9200000000001"/>
      <point x="384.79999999999995" y="749.9999999999999"/>
      <point x="337.11999999999995" y="749.9999999999999" type="curve" smooth="yes"/>
      <point x="153.5" y="749.9999999999999"/>
      <point x="46.12" y="643.72"/>
      <point x="48.34" y="472.20000000000005" type="curve" smooth="yes"/>
      <point x="49.42" y="384.16"/>
      <point x="70.04" y="304.34000000000003"/>
      <point x="144.48000000000002" y="159.1" type="curve" smooth="yes"/>
      <point x="193.21999999999997" y="54.98"/>
      <point x="216.14" y="13.620000000000005"/>
      <point x="216.14" y="-30.279999999999998" type="curve" smooth="yes"/>
      <point x="216.14" y="-70.08"/>
      <point x="189.67999999999998" y="-94.08"/>
      <point x="147.38000000000002" y="-94.08" type="curve" smooth="yes"/>
      <point x="119.18" y="-94.08"/>
      <point x="96.48" y="-85.5"/>
      <point x="62.820000000000014" y="-62.819999999999986" type="curve"/>
      <point x="37.54" y="-173.26" type="line"/>
      <point x="98.75999999999999" y="-206.12"/>
      <point x="157.58" y="-220.96"/>
    </contour>
    <contour>
      <point x="230.84" y="-144.08" type="curve" smooth="yes"/>
      <point x="205.16" y="-144.08"/>
      <point x="182.84" y="-140.01999999999998"/>
      <point x="162.5" y="-130.66" type="curve"/>
      <point x="192.68" y="-151.54" type="line"/>
      <point x="268.24" y="-153.46"/>
      <point x="315.64" y="-99.99999999999999"/>
      <point x="315.64" y="-29.99999999999999" type="curve" smooth="yes"/>
      <point x="315.64" y="21.500000000000007"/>
      <point x="297.24" y="80.0"/>
      <point x="237.52" y="201.5" type="curve" smooth="yes"/>
      <point x="170.01999999999998" y="339.56"/>
      <point x="147.16" y="409.26000000000005"/>
      <point x="147.16" y="494.50000000000006" type="curve" smooth="yes"/>
      <point x="147.16" y="600.72"/>
      <point x="198.81999999999996" y="653.8399999999999"/>
      <point x="274.28000000000003" y="653.8399999999999" type="curve" smooth="yes"/>
      <point x="294.16" y="653.8399999999999"/>
      <point x="305.84" y="651.4999999999999"/>
      <point x="325.00000000000006" y="645.4399999999999" type="curve"/>
      <point x="303.96000000000004" y="666.4400000000002" type="line"/>
      <point x="257.84000000000003" y="663.28"/>
      <point x="234.03999999999996" y="607.2"/>
      <point x="233.14" y="562.26" type="curve" smooth="yes"/>
      <point x="233.14" y="508.03999999999996"/>
      <point x="249.20000000000002" y="460.56"/>
      <point x="308.76" y="337.18" type="curve" smooth="yes"/>
      <point x="381.00000000000006" y="185.11999999999998"/>
      <point x="402.6000000000001" y="121.28"/>
      <point x="402.6000000000001" y="47.86" type="curve" smooth="yes"/>
      <point x="402.6" y="-53.85999999999999"/>
      <point x="348.08" y="-144.08"/>
    </contour>
  </outline>
</glyph>
<glyph name="copyright" format="2">
  <advance width="709.0400000000001"/>
  <unicode hex="00A9"/>
  <outline>
    <contour>
      <point x="354.70000000000005" y="40.06" type="curve" smooth="yes"/>
      <point x="190.95000000000002" y="40.06"/>
      <point x="98.53" y="142.98000000000002"/>
      <point x="98.53" y="349.89" type="curve" smooth="yes"/>
      <point x="98.53" y="557.51"/>
      <point x="191.35" y="658.88"/>
      <point x="354.70000000000005" y="658.88" type="curve" smooth="yes"/>
      <point x="518.68" y="658.88"/>
      <point x="610.18" y="557.51"/>
      <point x="610.18" y="349.89" type="curve" smooth="yes"/>
      <point x="610.18" y="142.98000000000002"/>
      <point x="519.0799999999999" y="40.06"/>
    </contour>
    <contour>
      <point x="354.70000000000005" y="710.0" type="curve" smooth="yes"/>
      <point x="160.07999999999998" y="710.0"/>
      <point x="43.5" y="584.4399999999999"/>
      <point x="43.5" y="349.89" type="curve" smooth="yes"/>
      <point x="43.5" y="116.01999999999998"/>
      <point x="159.60000000000002" y="-10.0"/>
      <point x="354.70000000000005" y="-10.0" type="curve" smooth="yes"/>
      <point x="549.44" y="-10.0"/>
      <point x="665.54" y="116.01999999999998"/>
      <point x="665.54" y="349.89" type="curve" smooth="yes"/>
      <point x="665.54" y="584.4399999999999"/>
      <point x="549.3199999999999" y="710.0"/>
    </contour>
    <contour>
      <point x="200.58" y="343.92" type="curve" smooth="yes"/>
      <point x="200.58" y="207.95000000000005"/>
      <point x="264.02" y="149.68"/>
      <point x="359.91" y="149.68" type="curve" smooth="yes"/>
      <point x="406.32" y="149.68"/>
      <point x="452.19" y="158.15000000000003"/>
      <point x="485.75" y="172.53" type="curve"/>
      <point x="471.88000000000005" y="245.96" type="line"/>
      <point x="446.5199999999999" y="238.42"/>
      <point x="410.97" y="231.13"/>
      <point x="375.26000000000005" y="231.13" type="curve" smooth="yes"/>
      <point x="319.71999999999997" y="231.13"/>
      <point x="296.21000000000004" y="264.86"/>
      <point x="296.21000000000004" y="343.24999999999994" type="curve" smooth="yes"/>
      <point x="296.21000000000004" y="437.43999999999994"/>
      <point x="325.32" y="468.24000000000007"/>
      <point x="382.25" y="468.24000000000007" type="curve" smooth="yes"/>
      <point x="408.86000000000007" y="468.24000000000007"/>
      <point x="441.42" y="462.22"/>
      <point x="465.68" y="455.37" type="curve"/>
      <point x="481.4200000000001" y="529.12" type="line"/>
      <point x="449.43" y="543.7599999999999"/>
      <point x="408.05" y="550.13"/>
      <point x="368.48999999999995" y="550.13" type="curve" smooth="yes"/>
      <point x="271.16" y="550.13"/>
      <point x="200.58" y="496.26"/>
    </contour>
  </outline>
</glyph>
<glyph name="ordfeminine" format="2">
  <advance width="382.03"/>
  <unicode hex="00AA"/>
  <outline>
    <contour>
      <point x="42.730000000000004" y="241.58999999999997" type="line"/>
      <point x="352.04" y="241.58999999999997" type="line"/>
      <point x="352.04" y="311.59" type="line"/>
      <point x="42.730000000000004" y="311.59" type="line"/>
    </contour>
    <component base="a.superior" xOffset="10.34"/>
  </outline>
</glyph>
<glyph name="logicalnot" format="2">
  <advance width="511.34000000000003"/>
  <unicode hex="00AC"/>
  <outline>
    <contour>
      <point x="50.010000000000005" y="329.33" type="line"/>
      <point x="354.70000000000005" y="329.33" type="line"/>
      <point x="354.70000000000005" y="172.16" type="line"/>
      <point x="461.6" y="172.16" type="line"/>
      <point x="461.6" y="436.22999999999996" type="line"/>
      <point x="50.010000000000005" y="436.22999999999996" type="line"/>
    </contour>
  </outline>
</glyph>
<glyph name="registered" format="2">
  <advance width="679.34"/>
  <unicode hex="00AE"/>
  <outline>
    <contour>
      <point x="336.24" y="207.45" type="curve" smooth="yes"/>
      <point x="525.4499999999999" y="207.45"/>
      <point x="635.8399999999999" y="325.92"/>
      <point x="635.8399999999999" y="550.18" type="curve" smooth="yes"/>
      <point x="635.8399999999999" y="773.25"/>
      <point x="525.63" y="892.91"/>
      <point x="336.24" y="892.91" type="curve" smooth="yes"/>
      <point x="151.59999999999997" y="892.91"/>
      <point x="43.5" y="773.25"/>
      <point x="43.5" y="550.18" type="curve" smooth="yes"/>
      <point x="43.5" y="328.10999999999996"/>
      <point x="150.87" y="207.45"/>
    </contour>
    <contour>
      <point x="336.24" y="254.9" type="curve" smooth="yes"/>
      <point x="181.07" y="254.9"/>
      <point x="95.79" y="353.89000000000004"/>
      <point x="95.79" y="550.18" type="curve" smooth="yes"/>
      <point x="95.79" y="747.29"/>
      <point x="180.89000000000001" y="844.0"/>
      <point x="336.24" y="844.0" type="curve" smooth="yes"/>
      <point x="496.90000000000003" y="844.0"/>
      <point x="583.27" y="747.47"/>
      <point x="583.27" y="550.18" type="curve" smooth="yes"/>
      <point x="583.27" y="353.15999999999997"/>
      <point x="496.35" y="254.9"/>
    </contour>
    <contour>
      <point x="488.01000000000005" y="374.65" type="curve" smooth="yes"/>
      <point x="491.93" y="374.65"/>
      <point x="496.22" y="374.65"/>
      <point x="500.13" y="374.92" type="curve"/>
      <point x="499.32" y="455.31" type="line"/>
      <point x="498.05" y="455.04"/>
      <point x="496.14" y="455.04"/>
      <point x="494.14000000000004" y="455.04" type="curve" smooth="yes"/>
      <point x="469.03000000000003" y="455.41"/>
      <point x="442.43" y="481.44"/>
      <point x="416.44000000000005" y="524.26" type="curve"/>
      <point x="461.33000000000004" y="536.0799999999999"/>
      <point x="485.80999999999995" y="572.0400000000001"/>
      <point x="485.80999999999995" y="629.26" type="curve" smooth="yes"/>
      <point x="485.80999999999995" y="705.35"/>
      <point x="442.19000000000005" y="738.1500000000001"/>
      <point x="336.27000000000004" y="738.1500000000001" type="curve" smooth="yes"/>
      <point x="302.11" y="738.1500000000001"/>
      <point x="259.63999999999993" y="736.3299999999998"/>
      <point x="203.53000000000003" y="732.6900000000002" type="curve"/>
      <point x="203.53000000000003" y="378.12" type="line"/>
      <point x="287.81" y="378.12" type="line"/>
      <point x="287.81" y="499.94" type="line"/>
      <point x="299.28000000000003" y="499.67"/>
      <point x="308.77000000000004" y="499.04"/>
      <point x="319.07000000000005" y="499.04" type="curve" smooth="yes"/>
      <point x="324.34" y="499.04"/>
      <point x="328.69000000000005" y="499.04"/>
      <point x="333.4100000000001" y="499.31" type="curve"/>
      <point x="384.67" y="401.13"/>
      <point x="435.36999999999995" y="375.2"/>
    </contour>
    <contour>
      <point x="328.76000000000005" y="554.1699999999998" type="curve" smooth="yes"/>
      <point x="316.54" y="554.1699999999998"/>
      <point x="305.85999999999996" y="554.35"/>
      <point x="287.81" y="555.17" type="curve"/>
      <point x="287.81" y="668.12" type="line"/>
      <point x="311.87000000000006" y="670.3"/>
      <point x="319.31000000000006" y="670.5699999999999"/>
      <point x="337.99000000000007" y="670.5699999999999" type="curve" smooth="yes"/>
      <point x="389.35999999999996" y="670.5699999999999"/>
      <point x="399.15" y="652.52"/>
      <point x="399.15" y="617.56" type="curve" smooth="yes"/>
      <point x="399.15" y="572.4"/>
      <point x="385.0400000000001" y="554.1699999999998"/>
    </contour>
  </outline>
</glyph>
<glyph name="degree" format="2">
  <advance width="322.70000000000005"/>
  <unicode hex="00B0"/>
  <outline>
    <contour>
      <point x="161.08" y="425.40000000000003" type="curve" smooth="yes"/>
      <point x="249.73000000000002" y="425.40000000000003"/>
      <point x="294.24" y="493.03"/>
      <point x="294.24" y="571.3" type="curve" smooth="yes"/>
      <point x="294.24" y="645.9"/>
      <point x="253.51000000000002" y="718.1"/>
      <point x="161.08" y="718.1" type="curve" smooth="yes"/>
      <point x="68.28999999999999" y="718.1"/>
      <point x="28.46" y="645.9"/>
      <point x="28.46" y="571.3" type="curve" smooth="yes"/>
      <point x="28.46" y="493.03"/>
      <point x="72.43" y="425.40000000000003"/>
    </contour>
    <contour>
      <point x="161.08" y="510.65999999999997" type="curve" smooth="yes"/>
      <point x="131.32999999999998" y="510.65999999999997"/>
      <point x="113.72000000000001" y="536.09"/>
      <point x="113.72000000000001" y="570.93" type="curve" smooth="yes"/>
      <point x="113.72000000000001" y="604.31"/>
      <point x="130.56" y="631.0"/>
      <point x="161.08" y="631.0" type="curve" smooth="yes"/>
      <point x="191.24" y="631.0"/>
      <point x="209.34" y="604.31"/>
      <point x="209.34" y="570.93" type="curve" smooth="yes"/>
      <point x="209.34" y="536.09"/>
      <point x="190.82999999999998" y="510.65999999999997"/>
    </contour>
  </outline>
</glyph>
<glyph name="plusminus" format="2">
  <advance width="519.98"/>
  <unicode hex="00B1"/>
  <outline>
    <contour>
      <point x="48.93" y="32.18" type="line"/>
      <point x="471.05" y="32.18" type="line"/>
      <point x="471.05" y="139.08" type="line"/>
      <point x="317.73" y="139.08" type="line"/>
      <point x="317.73" y="281.60999999999996" type="line"/>
      <point x="471.05" y="281.60999999999996" type="line"/>
      <point x="471.05" y="388.51" type="line"/>
      <point x="317.73" y="388.51" type="line"/>
      <point x="317.73" y="532.65" type="line"/>
      <point x="202.02999999999997" y="532.65" type="line"/>
      <point x="202.02999999999997" y="388.51" type="line"/>
      <point x="48.93" y="388.51" type="line"/>
      <point x="48.93" y="281.60999999999996" type="line"/>
      <point x="202.02999999999997" y="281.60999999999996" type="line"/>
      <point x="202.02999999999997" y="139.08" type="line"/>
      <point x="48.93" y="139.08" type="line"/>
    </contour>
  </outline>
</glyph>
<glyph name="uni00B2" format="2">
  <advance width="399.53000000000003"/>
  <unicode hex="00B2"/>
  <outline>
    <contour>
      <point x="47.81999999999999" y="370.0" type="line"/>
      <point x="357.09000000000003" y="370.0" type="line"/>
      <point x="357.09000000000003" y="434.73" type="line"/>
      <point x="179.16" y="434.73" type="line"/>
      <point x="292.57" y="535.98"/>
      <point x="320.69000000000005" y="586.78"/>
      <point x="320.69000000000005" y="649.66" type="curve" smooth="yes"/>
      <point x="320.69000000000005" y="728.34"/>
      <point x="268.8" y="773.9300000000001"/>
      <point x="182.70000000000002" y="773.9300000000001" type="curve" smooth="yes"/>
      <point x="135.15" y="773.9300000000001"/>
      <point x="82.97" y="760.59"/>
      <point x="44.87" y="736.0" type="curve"/>
      <point x="72.09" y="667.58" type="line"/>
      <point x="106.07999999999998" y="686.6999999999999"/>
      <point x="132.43" y="693.15"/>
      <point x="161.39" y="693.15" type="curve" smooth="yes"/>
      <point x="200.36" y="693.15"/>
      <point x="222.69" y="668.15"/>
      <point x="222.69" y="630.67" type="curve" smooth="yes"/>
      <point x="222.69" y="582.06"/>
      <point x="173.81" y="522.76"/>
      <point x="46.46999999999999" y="427.89" type="curve"/>
    </contour>
  </outline>
</glyph>
<glyph name="uni00B3" format="2">
  <advance width="397.53999999999996"/>
  <unicode hex="00B3"/>
  <outline>
    <contour>
      <point x="28.4" y="394.06" type="line"/>
      <point x="76.63000000000001" y="370.87"/>
      <point x="124.24" y="362.64"/>
      <point x="182.64999999999998" y="362.64" type="curve" smooth="yes"/>
      <point x="292.02000000000004" y="362.64"/>
      <point x="361.89" y="405.47"/>
      <point x="361.89" y="485.84999999999997" type="curve" smooth="yes"/>
      <point x="361.89" y="533.95"/>
      <point x="335.33000000000004" y="567.06"/>
      <point x="282.58000000000004" y="581.12" type="curve"/>
      <point x="321.8" y="594.7900000000001"/>
      <point x="346.88000000000005" y="628.29"/>
      <point x="346.88000000000005" y="671.1300000000001" type="curve" smooth="yes"/>
      <point x="346.88000000000005" y="734.54"/>
      <point x="292.23999999999995" y="774.41"/>
      <point x="186.06" y="774.41" type="curve" smooth="yes"/>
      <point x="122.33" y="774.41"/>
      <point x="69.87" y="763.8100000000001"/>
      <point x="39.07" y="748.4100000000001" type="curve"/>
      <point x="60.03" y="685.88" type="line"/>
      <point x="74.67" y="692.18"/>
      <point x="104.38" y="701.68"/>
      <point x="162.68000000000004" y="701.68" type="curve" smooth="yes"/>
      <point x="218.23000000000002" y="701.68"/>
      <point x="256.29999999999995" y="682.1"/>
      <point x="256.29999999999995" y="649.8" type="curve" smooth="yes"/>
      <point x="256.29999999999995" y="621.24"/>
      <point x="235.2" y="602.24"/>
      <point x="191.46" y="602.24" type="curve" smooth="yes"/>
      <point x="110.91000000000001" y="602.24" type="line"/>
      <point x="110.91000000000001" y="542.86" type="line"/>
      <point x="184.45999999999998" y="542.86" type="line" smooth="yes"/>
      <point x="247.87" y="542.86"/>
      <point x="268.02000000000004" y="524.76"/>
      <point x="268.02000000000004" y="492.45" type="curve" smooth="yes"/>
      <point x="268.02000000000004" y="453.97"/>
      <point x="234.74" y="430.94"/>
      <point x="171.82" y="430.94" type="curve" smooth="yes"/>
      <point x="113.81" y="430.94"/>
      <point x="83.11" y="438.19000000000005"/>
      <point x="52.53" y="454.29999999999995" type="curve"/>
    </contour>
  </outline>
</glyph>
<glyph name="uni00B5" format="2">
  <advance width="574.3000000000001"/>
  <unicode hex="00B5"/>
  <outline>
    <contour>
      <point x="52.349999999999994" y="-210.0" type="line"/>
      <point x="182.13000000000002" y="-210.0" type="line"/>
      <point x="182.13000000000002" y="17.729999999999997" type="line"/>
      <point x="196.33000000000004" y="-0.1800000000000006"/>
      <point x="219.47" y="-9.34"/>
      <point x="250.93" y="-9.34" type="curve" smooth="yes"/>
      <point x="304.76" y="-9.34"/>
      <point x="347.87" y="11.54"/>
      <point x="392.2" y="42.0" type="curve"/>
      <point x="408.71000000000004" y="7.779999999999999"/>
      <point x="433.32000000000005" y="-10.0"/>
      <point x="480.93999999999994" y="-10.0" type="curve" smooth="yes"/>
      <point x="515.82" y="-10.0"/>
      <point x="548.44" y="-0.33999999999999986"/>
      <point x="571.1200000000001" y="12.64" type="curve"/>
      <point x="559.24" y="104.81" type="line"/>
      <point x="551.5899999999999" y="101.35"/>
      <point x="543.3000000000001" y="99.72000000000001"/>
      <point x="535.41" y="99.72000000000001" type="curve" smooth="yes"/>
      <point x="518.15" y="99.72000000000001"/>
      <point x="505.30000000000007" y="110.61999999999999"/>
      <point x="505.30000000000007" y="145.29999999999998" type="curve" smooth="yes"/>
      <point x="505.30000000000007" y="541.0" type="line"/>
      <point x="372.55000000000007" y="541.0" type="line"/>
      <point x="372.55000000000007" y="132.61" type="line"/>
      <point x="332.88" y="112.05000000000001"/>
      <point x="300.33" y="99.44"/>
      <point x="261.07" y="99.44" type="curve" smooth="yes"/>
      <point x="212.74999999999997" y="99.44"/>
      <point x="185.43" y="125.53"/>
      <point x="185.43" y="176.2" type="curve" smooth="yes"/>
      <point x="185.43" y="541.0" type="line"/>
      <point x="52.349999999999994" y="541.0" type="line"/>
    </contour>
  </outline>
</glyph>
<glyph name="paragraph" format="2">
  <advance width="644.2200000000001"/>
  <unicode hex="00B6"/>
  <outline>
    <contour>
      <point x="474.39" y="-210.0" type="line"/>
      <point x="578.87" y="-210.0" type="line"/>
      <point x="578.87" y="740.0" type="line"/>
      <point x="474.39" y="740.0" type="line"/>
    </contour>
    <contour>
      <point x="259.94" y="288.28" type="line"/>
      <point x="193.81" y="299.69"/>
      <point x="156.69000000000003" y="363.49"/>
      <point x="156.69000000000003" y="465.00000000000006" type="curve" smooth="yes"/>
      <point x="156.69000000000003" y="569.59"/>
      <point x="200.14999999999998" y="631.0899999999999"/>
      <point x="296.93000000000006" y="632.98" type="curve"/>
      <point x="296.93000000000006" y="-210.0" type="line"/>
      <point x="401.41" y="-210.0" type="line"/>
      <point x="401.41" y="740.0" type="line"/>
      <point x="329.90000000000003" y="740.0" type="line" smooth="yes"/>
      <point x="116.76" y="740.0"/>
      <point x="41.43000000000001" y="631.8900000000001"/>
      <point x="41.43000000000001" y="474.13000000000005" type="curve" smooth="yes"/>
      <point x="41.43000000000001" y="326.94"/>
      <point x="105.78" y="230.15"/>
      <point x="247.10000000000005" y="208.99" type="curve"/>
    </contour>
  </outline>
</glyph>
<glyph name="periodcentered" format="2">
  <advance width="216.60000000000002"/>
  <unicode hex="00B7"/>
  <outline>
    <contour>
      <point x="34.099999999999994" y="306.81999999999994" type="curve" smooth="yes"/>
      <point x="34.099999999999994" y="256.84"/>
      <point x="54.67999999999999" y="234.93999999999997"/>
      <point x="108.3" y="234.93999999999997" type="curve" smooth="yes"/>
      <point x="162.82000000000002" y="234.93999999999997"/>
      <point x="182.5" y="256.84"/>
      <point x="182.5" y="306.81999999999994" type="curve" smooth="yes"/>
      <point x="182.5" y="357.80000000000007"/>
      <point x="162.82000000000002" y="379.7"/>
      <point x="108.3" y="379.7" type="curve" smooth="yes"/>
      <point x="53.779999999999994" y="379.7"/>
      <point x="34.099999999999994" y="357.80000000000007"/>
    </contour>
  </outline>
</glyph>
<glyph name="uni00B9" format="2">
  <advance width="370.26"/>
  <unicode hex="00B9"/>
  <outline>
    <contour>
      <point x="39.45" y="370.0" type="line"/>
      <point x="348.29" y="370.0" type="line"/>
      <point x="348.29" y="436.1" type="line"/>
      <point x="250.28" y="436.1" type="line"/>
      <point x="250.28" y="767.9900000000001" type="line"/>
      <point x="201.49" y="767.9900000000001" type="line"/>
      <point x="24.54" y="698.97" type="line"/>
      <point x="46.15" y="626.3700000000001" type="line"/>
      <point x="152.63" y="671.48" type="line"/>
      <point x="152.63" y="436.1" type="line"/>
      <point x="39.45" y="436.1" type="line"/>
    </contour>
  </outline>
</glyph>
<glyph name="ordmasculine" format="2">
  <advance width="391.54"/>
  <unicode hex="00BA"/>
  <outline>
    <contour>
      <point x="42.56" y="241.77" type="line"/>
      <point x="353.31" y="241.77" type="line"/>
      <point x="353.31" y="311.77000000000004" type="line"/>
      <point x="42.56" y="311.77000000000004" type="line"/>
    </contour>
    <component base="o.superior" xOffset="11.239999999999998"/>
  </outline>
</glyph>
<glyph name="questiondown" format="2">
  <advance width="476.37"/>
  <unicode hex="00BF"/>
  <outline>
    <contour>
      <point x="322.9" y="276.44" type="line"/>
      <point x="208.19" y="276.44" type="line"/>
      <point x="207.75" y="209.73" type="line"/>
      <point x="84.14" y="158.51999999999998"/>
      <point x="32.72" y="93.5"/>
      <point x="32.72" y="-11.699999999999996" type="curve" smooth="yes"/>
      <point x="32.72" y="-152.4"/>
      <point x="136.09" y="-212.52"/>
      <point x="257.56" y="-212.52" type="curve" smooth="yes"/>
      <point x="331.0" y="-212.52"/>
      <point x="415.41" y="-187.79000000000002"/>
      <point x="471.46999999999997" y="-148.17" type="curve"/>
      <point x="430.90000000000003" y="-43.739999999999995" type="line"/>
      <point x="378.02000000000004" y="-77.32999999999998"/>
      <point x="325.71000000000004" y="-91.80999999999997"/>
      <point x="278.35" y="-91.80999999999997" type="curve" smooth="yes"/>
      <point x="218.65000000000003" y="-91.80999999999997"/>
      <point x="170.69" y="-60.53999999999999"/>
      <point x="170.69" y="3.160000000000005" type="curve" smooth="yes"/>
      <point x="170.69" y="58.46"/>
      <point x="197.65" y="102.36000000000001"/>
      <point x="325.76000000000005" y="149.64" type="curve"/>
    </contour>
    <contour>
      <point x="338.11" y="471.53" type="curve" smooth="yes"/>
      <point x="338.11" y="520.9699999999999"/>
      <point x="318.13" y="542.87"/>
      <point x="264.45000000000005" y="542.87" type="curve" smooth="yes"/>
      <point x="210.98" y="542.87"/>
      <point x="191.05999999999997" y="520.9699999999999"/>
      <point x="191.05999999999997" y="471.53" type="curve" smooth="yes"/>
      <point x="191.05999999999997" y="421.54"/>
      <point x="210.98" y="399.64"/>
      <point x="264.45000000000005" y="399.64" type="curve" smooth="yes"/>
      <point x="318.85" y="399.64"/>
      <point x="338.11" y="421.54"/>
    </contour>
  </outline>
</glyph>
<glyph name="AE" format="2">
  <advance width="974.0400000000001"/>
  <unicode hex="00C6"/>
  <anchor x="521.48" y="700.0" name="top"/>
  <outline>
    <contour>
      <point x="5.5200000000000005" y="0.0" type="line"/>
      <point x="162.5" y="-0.8999999999999999" type="line"/>
      <point x="277.44" y="208.29999999999998" type="line"/>
      <point x="458.74" y="208.29999999999998" type="line"/>
      <point x="458.74" y="0.0" type="line"/>
      <point x="948.1999999999999" y="0.0" type="line"/>
      <point x="948.1999999999999" y="119.68" type="line"/>
      <point x="595.16" y="119.68" type="line"/>
      <point x="595.16" y="282.78000000000003" type="line"/>
      <point x="906.8199999999999" y="282.78000000000003" type="line"/>
      <point x="906.8199999999999" y="399.96000000000004" type="line"/>
      <point x="595.16" y="399.96000000000004" type="line"/>
      <point x="595.16" y="580.02" type="line"/>
      <point x="931.0799999999999" y="580.02" type="line"/>
      <point x="931.0799999999999" y="700.0" type="line"/>
      <point x="385.71999999999997" y="700.0" type="line"/>
    </contour>
    <contour>
      <point x="329.16" y="320.00000000000006" type="line"/>
      <point x="457.71999999999997" y="595.92" type="line"/>
      <point x="457.71999999999997" y="320.00000000000006" type="line"/>
    </contour>
  </outline>
</glyph>
<glyph name="multiply" format="2">
  <advance width="483.94"/>
  <unicode hex="00D7"/>
  <outline>
    <contour>
      <point x="120.27999999999999" y="99.20000000000002" type="line"/>
      <point x="241.88000000000002" y="237.57000000000002" type="line"/>
      <point x="363.47999999999996" y="100.00999999999999" type="line"/>
      <point x="436.53" y="177.45" type="line"/>
      <point x="320.79" y="312.09" type="line"/>
      <point x="436.62" y="447.85" type="line"/>
      <point x="363.57" y="525.29" type="line"/>
      <point x="241.88000000000002" y="386.88" type="line"/>
      <point x="120.1" y="525.65" type="line"/>
      <point x="47.050000000000004" y="448.21000000000004" type="line"/>
      <point x="163.01999999999998" y="312.09" type="line"/>
      <point x="47.230000000000004" y="176.64" type="line"/>
    </contour>
  </outline>
</glyph>
<glyph name="Oslash" format="2">
  <advance width="707.8"/>
  <unicode hex="00D8"/>
  <anchor x="352.50000000000006" y="700.0" name="top"/>
  <outline>
    <contour>
      <point x="141.4" y="-11.8" type="line"/>
      <point x="203.70000000000002" y="79.70000000000002" type="line"/>
      <point x="208.3" y="78.60000000000001" type="line"/>
      <point x="565.7" y="581.3000000000001" type="line"/>
      <point x="570.3" y="580.0" type="line"/>
      <point x="663.8000000000001" y="715.5" type="line"/>
      <point x="563.7" y="715.5" type="line"/>
      <point x="504.09999999999997" y="629.5999999999999" type="line"/>
      <point x="499.40000000000003" y="630.5999999999999" type="line"/>
      <point x="148.10000000000002" y="135.4" type="line"/>
      <point x="143.39999999999998" y="136.3" type="line"/>
      <point x="42.199999999999996" y="-11.8" type="line"/>
    </contour>
    <contour>
      <point x="352.50000000000006" y="93.4" type="curve" smooth="yes"/>
      <point x="249.7" y="93.4"/>
      <point x="166.5" y="144.8"/>
      <point x="166.5" y="349.9" type="curve" smooth="yes"/>
      <point x="166.5" y="558.2"/>
      <point x="249.8" y="606.6"/>
      <point x="352.50000000000006" y="606.6" type="curve" smooth="yes"/>
      <point x="455.3" y="606.6"/>
      <point x="539.5" y="558.5"/>
      <point x="539.5" y="350.09999999999997" type="curve" smooth="yes"/>
      <point x="539.5" y="142.60000000000002"/>
      <point x="455.2" y="93.4"/>
    </contour>
    <contour>
      <point x="352.40000000000003" y="-10.0" type="curve" smooth="yes"/>
      <point x="545.7" y="-10.0"/>
      <point x="670.1" y="73.80000000000001"/>
      <point x="670.1" y="352.20000000000005" type="curve" smooth="yes"/>
      <point x="670.1" y="625.5000000000001"/>
      <point x="547.1000000000001" y="710.0"/>
      <point x="352.50000000000006" y="710.0" type="curve" smooth="yes"/>
      <point x="156.79999999999998" y="710.0"/>
      <point x="35.89999999999999" y="624.3"/>
      <point x="35.89999999999999" y="349.79999999999995" type="curve" smooth="yes"/>
      <point x="35.89999999999999" y="77.0"/>
      <point x="160.3" y="-10.0"/>
    </contour>
  </outline>
</glyph>
<glyph name="Thorn" format="2">
  <advance width="651.9300000000001"/>
  <unicode hex="00DE"/>
  <outline>
    <contour>
      <point x="60.92999999999999" y="0.0" type="line"/>
      <point x="198.41" y="0.0" type="line"/>
      <point x="198.41" y="133.71" type="line"/>
      <point x="274.93" y="130.52"/>
      <point x="281.08" y="130.34"/>
      <point x="352.3" y="130.34" type="curve" smooth="yes"/>
      <point x="548.6400000000001" y="130.34"/>
      <point x="621.0300000000001" y="204.33"/>
      <point x="621.0300000000001" y="386.59" type="curve" smooth="yes"/>
      <point x="621.0300000000001" y="561.8000000000001"/>
      <point x="558.21" y="630.51"/>
      <point x="315.83000000000004" y="630.51" type="curve" smooth="yes"/>
      <point x="291.87" y="630.51"/>
      <point x="256.28" y="629.66"/>
      <point x="198.74" y="627.46" type="curve"/>
      <point x="198.74" y="700.0" type="line"/>
      <point x="60.92999999999999" y="700.0" type="line"/>
    </contour>
    <contour>
      <point x="310.65999999999997" y="242.85" type="curve" smooth="yes"/>
      <point x="270.92999999999995" y="242.85"/>
      <point x="247.94000000000005" y="243.61"/>
      <point x="198.74" y="245.95999999999998" type="curve"/>
      <point x="198.74" y="516.76" type="line"/>
      <point x="268.41" y="520.88"/>
      <point x="292.08" y="521.51"/>
      <point x="326.0" y="521.51" type="curve" smooth="yes"/>
      <point x="451.17" y="521.51"/>
      <point x="482.01" y="482.27"/>
      <point x="482.01" y="389.52" type="curve" smooth="yes"/>
      <point x="482.01" y="291.22999999999996"/>
      <point x="452.21000000000004" y="242.85"/>
    </contour>
  </outline>
</glyph>
<glyph name="germandbls" format="2">
  <advance width="687.7200000000001"/>
  <unicode hex="00DF"/>
  <outline>
    <contour>
      <point x="93.5" y="0.0" type="line"/>
      <point x="225.98000000000002" y="0.0" type="line"/>
      <point x="225.98000000000002" y="507.05999999999995" type="line" smooth="yes"/>
      <point x="225.98000000000002" y="602.6600000000001"/>
      <point x="278.68" y="646.1800000000001"/>
      <point x="380.38000000000005" y="646.1800000000001" type="curve" smooth="yes"/>
      <point x="464.94" y="646.1800000000001"/>
      <point x="491.2" y="627.7199999999999"/>
      <point x="491.2" y="586.86" type="curve" smooth="yes"/>
      <point x="491.2" y="555.18"/>
      <point x="475.62" y="542.38"/>
      <point x="416.14000000000004" y="517.02" type="curve" smooth="yes"/>
      <point x="339.26" y="489.08"/>
      <point x="301.94" y="447.28"/>
      <point x="301.94" y="379.97999999999996" type="curve" smooth="yes"/>
      <point x="301.94" y="290.88000000000005"/>
      <point x="339.94" y="251.15999999999997"/>
      <point x="465.8" y="222.51999999999998" type="curve" smooth="yes"/>
      <point x="537.38" y="203.28000000000003"/>
      <point x="561.1600000000001" y="192.3"/>
      <point x="561.1600000000001" y="153.36" type="curve" smooth="yes"/>
      <point x="561.1600000000001" y="108.7"/>
      <point x="514.9" y="89.52"/>
      <point x="455.62" y="89.52" type="curve" smooth="yes"/>
      <point x="397.58" y="89.52"/>
      <point x="339.4" y="101.78000000000002"/>
      <point x="286.4800000000001" y="117.14000000000001" type="curve"/>
      <point x="268.96" y="19.919999999999995" type="line"/>
      <point x="328.4" y="-0.4600000000000004"/>
      <point x="390.96" y="-9.96"/>
      <point x="455.88" y="-9.96" type="curve" smooth="yes"/>
      <point x="575.64" y="-9.96"/>
      <point x="684.1400000000001" y="37.900000000000006"/>
      <point x="684.1400000000001" y="162.44000000000003" type="curve" smooth="yes"/>
      <point x="684.1400000000001" y="254.66"/>
      <point x="636.9000000000001" y="296.72"/>
      <point x="512.3" y="324.54" type="curve" smooth="yes"/>
      <point x="441.59999999999997" y="341.44"/>
      <point x="422.78000000000003" y="357.28"/>
      <point x="422.78000000000003" y="388.1" type="curve" smooth="yes"/>
      <point x="422.78000000000003" y="418.74000000000007"/>
      <point x="444.8" y="425.06"/>
      <point x="489.1" y="443.12" type="curve" smooth="yes"/>
      <point x="577.78" y="480.02"/>
      <point x="619.62" y="511.49999999999994"/>
      <point x="619.62" y="586.8" type="curve" smooth="yes"/>
      <point x="619.62" y="696.0600000000001"/>
      <point x="536.92" y="750.0"/>
      <point x="375.98" y="750.0" type="curve" smooth="yes"/>
      <point x="189.87999999999997" y="750.0"/>
      <point x="93.3" y="673.3600000000001"/>
      <point x="93.5" y="527.06" type="curve" smooth="yes"/>
      <point x="93.5" y="498.52" type="line"/>
      <point x="16.38" y="488.8" type="line"/>
      <point x="16.38" y="400.82" type="line"/>
      <point x="93.5" y="400.82" type="line"/>
    </contour>
  </outline>
</glyph>
<glyph name="ae" format="2">
  <advance width="841.0799999999999"/>
  <unicode hex="00E6"/>
  <anchor x="427.66" y="541.0" name="top"/>
  <outline>
    <contour>
      <point x="174.22000000000003" y="-10.0" type="curve" smooth="yes"/>
      <point x="261.11999999999995" y="-10.0"/>
      <point x="326.16" y="27.0"/>
      <point x="386.06" y="78.08" type="curve"/>
      <point x="388.0" y="78.08" type="line"/>
      <point x="431.56000000000006" y="15.959999999999999"/>
      <point x="492.04" y="-10.0"/>
      <point x="594.24" y="-10.0" type="curve" smooth="yes"/>
      <point x="677.24" y="-10.0"/>
      <point x="742.14" y="0.8999999999999999"/>
      <point x="807.28" y="21.52" type="curve"/>
      <point x="790.26" y="123.86000000000001" type="line"/>
      <point x="733.9200000000001" y="109.78"/>
      <point x="667.9599999999999" y="99.88000000000001"/>
      <point x="610.54" y="99.88000000000001" type="curve" smooth="yes"/>
      <point x="516.4800000000001" y="99.88000000000001"/>
      <point x="478.5" y="124.88000000000001"/>
      <point x="476.42" y="225.20000000000002" type="curve" smooth="yes"/>
      <point x="475.48" y="229.78"/>
      <point x="475.48" y="237.06000000000003"/>
      <point x="476.4" y="239.28" type="curve"/>
      <point x="628.0" y="242.48"/>
      <point x="750.5600000000001" y="255.22"/>
      <point x="809.7" y="260.3" type="curve"/>
      <point x="809.76" y="274.14000000000004"/>
      <point x="810.8" y="291.44000000000005"/>
      <point x="810.8" y="306.58" type="curve" smooth="yes"/>
      <point x="810.8" y="479.36"/>
      <point x="737.1" y="551.0"/>
      <point x="586.38" y="551.0" type="curve" smooth="yes"/>
      <point x="515.7199999999999" y="551.0"/>
      <point x="456.48" y="529.6800000000001"/>
      <point x="418.08" y="467.76" type="curve"/>
      <point x="417.04" y="467.76" type="line"/>
      <point x="384.92" y="524.0"/>
      <point x="335.42" y="551.0"/>
      <point x="244.56" y="551.0" type="curve" smooth="yes"/>
      <point x="187.58" y="551.0"/>
      <point x="115.89999999999999" y="539.74"/>
      <point x="55.2" y="521.5" type="curve"/>
      <point x="76.58000000000001" y="415.92" type="line"/>
      <point x="136.42" y="433.14"/>
      <point x="196.32" y="438.94000000000005"/>
      <point x="234.71999999999997" y="438.94000000000005" type="curve" smooth="yes"/>
      <point x="305.93999999999994" y="438.94000000000005"/>
      <point x="338.42" y="412.4200000000001"/>
      <point x="338.42" y="367.58" type="curve" smooth="yes"/>
      <point x="338.42" y="323.32" type="line"/>
      <point x="122.32000000000001" y="307.8"/>
      <point x="23.819999999999997" y="270.32"/>
      <point x="23.819999999999997" y="140.64" type="curve" smooth="yes"/>
      <point x="23.819999999999997" y="43.82"/>
      <point x="81.0" y="-10.0"/>
    </contour>
    <contour>
      <point x="220.32" y="80.18" type="curve" smooth="yes"/>
      <point x="183.84" y="80.18"/>
      <point x="158.88" y="103.7"/>
      <point x="158.88" y="149.9" type="curve" smooth="yes"/>
      <point x="158.88" y="222.16"/>
      <point x="227.60000000000002" y="239.88"/>
      <point x="338.5" y="249.62" type="curve"/>
      <point x="338.53999999999996" y="240.48"/>
      <point x="338.53999999999996" y="230.02"/>
      <point x="338.53999999999996" y="220.46" type="curve" smooth="yes"/>
      <point x="338.53999999999996" y="188.48"/>
      <point x="340.2" y="162.76"/>
      <point x="344.9" y="139.64000000000001" type="curve"/>
      <point x="315.74" y="109.94"/>
      <point x="265.68000000000006" y="80.18"/>
    </contour>
    <contour>
      <point x="476.29999999999995" y="316.22" type="curve"/>
      <point x="477.52000000000004" y="428.0"/>
      <point x="528.38" y="455.25999999999993"/>
      <point x="578.6999999999999" y="455.25999999999993" type="curve" smooth="yes"/>
      <point x="639.9599999999999" y="455.25999999999993"/>
      <point x="670.4000000000001" y="417.18"/>
      <point x="674.8" y="326.42" type="curve"/>
      <point x="642.1" y="323.79999999999995"/>
      <point x="565.5" y="316.26"/>
    </contour>
  </outline>
</glyph>
<glyph name="eth" format="2">
  <advance width="567.3000000000001"/>
  <unicode hex="00F0"/>
  <outline>
    <contour>
      <point x="425.9" y="410.40000000000003" type="curve"/>
      <point x="430.3" y="499.6" type="line"/>
      <point x="385.3" y="525.2"/>
      <point x="336.1" y="533.6"/>
      <point x="276.4" y="533.6" type="curve" smooth="yes"/>
      <point x="104.0" y="533.6"/>
      <point x="30.700000000000003" y="441.1"/>
      <point x="30.700000000000003" y="254.20000000000002" type="curve" smooth="yes"/>
      <point x="30.700000000000003" y="73.6"/>
      <point x="108.1" y="-10.0"/>
      <point x="268.1" y="-10.0" type="curve" smooth="yes"/>
      <point x="465.1" y="-10.0"/>
      <point x="535.5000000000001" y="84.19999999999999"/>
      <point x="535.5000000000001" y="349.6" type="curve" smooth="yes"/>
      <point x="535.5000000000001" y="617.1999999999999"/>
      <point x="427.3" y="735.6"/>
      <point x="215.9" y="735.6" type="curve" smooth="yes"/>
      <point x="156.89999999999998" y="735.6"/>
      <point x="101.4" y="726.9"/>
      <point x="40.0" y="710.3999999999999" type="curve"/>
      <point x="53.4" y="624.1" type="line"/>
      <point x="106.0" y="637.0"/>
      <point x="142.5" y="645.3"/>
      <point x="188.3" y="645.3" type="curve" smooth="yes"/>
      <point x="351.6" y="645.3"/>
      <point x="407.7" y="579.2"/>
      <point x="407.7" y="356.2" type="curve" smooth="yes"/>
      <point x="407.7" y="138.6"/>
      <point x="371.90000000000003" y="88.5"/>
      <point x="280.5" y="88.5" type="curve" smooth="yes"/>
      <point x="200.5" y="88.5"/>
      <point x="163.1" y="132.3"/>
      <point x="163.1" y="255.3" type="curve" smooth="yes"/>
      <point x="163.1" y="397.9"/>
      <point x="205.8" y="442.8"/>
      <point x="298.3" y="442.8" type="curve" smooth="yes"/>
      <point x="344.4" y="442.8"/>
      <point x="387.9" y="433.59999999999997"/>
    </contour>
    <contour>
      <point x="191.4" y="553.3000000000001" type="line"/>
      <point x="366.2" y="646.6999999999999" type="line"/>
      <point x="372.0" y="654.3000000000001" type="line"/>
      <point x="525.1" y="739.3" type="line"/>
      <point x="406.20000000000005" y="739.4" type="line"/>
      <point x="311.7" y="687.1" type="line"/>
      <point x="306.49999999999994" y="680.4" type="line"/>
      <point x="72.19999999999999" y="553.4" type="line"/>
    </contour>
  </outline>
</glyph>
<glyph name="divide" format="2">
  <advance width="511.88"/>
  <unicode hex="00F7"/>
  <outline>
    <contour>
      <point x="191.58" y="126.86" type="curve" smooth="yes"/>
      <point x="191.58" y="86.89999999999998"/>
      <point x="209.95999999999998" y="70.39999999999998"/>
      <point x="255.94" y="70.39999999999998" type="curve" smooth="yes"/>
      <point x="302.8" y="70.39999999999998"/>
      <point x="320.34000000000003" y="86.89999999999998"/>
      <point x="320.34000000000003" y="126.86" type="curve" smooth="yes"/>
      <point x="320.34000000000003" y="166.06"/>
      <point x="302.80000000000007" y="183.46"/>
      <point x="255.94" y="183.46" type="curve" smooth="yes"/>
      <point x="209.06" y="183.46"/>
      <point x="191.58" y="166.06"/>
    </contour>
    <contour>
      <point x="191.58" y="491.65999999999997" type="curve" smooth="yes"/>
      <point x="191.58" y="452.59999999999997"/>
      <point x="209.95999999999998" y="435.20000000000005"/>
      <point x="255.94" y="435.20000000000005" type="curve" smooth="yes"/>
      <point x="302.8" y="435.20000000000005"/>
      <point x="320.34000000000003" y="452.59999999999997"/>
      <point x="320.34000000000003" y="491.65999999999997" type="curve" smooth="yes"/>
      <point x="320.34000000000003" y="531.76"/>
      <point x="302.8" y="549.1599999999999"/>
      <point x="255.94" y="549.1599999999999" type="curve" smooth="yes"/>
      <point x="209.06" y="549.1599999999999"/>
      <point x="191.58" y="531.76"/>
    </contour>
    <contour>
      <point x="49.019999999999996" y="255.89999999999998" type="line"/>
      <point x="462.86000000000007" y="255.89999999999998" type="line"/>
      <point x="462.86000000000007" y="363.69999999999993" type="line"/>
      <point x="49.019999999999996" y="363.69999999999993" type="line"/>
    </contour>
  </outline>
</glyph>
<glyph name="oslash" format="2">
  <advance width="574.1"/>
  <unicode hex="00F8"/>
  <anchor x="286.00000000000006" y="541.0" name="top"/>
  <outline>
    <contour>
      <point x="286.00000000000006" y="-10.0" type="curve" smooth="yes"/>
      <point x="97.7" y="-10.0"/>
      <point x="30.699999999999996" y="89.1"/>
      <point x="30.699999999999996" y="271.6" type="curve" smooth="yes"/>
      <point x="30.699999999999996" y="449.0"/>
      <point x="89.8" y="551.0"/>
      <point x="286.00000000000006" y="551.0" type="curve" smooth="yes"/>
      <point x="481.40000000000003" y="551.0"/>
      <point x="541.5" y="449.0"/>
      <point x="541.5" y="271.6" type="curve" smooth="yes"/>
      <point x="541.5" y="89.1"/>
      <point x="474.40000000000003" y="-10.0"/>
    </contour>
    <contour>
      <point x="286.0" y="85.6" type="curve" smooth="yes"/>
      <point x="378.09999999999997" y="85.6"/>
      <point x="413.4" y="129.50000000000003"/>
      <point x="413.4" y="271.6" type="curve" smooth="yes"/>
      <point x="413.4" y="409.59999999999997"/>
      <point x="382.4" y="455.5"/>
      <point x="286.0" y="455.5" type="curve" smooth="yes"/>
      <point x="188.60000000000002" y="455.5"/>
      <point x="157.8" y="409.59999999999997"/>
      <point x="157.8" y="271.6" type="curve" smooth="yes"/>
      <point x="157.8" y="129.50000000000003"/>
      <point x="193.8" y="85.6"/>
    </contour>
    <contour>
      <point x="30.5" y="-6.299999999999999" type="line"/>
      <point x="113.79999999999998" y="106.9" type="line"/>
      <point x="114.9" y="106.0" type="line"/>
      <point x="398.8" y="481.9" type="line"/>
      <point x="399.90000000000003" y="481.0" type="line"/>
      <point x="451.40000000000003" y="551.0" type="line"/>
      <point x="541.6999999999999" y="551.0" type="line"/>
      <point x="452.2" y="430.2" type="line"/>
      <point x="451.1" y="431.1" type="line"/>
      <point x="171.4" y="61.7" type="line"/>
      <point x="170.3" y="62.599999999999994" type="line"/>
      <point x="118.9" y="-6.299999999999999" type="line"/>
    </contour>
  </outline>
</glyph>
<glyph name="thorn" format="2">
  <advance width="565.4300000000001"/>
  <unicode hex="00FE"/>
  <outline>
    <contour>
      <point x="52.349999999999994" y="-210.0" type="line"/>
      <point x="184.66" y="-210.0" type="line"/>
      <point x="184.66" y="-2.5000000000000004" type="line"/>
      <point x="214.04000000000002" y="-7.619999999999999"/>
      <point x="243.49" y="-10.0"/>
      <point x="270.48" y="-10.0" type="curve" smooth="yes"/>
      <point x="457.52" y="-10.0"/>
      <point x="534.6" y="72.47"/>
      <point x="534.6" y="280.62" type="curve" smooth="yes"/>
      <point x="534.6" y="458.64000000000004"/>
      <point x="464.8" y="551.0"/>
      <point x="333.02" y="551.0" type="curve" smooth="yes"/>
      <point x="285.98" y="551.0"/>
      <point x="233.08000000000004" y="538.48"/>
      <point x="185.32" y="517.49" type="curve"/>
      <point x="185.32" y="740.0" type="line"/>
      <point x="52.349999999999994" y="740.0" type="line"/>
    </contour>
    <contour>
      <point x="271.11" y="86.01" type="curve" smooth="yes"/>
      <point x="246.39000000000001" y="86.01"/>
      <point x="218.43" y="89.6"/>
      <point x="185.43" y="97.5" type="curve"/>
      <point x="185.43" y="421.08" type="line"/>
      <point x="221.44" y="434.19000000000005"/>
      <point x="253.16000000000003" y="439.98"/>
      <point x="282.56" y="439.98" type="curve" smooth="yes"/>
      <point x="358.96000000000004" y="439.98"/>
      <point x="397.34000000000003" y="388.73"/>
      <point x="397.34000000000003" y="270.61000000000007" type="curve" smooth="yes"/>
      <point x="397.34000000000003" y="132.0"/>
      <point x="359.72999999999996" y="86.01"/>
    </contour>
  </outline>
</glyph>
<glyph name="Dcroat" format="2">
  <advance width="683.0799999999999"/>
  <unicode hex="0110"/>
  <outline>
    <contour>
      <point x="5.280000000000001" y="302.81999999999994" type="line"/>
      <point x="324.56" y="302.81999999999994" type="line"/>
      <point x="324.56" y="407.3" type="line"/>
      <point x="5.280000000000001" y="407.3" type="line"/>
    </contour>
    <component base="D" xOffset="3.0199999999999996"/>
  </outline>
</glyph>
<glyph name="dcroat" format="2">
  <advance width="571.4799999999999"/>
  <unicode hex="0111"/>
  <outline>
    <contour>
      <point x="234.05999999999997" y="606.0" type="line"/>
      <point x="578.6999999999999" y="606.0" type="line"/>
      <point x="578.6999999999999" y="681.2" type="line"/>
      <point x="234.05999999999997" y="681.2" type="line"/>
    </contour>
    <component base="d"/>
  </outline>
</glyph>
<glyph name="Hbar" format="2">
  <advance width="692.7700000000001"/>
  <unicode hex="0126"/>
  <outline>
    <contour>
      <point x="15.959999999999999" y="499.01" type="line"/>
      <point x="61.309999999999995" y="499.01" type="line"/>
      <point x="61.309999999999995" y="0.0" type="line"/>
      <point x="198.45999999999998" y="0.0" type="line"/>
      <point x="198.45999999999998" y="252.61" type="line"/>
      <point x="496.51000000000005" y="252.61" type="line"/>
      <point x="496.51000000000005" y="0.0" type="line"/>
      <point x="631.46" y="0.0" type="line"/>
      <point x="631.46" y="499.01" type="line"/>
      <point x="676.8100000000001" y="499.01" type="line"/>
      <point x="676.8100000000001" y="591.1899999999999" type="line"/>
      <point x="631.46" y="591.1899999999999" type="line"/>
      <point x="631.46" y="700.0" type="line"/>
      <point x="496.51000000000005" y="700.0" type="line"/>
      <point x="496.51000000000005" y="591.1899999999999" type="line"/>
      <point x="198.45999999999998" y="591.1899999999999" type="line"/>
      <point x="198.45999999999998" y="700.0" type="line"/>
      <point x="61.309999999999995" y="700.0" type="line"/>
      <point x="61.309999999999995" y="591.1899999999999" type="line"/>
      <point x="15.959999999999999" y="591.1899999999999" type="line"/>
    </contour>
    <contour>
      <point x="198.45999999999998" y="375.19" type="line"/>
      <point x="198.45999999999998" y="499.01" type="line"/>
      <point x="496.51000000000005" y="499.01" type="line"/>
      <point x="496.51000000000005" y="375.19" type="line"/>
    </contour>
  </outline>
</glyph>
<glyph name="hbar" format="2">
  <advance width="565.5399999999998"/>
  <unicode hex="0127"/>
  <outline>
    <contour>
      <point x="-6.120000000000001" y="606.0" type="line"/>
      <point x="342.7" y="606.0" type="line"/>
      <point x="342.7" y="681.2" type="line"/>
      <point x="-6.120000000000001" y="681.2" type="line"/>
    </contour>
    <component base="h"/>
  </outline>
</glyph>
<glyph name="Idotaccent" format="2">
  <advance width="259.01000000000005"/>
  <unicode hex="0130"/>
  <outline>
    <contour>
      <point x="130.0" y="764.22" type="curve" smooth="yes"/>
      <point x="186.38000000000002" y="764.22"/>
      <point x="208.78000000000003" y="785.24"/>
      <point x="208.78000000000003" y="832.37" type="curve" smooth="yes"/>
      <point x="208.78000000000003" y="880.1600000000001"/>
      <point x="185.72000000000003" y="900.85"/>
      <point x="130.0" y="900.85" type="curve" smooth="yes"/>
      <point x="73.95" y="900.85"/>
      <point x="50.89" y="880.1600000000001"/>
      <point x="50.89" y="832.37" type="curve" smooth="yes"/>
      <point x="50.89" y="784.91"/>
      <point x="74.4" y="764.22"/>
    </contour>
    <component base="I"/>
  </outline>
</glyph>
<glyph name="dotlessi" format="2">
  <advance width="238.44"/>
  <unicode hex="0131"/>
  <anchor x="177.98999999999998" y="5.5" name="ogonek"/>
  <anchor x="119.88000000000001" y="0.0" name="bottom"/>
  <anchor x="119.22" y="541.0" name="top"/>
  <outline>
    <contour>
      <point x="52.349999999999994" y="0.0" type="line"/>
      <point x="186.09" y="0.0" type="line"/>
      <point x="186.09" y="541.0" type="line"/>
      <point x="52.349999999999994" y="541.0" type="line"/>
    </contour>
  </outline>
</glyph>
<glyph name="Ldot" format="2">
  <advance width="538.95"/>
  <unicode hex="013F"/>
  <outline>
    <contour>
      <point x="334.08000000000004" y="394.03" type="curve" smooth="yes"/>
      <point x="334.08000000000004" y="353.83000000000004"/>
      <point x="350.55000000000007" y="336.55"/>
      <point x="396.25" y="336.55" type="curve" smooth="yes"/>
      <point x="442.73" y="336.55"/>
      <point x="458.75000000000006" y="353.83000000000004"/>
      <point x="458.75000000000006" y="394.03" type="curve" smooth="yes"/>
      <point x="458.75000000000006" y="434.78"/>
      <point x="442.73" y="452.06"/>
      <point x="396.25" y="452.06" type="curve" smooth="yes"/>
      <point x="350.1" y="452.06"/>
      <point x="334.08000000000004" y="434.78"/>
    </contour>
    <component base="L"/>
  </outline>
</glyph>
<glyph name="ldot" format="2">
  <advance width="343.29999999999995"/>
  <unicode hex="0140"/>
  <outline>
    <contour>
      <point x="296.45" y="327.83000000000004" type="curve" smooth="yes"/>
      <point x="328.3" y="327.83000000000004"/>
      <point x="341.24" y="341.81000000000006"/>
      <point x="341.24" y="378.49" type="curve" smooth="yes"/>
      <point x="341.24" y="415.5"/>
      <point x="328.3" y="429.48"/>
      <point x="296.45" y="429.48" type="curve" smooth="yes"/>
      <point x="264.92999999999995" y="429.48"/>
      <point x="251.99" y="415.5"/>
      <point x="251.99" y="378.49" type="curve" smooth="yes"/>
      <point x="251.99" y="341.81000000000006"/>
      <point x="265.38" y="327.83000000000004"/>
    </contour>
    <component base="l"/>
  </outline>
</glyph>
<glyph name="Lslash" format="2">
  <advance width="551.04"/>
  <unicode hex="0141"/>
  <outline>
    <contour>
      <point x="12.7" y="189.85" type="line"/>
      <point x="73.02" y="227.1" type="line"/>
      <point x="73.02" y="0.0" type="line"/>
      <point x="533.74" y="0.0" type="line"/>
      <point x="533.74" y="120.27000000000001" type="line"/>
      <point x="210.5" y="120.27000000000001" type="line"/>
      <point x="210.5" y="293.89000000000004" type="line"/>
      <point x="401.36" y="407.04999999999995" type="line"/>
      <point x="401.36" y="525.97" type="line"/>
      <point x="210.5" y="413.08" type="line"/>
      <point x="210.5" y="700.0" type="line"/>
      <point x="73.02" y="700.0" type="line"/>
      <point x="73.02" y="346.28999999999996" type="line"/>
      <point x="12.7" y="309.03999999999996" type="line"/>
    </contour>
  </outline>
</glyph>
<glyph name="lslash" format="2">
  <advance width="310.96"/>
  <unicode hex="0142"/>
  <outline>
    <contour>
      <point x="195.73000000000002" y="-10.0" type="curve" smooth="yes"/>
      <point x="237.41" y="-10.0"/>
      <point x="278.66" y="-0.3199999999999994"/>
      <point x="309.78000000000003" y="10.870000000000003" type="curve"/>
      <point x="297.2" y="121.13" type="line"/>
      <point x="275.28" y="116.21000000000001"/>
      <point x="256.56" y="113.07000000000001"/>
      <point x="241.16" y="113.07000000000001" type="curve" smooth="yes"/>
      <point x="212.58999999999997" y="113.07000000000001"/>
      <point x="191.59" y="125.86000000000001"/>
      <point x="191.59" y="190.26999999999998" type="curve" smooth="yes"/>
      <point x="191.59" y="312.05" type="line"/>
      <point x="283.5" y="384.77" type="line"/>
      <point x="283.5" y="490.0" type="line"/>
      <point x="191.59" y="417.28" type="line"/>
      <point x="191.59" y="740.0" type="line"/>
      <point x="58.84" y="740.0" type="line"/>
      <point x="58.84" y="329.03000000000003" type="line"/>
      <point x="6.51" y="287.27" type="line"/>
      <point x="6.51" y="182.31" type="line"/>
      <point x="59.28" y="224.01999999999998" type="line"/>
      <point x="59.720000000000006" y="156.06" type="line" smooth="yes"/>
      <point x="63.46000000000001" y="28.79"/>
      <point x="110.05000000000001" y="-10.0"/>
    </contour>
  </outline>
</glyph>
<glyph name="Eng" format="2">
  <advance width="679.45"/>
  <unicode hex="014A"/>
  <outline>
    <contour>
      <point x="61.0" y="0.0" type="line"/>
      <point x="183.85000000000002" y="0.0" type="line"/>
      <point x="183.85000000000002" y="481.2" type="line"/>
      <point x="489.00000000000006" y="2.0999999999999996" type="line"/>
      <point x="489.00000000000006" y="-6.949999999999999" type="line" smooth="yes"/>
      <point x="488.1" y="-58.3"/>
      <point x="449.5" y="-80.1"/>
      <point x="388.25" y="-80.1" type="curve" smooth="yes"/>
      <point x="363.85" y="-80.1"/>
      <point x="334.0" y="-76.75"/>
      <point x="304.7" y="-69.55" type="curve"/>
      <point x="283.45" y="-175.45" type="line"/>
      <point x="319.35" y="-186.95000000000002"/>
      <point x="361.75" y="-195.25"/>
      <point x="409.15" y="-195.25" type="curve" smooth="yes"/>
      <point x="539.5" y="-195.25"/>
      <point x="618.45" y="-134.10000000000002"/>
      <point x="618.45" y="-12.200000000000001" type="curve" smooth="yes"/>
      <point x="618.45" y="700.0" type="line"/>
      <point x="496.69999999999993" y="700.0" type="line"/>
      <point x="496.69999999999993" y="212.20000000000002" type="line"/>
      <point x="190.20000000000002" y="701.8" type="line"/>
      <point x="61.0" y="701.8" type="line"/>
    </contour>
  </outline>
</glyph>
<glyph name="eng" format="2">
  <advance width="565.0600000000001"/>
  <unicode hex="014B"/>
  <outline>
    <contour>
      <point x="513.37" y="23.75" type="curve"/>
      <point x="513.37" y="400.03000000000003" type="line" smooth="yes"/>
      <point x="513.37" y="492.38000000000005"/>
      <point x="461.32" y="551.0"/>
      <point x="358.11" y="551.0" type="curve" smooth="yes"/>
      <point x="289.28" y="551.0"/>
      <point x="235.56" y="529.46"/>
      <point x="173.0" y="493.89000000000004" type="curve"/>
      <point x="173.0" y="541.0" type="line"/>
      <point x="52.349999999999994" y="541.0" type="line"/>
      <point x="52.349999999999994" y="0.0" type="line"/>
      <point x="185.43" y="0.0" type="line"/>
      <point x="185.43" y="405.24" type="line"/>
      <point x="225.83000000000004" y="424.84000000000003"/>
      <point x="261.19" y="439.03"/>
      <point x="302.43" y="439.03" type="curve" smooth="yes"/>
      <point x="354.18000000000006" y="439.03"/>
      <point x="380.28999999999996" y="411.05"/>
      <point x="380.28999999999996" y="356.47" type="curve" smooth="yes"/>
      <point x="380.28999999999996" y="21.93" type="line" smooth="yes"/>
      <point x="380.28999999999996" y="-39.93"/>
      <point x="364.73" y="-72.92999999999999"/>
      <point x="335.08" y="-87.32999999999998" type="curve" smooth="yes"/>
      <point x="328.08000000000004" y="-89.75999999999998"/>
      <point x="319.21" y="-90.96999999999998"/>
      <point x="311.21" y="-91.73" type="curve"/>
      <point x="308.62" y="-210.22" type="line"/>
      <point x="327.02" y="-211.11999999999998"/>
      <point x="345.37" y="-209.73999999999998"/>
      <point x="364.57" y="-207.04" type="curve" smooth="yes"/>
      <point x="456.92" y="-190.75"/>
      <point x="513.37" y="-108.81"/>
    </contour>
  </outline>
</glyph>
<glyph name="OE" format="2">
  <advance width="1004.2800000000001"/>
  <unicode hex="0152"/>
  <outline>
    <contour>
      <point x="978.4399999999999" y="0.0" type="line"/>
      <point x="978.4399999999999" y="119.68" type="line"/>
      <point x="619.6400000000001" y="119.68" type="line"/>
      <point x="619.6400000000001" y="300.78000000000003" type="line"/>
      <point x="936.16" y="300.78000000000003" type="line"/>
      <point x="936.16" y="417.96" type="line"/>
      <point x="619.6400000000001" y="417.96" type="line"/>
      <point x="619.6400000000001" y="580.9200000000001" type="line"/>
      <point x="960.4200000000001" y="580.9200000000001" type="line"/>
      <point x="960.4200000000001" y="700.0" type="line"/>
      <point x="603.08" y="700.0" type="line"/>
      <point x="523.6600000000001" y="705.14"/>
      <point x="445.5199999999999" y="708.1999999999999"/>
      <point x="361.82" y="708.1999999999999" type="curve" smooth="yes"/>
      <point x="147.92000000000002" y="708.1999999999999"/>
      <point x="35.279999999999994" y="607.36"/>
      <point x="35.279999999999994" y="354.08" type="curve" smooth="yes"/>
      <point x="35.279999999999994" y="71.96000000000001"/>
      <point x="160.91999999999996" y="-9.099999999999998"/>
      <point x="370.68" y="-9.099999999999998" type="curve" smooth="yes"/>
      <point x="456.02" y="-9.099999999999998"/>
      <point x="533.56" y="-6.18"/>
      <point x="619.58" y="0.0" type="curve"/>
    </contour>
    <contour>
      <point x="481.44" y="105.66" type="line"/>
      <point x="455.34000000000003" y="103.66"/>
      <point x="409.34" y="100.76000000000002"/>
      <point x="361.94" y="100.76000000000002" type="curve" smooth="yes"/>
      <point x="260.68" y="100.76000000000002"/>
      <point x="178.0" y="149.06"/>
      <point x="178.0" y="351.92" type="curve" smooth="yes"/>
      <point x="178.0" y="551.0400000000001"/>
      <point x="260.41999999999996" y="599.08"/>
      <point x="356.22" y="599.08" type="curve" smooth="yes"/>
      <point x="390.90000000000003" y="599.08"/>
      <point x="451.81999999999994" y="595.24"/>
      <point x="481.44" y="593.2399999999999" type="curve"/>
    </contour>
  </outline>
</glyph>
<glyph name="oe" format="2">
  <advance width="913.9100000000001"/>
  <unicode hex="0153"/>
  <outline>
    <contour>
      <point x="30.83" y="271.83" type="curve" smooth="yes"/>
      <point x="30.83" y="85.63"/>
      <point x="98.02" y="-10.0"/>
      <point x="283.86" y="-10.0" type="curve" smooth="yes"/>
      <point x="377.81" y="-10.0"/>
      <point x="433.93" y="21.169999999999998"/>
      <point x="467.15" y="79.72" type="curve"/>
      <point x="506.88000000000005" y="23.619999999999997"/>
      <point x="567.6" y="-10.0"/>
      <point x="658.58" y="-10.0" type="curve" smooth="yes"/>
      <point x="744.61" y="-10.0"/>
      <point x="814.9599999999999" y="0.8999999999999995"/>
      <point x="878.5500000000001" y="21.060000000000002" type="curve"/>
      <point x="862.34" y="122.89000000000001" type="line"/>
      <point x="798.55" y="108.25000000000001"/>
      <point x="725.3299999999999" y="97.66"/>
      <point x="672.89" y="97.66" type="curve" smooth="yes"/>
      <point x="585.39" y="97.66"/>
      <point x="535.89" y="130.06"/>
      <point x="535.89" y="218.89" type="curve" smooth="yes"/>
      <point x="535.89" y="224.85000000000002"/>
      <point x="535.67" y="234.71"/>
      <point x="536.4499999999999" y="242.67000000000002" type="curve"/>
      <point x="688.93" y="245.42000000000002"/>
      <point x="824.16" y="257.54"/>
      <point x="881.72" y="261.65" type="curve"/>
      <point x="882.27" y="274.79"/>
      <point x="883.27" y="292.87"/>
      <point x="883.27" y="307.84" type="curve" smooth="yes"/>
      <point x="883.27" y="473.14"/>
      <point x="813.97" y="551.0"/>
      <point x="656.04" y="551.0" type="curve" smooth="yes"/>
      <point x="575.92" y="551.0"/>
      <point x="513.13" y="513.2900000000001"/>
      <point x="474.66999999999996" y="452.05" type="curve"/>
      <point x="439.27" y="517.47"/>
      <point x="382.74" y="551.0"/>
      <point x="283.86" y="551.0" type="curve" smooth="yes"/>
      <point x="90.8" y="551.0"/>
      <point x="30.83" y="452.03000000000003"/>
    </contour>
    <contour>
      <point x="166.99" y="271.61" type="curve" smooth="yes"/>
      <point x="166.99" y="405.01000000000005"/>
      <point x="195.64000000000001" y="450.38"/>
      <point x="283.64000000000004" y="450.38" type="curve" smooth="yes"/>
      <point x="370.53" y="450.38"/>
      <point x="399.29" y="405.01000000000005"/>
      <point x="399.29" y="271.61" type="curve" smooth="yes"/>
      <point x="399.29" y="134.31"/>
      <point x="366.95" y="90.95"/>
      <point x="283.64000000000004" y="90.95" type="curve" smooth="yes"/>
      <point x="200.00000000000003" y="90.95"/>
      <point x="166.99" y="134.31"/>
    </contour>
    <contour>
      <point x="536.79" y="316.99" type="curve"/>
      <point x="547.96" y="433.12"/>
      <point x="598.0699999999999" y="456.42999999999995"/>
      <point x="651.53" y="456.42999999999995" type="curve" smooth="yes"/>
      <point x="712.78" y="456.42999999999995"/>
      <point x="746.01" y="422.19"/>
      <point x="749.31" y="326.06" type="curve"/>
      <point x="717.74" y="322.93"/>
      <point x="630.5" y="317.21000000000004"/>
    </contour>
  </outline>
</glyph>
<glyph name="uni0162" format="2">
  <advance width="578.4200000000001"/>
  <unicode hex="0162"/>
  <outline>
    <contour>
      <point x="180.81000000000003" y="-125.00000000000001" type="curve"/>
      <point x="176.49000000000004" y="-204.34" type="line"/>
      <point x="209.29999999999998" y="-215.76"/>
      <point x="238.45000000000002" y="-220.0"/>
      <point x="263.99000000000007" y="-220.0" type="curve" smooth="yes"/>
      <point x="351.38000000000005" y="-220.0"/>
      <point x="384.44000000000005" y="-171.14000000000001"/>
      <point x="384.44000000000005" y="-111.12" type="curve" smooth="yes"/>
      <point x="384.44000000000005" y="-72.64"/>
      <point x="363.54" y="-25.28"/>
      <point x="337.35" y="5.080000000000001" type="curve"/>
      <point x="242.25" y="4.180000000000001" type="line"/>
      <point x="266.62000000000006" y="-24.909999999999997"/>
      <point x="286.99" y="-58.08"/>
      <point x="286.99" y="-85.38" type="curve" smooth="yes"/>
      <point x="286.99" y="-117.83999999999999"/>
      <point x="267.38000000000005" y="-135.58"/>
      <point x="233.65" y="-135.58" type="curve" smooth="yes"/>
      <point x="218.97" y="-135.58"/>
      <point x="200.95" y="-132.06"/>
    </contour>
    <component base="T"/>
  </outline>
</glyph>
